999
dxfrw 0.6.3
  0
SECTION
  2
HEADER
  9
$ACADVER
  1
AC1021
  9
$DWGCODEPAGE
  3
ANSI_1252
  9
$INSBASE
 10
0
 20
0
 30
0
  9
$EXTMIN
 10
25.1221471959677
 20
52.54214719596769
 30
0
  9
$EXTMAX
 10
221.7378528040323
 20
399.1578528040324
 30
0
  9
$LIMMIN
 10
0
 20
0
  9
$LIMMAX
 10
420
 20
297
  9
$ORTHOMODE
 70
    0
  9
$REGENMODE
 70
    1
  9
$FILLMODE
 70
    1
  9
$QTEXTMODE
 70
    0
  9
$MIRRTEXT
 70
    1
  9
$LTSCALE
 40
1
  9
$ATTMODE
 70
    1
  9
$TEXTSIZE
 40
2.5
  9
$TRACEWID
 40
1
  9
$TEXTSTYLE
  7
Standard
  9
$CLAYER
  8
0
  9
$CELTYPE
  6
ByLayer
  9
$CECOLOR
 62
  256
  9
$CELTSCALE
 40
1
  9
$DISPSILH
 70
    0
  9
$DIMSCALE
 40
1
  9
$DIMASZ
 40
2.5
  9
$DIMEXO
 40
0.625
  9
$DIMDLI
 40
3.75
  9
$DIMRND
 40
0
  9
$DIMDLE
 40
0
  9
$DIMEXE
 40
1.25
  9
$DIMTP
 40
0
  9
$DIMTM
 40
0
  9
$DIMTXT
 40
2.5
  9
$DIMCEN
 40
2.5
  9
$DIMTSZ
 40
0
  9
$DIMTOL
 70
    0
  9
$DIMLIM
 70
    0
  9
$DIMTIH
 70
    0
  9
$DIMTOH
 70
    0
  9
$DIMSE1
 70
    0
  9
$DIMSE2
 70
    0
  9
$DIMTAD
 70
    1
  9
$DIMZIN
 70
    8
  9
$DIMBLK
  1

  9
$DIMASO
 70
    1
  9
$DIMSHO
 70
    1
  9
$DIMPOST
  1

  9
$DIMAPOST
  1

  9
$DIMALT
 70
    0
  9
$DIMALTD
 70
    3
  9
$DIMALTF
 40
0.03937007874
  9
$DIMLFAC
 40
1
  9
$DIMTOFL
 70
    1
  9
$DIMTVP
 40
0
  9
$DIMTIX
 70
    0
  9
$DIMSOXD
 70
    0
  9
$DIMSAH
 70
    0
  9
$DIMBLK1
  1

  9
$DIMBLK2
  1

  9
$DIMSTYLE
  2
ISO-25
  9
$DIMCLRD
 70
    0
  9
$DIMCLRE
 70
    0
  9
$DIMCLRT
 70
    0
  9
$DIMTFAC
 40
1
  9
$DIMGAP
 40
0.625
  9
$DIMJUST
 70
    0
  9
$DIMSD1
 70
    0
  9
$DIMSD2
 70
    0
  9
$DIMTOLJ
 70
    0
  9
$DIMTZIN
 70
    8
  9
$DIMALTZ
 70
    0
  9
$DIMALTTZ
 70
    0
  9
$DIMUPT
 70
    0
  9
$DIMDEC
 70
    2
  9
$DIMTDEC
 70
    2
  9
$DIMALTU
 70
    2
  9
$DIMALTTD
 70
    3
  9
$DIMTXSTY
  7
Standard
  9
$DIMAUNIT
 70
    0
  9
$DIMADEC
 70
    0
  9
$DIMALTRND
 40
0
  9
$DIMAZIN
 70
    0
  9
$DIMDSEP
 70
   44
  9
$DIMATFIT
 70
    3
  9
$DIMFRAC
 70
    0
  9
$DIMLDRBLK
  1

  9
$DIMLUNIT
 70
    2
  9
$DIMLWD
 70
   -2
  9
$DIMLWE
 70
   -2
  9
$DIMTMOVE
 70
    0
  9
$DIMFXL
 40
1
  9
$DIMFXLON
 70
    0
  9
$DIMJOGANG
 40
0.785398163397
  9
$DIMTFILL
 70
    0
  9
$DIMTFILLCLR
 70
    0
  9
$DIMARCSYM
 70
    0
  9
$DIMLTYPE
  6

  9
$DIMLTEX1
  6

  9
$DIMLTEX2
  6

  9
$LUNITS
 70
    2
  9
$LUPREC
 70
    4
  9
$SKETCHINC
 40
1
  9
$FILLETRAD
 40
10
  9
$AUNITS
 70
    0
  9
$AUPREC
 70
    2
  9
$MENU
  1
.
  9
$ELEVATION
 40
0
  9
$PELEVATION
 40
0
  9
$THICKNESS
 40
0
  9
$LIMCHECK
 70
    0
  9
$CHAMFERA
 40
0
  9
$CHAMFERB
 40
0
  9
$CHAMFERC
 40
0
  9
$CHAMFERD
 40
0
  9
$SKPOLY
 70
    0
  9
$USRTIMER
 70
    1
  9
$ANGBASE
 50
0
  9
$ANGDIR
 70
    0
  9
$PDMODE
 70
    0
  9
$PDSIZE
 40
0
  9
$PLINEWID
 40
0
  9
$SPLFRAME
 70
    0
  9
$SPLINETYPE
 70
    6
  9
$SPLINESEGS
 70
    8
  9
$HANDSEED
  5
20000
  9
$SURFTAB1
 70
    6
  9
$SURFTAB2
 70
    6
  9
$SURFTYPE
 70
    6
  9
$SURFU
 70
    6
  9
$SURFV
 70
    6
  9
$UCSBASE
  2

  9
$UCSNAME
  2

  9
$UCSORG
 10
0
 20
0
 30
0
  9
$UCSXDIR
 10
1
 20
0
 30
0
  9
$UCSYDIR
 10
0
 20
1
 30
0
  9
$UCSORTHOREF
  2

  9
$UCSORTHOVIEW
 70
    0
  9
$UCSORGTOP
 10
0
 20
0
 30
0
  9
$UCSORGBOTTOM
 10
0
 20
0
 30
0
  9
$UCSORGLEFT
 10
0
 20
0
 30
0
  9
$UCSORGRIGHT
 10
0
 20
0
 30
0
  9
$UCSORGFRONT
 10
0
 20
0
 30
0
  9
$UCSORGBACK
 10
0
 20
0
 30
0
  9
$PUCSBASE
  2

  9
$PUCSNAME
  2

  9
$PUCSORG
 10
0
 20
0
 30
0
  9
$PUCSXDIR
 10
1
 20
0
 30
0
  9
$PUCSYDIR
 10
0
 20
1
 30
0
  9
$PUCSORTHOREF
  2

  9
$PUCSORTHOVIEW
 70
    0
  9
$PUCSORGTOP
 10
0
 20
0
 30
0
  9
$PUCSORGBOTTOM
 10
0
 20
0
 30
0
  9
$PUCSORGLEFT
 10
0
 20
0
 30
0
  9
$PUCSORGRIGHT
 10
0
 20
0
 30
0
  9
$PUCSORGFRONT
 10
0
 20
0
 30
0
  9
$PUCSORGBACK
 10
0
 20
0
 30
0
  9
$USERI1
 70
    0
  9
$USERI2
 70
    0
  9
$USERI3
 70
    0
  9
$USERI4
 70
    0
  9
$USERI5
 70
    0
  9
$USERR1
 40
0
  9
$USERR2
 40
0
  9
$USERR3
 40
0
  9
$USERR4
 40
0
  9
$USERR5
 40
0
  9
$WORLDVIEW
 70
    1
  9
$SHADEDGE
 70
    3
  9
$SHADEDIF
 70
   70
  9
$TILEMODE
 70
    1
  9
$MAXACTVP
 70
   64
  9
$PINSBASE
 10
0
 20
0
 30
0
  9
$PLIMCHECK
 70
    0
  9
$PEXTMIN
 10
1e+20
 20
1e+20
 30
1e+20
  9
$PEXTMAX
 10
-1e+20
 20
-1e+20
 30
-1e+20
  9
$GRIDMODE
 70
    0
  9
$SNAPSTYLE
 70
    0
  9
$PLIMMIN
 10
0
 20
0
  9
$PLIMMAX
 10
420
 20
297
  9
$UNITMODE
 70
    0
  9
$VISRETAIN
 70
    1
  9
$PLINEGEN
 70
    0
  9
$PSLTSCALE
 70
    1
  9
$TREEDEPTH
 70
 3020
  9
$CMLSTYLE
  2
Standard
  9
$CMLJUST
 70
    0
  9
$CMLSCALE
 40
20
  9
$PROXYGRAPHICS
 70
    1
  9
$MEASUREMENT
 70
    1
  9
$CELWEIGHT
370
   -1
  9
$ENDCAPS
280
    0
  9
$JOINSTYLE
280
    0
  9
$LWDISPLAY
290
    0
  9
$INSUNITS
 70
    6
  9
$HYPERLINKBASE
  1

  9
$STYLESHEET
  1

  9
$XEDIT
290
    1
  9
$CEPSNTYPE
380
    0
  9
$PSTYLEMODE
290
    1
  9
$EXTNAMES
290
    1
  9
$PSVPSCALE
 40
0
  9
$OLESTARTUP
290
    0
  9
$SORTENTS
280
  127
  9
$INDEXCTL
280
    0
  9
$HIDETEXT
280
    1
  9
$XCLIPFRAME
290
    1
  9
$HALOGAP
280
    0
  9
$OBSCOLOR
 70
  257
  9
$OBSLTYPE
280
    0
  9
$INTERSECTIONDISPLAY
280
    0
  9
$INTERSECTIONCOLOR
 70
  257
  9
$DIMASSOC
280
    2
  9
$PROJECTNAME
  1

  9
$CAMERADISPLAY
290
    0
  9
$LENSLENGTH
 40
50
  9
$CAMERAHEIGHT
 40
0
  9
$STEPSPERSEC
 40
24
  9
$STEPSIZE
 40
100
  9
$3DDWFPREC
 40
2
  9
$PSOLWIDTH
 40
0.005
  9
$PSOLHEIGHT
 40
0.08
  9
$LOFTANG1
 40
1.570796326795
  9
$LOFTANG2
 40
1.570796326795
  9
$LOFTMAG1
 40
0
  9
$LOFTMAG2
 40
0
  9
$LOFTPARAM
 70
    7
  9
$LOFTNORMALS
280
    1
  9
$LATITUDE
 40
37.795
  9
$LONGITUDE
 40
-122.394
  9
$NORTHDIRECTION
 40
0
  9
$TIMEZONE
 70
-8000
  9
$LIGHTGLYPHDISPLAY
280
    1
  9
$TILEMODELIGHTSYNCH
280
    1
  9
$SOLIDHIST
280
    0
  9
$SHOWHIST
280
    1
  9
$DWFFRAME
280
    2
  9
$DGNFRAME
280
    2
  9
$REALWORLDSCALE
290
    1
  9
$INTERFERECOLOR
 62
  256
  9
$CSHADOW
280
    0
  9
$SHADOWPLANELOCATION
 40
0
  0
ENDSEC
  0
SECTION
  2
CLASSES
  0
ENDSEC
  0
SECTION
  2
TABLES
  0
TABLE
  2
VPORT
  5
8
330
0
100
AcDbSymbolTable
 70
    1
  0
VPORT
  5
31
330
2
100
AcDbSymbolTableRecord
100
AcDbViewportTableRecord
  2
*ACTIVE
 70
    0
 10
0
 20
0
 11
1
 21
1
 12
85.13152490104481
 22
142.0260090324427
 13
0
 23
0
 14
10
 24
10
 15
10
 25
10
 16
0
 26
0
 36
1
 17
0
 27
0
 37
0
 40
137.0512450258796
 41
1.574642126789366
 42
50
 43
0
 44
0
 50
0
 51
0
 71
    0
 72
  100
 73
    1
 74
    3
 75
    0
 76
    0
 77
    0
 78
    0
281
    0
 65
    1
110
0
120
0
130
0
111
1
121
0
131
0
112
0
122
1
132
0
 79
    0
146
0
348
10020
 60
    7
 61
    5
292
1
282
    1
141
0
142
0
 63
  250
421
3358443
  0
ENDTAB
  0
TABLE
  2
LTYPE
  5
5
330
0
100
AcDbSymbolTable
 70
    4
  0
LTYPE
  5
14
330
5
100
AcDbSymbolTableRecord
100
AcDbLinetypeTableRecord
  2
ByBlock
 70
    0
  3

 72
   65
 73
    0
 40
0
  0
LTYPE
  5
15
330
5
100
AcDbSymbolTableRecord
100
AcDbLinetypeTableRecord
  2
ByLayer
 70
    0
  3

 72
   65
 73
    0
 40
0
  0
LTYPE
  5
16
330
5
100
AcDbSymbolTableRecord
100
AcDbLinetypeTableRecord
  2
Continuous
 70
    0
  3
Solid line
 72
   65
 73
    0
 40
0
  0
LTYPE
  5
32
330
5
100
AcDbSymbolTableRecord
100
AcDbLinetypeTableRecord
  2
DOT
 70
    0
  3
Dot . . . . . . . . . . . . . . . . . . . . . .
 72
   65
 73
    2
 40
6.35
 49
0
 74
    0
 49
-6.35
 74
    0
  0
LTYPE
  5
33
330
5
100
AcDbSymbolTableRecord
100
AcDbLinetypeTableRecord
  2
DOTTINY
 70
    0
  3
Dot (.15x) .....................................
 72
   65
 73
    2
 40
0.9525
 49
0
 74
    0
 49
-0.9525
 74
    0
  0
LTYPE
  5
34
330
5
100
AcDbSymbolTableRecord
100
AcDbLinetypeTableRecord
  2
DOT2
 70
    0
  3
Dot (.5x) .....................................
 72
   65
 73
    2
 40
3.175
 49
0
 74
    0
 49
-3.175
 74
    0
  0
LTYPE
  5
35
330
5
100
AcDbSymbolTableRecord
100
AcDbLinetypeTableRecord
  2
DOTX2
 70
    0
  3
Dot (2x) .  .  .  .  .  .  .  .  .  .  .  .  .
 72
   65
 73
    2
 40
12.7
 49
0
 74
    0
 49
-12.7
 74
    0
  0
LTYPE
  5
36
330
5
100
AcDbSymbolTableRecord
100
AcDbLinetypeTableRecord
  2
DASHED
 70
    0
  3
Dashed _ _ _ _ _ _ _ _ _ _ _ _ _ _ _ _ _
 72
   65
 73
    2
 40
19.05
 49
12.7
 74
    0
 49
-6.35
 74
    0
  0
LTYPE
  5
37
330
5
100
AcDbSymbolTableRecord
100
AcDbLinetypeTableRecord
  2
DASHEDTINY
 70
    0
  3
Dashed (.15x) _ _ _ _ _ _ _ _ _ _ _ _ _ _ _ _ _
 72
   65
 73
    2
 40
2.8575
 49
1.905
 74
    0
 49
-0.9525
 74
    0
  0
LTYPE
  5
38
330
5
100
AcDbSymbolTableRecord
100
AcDbLinetypeTableRecord
  2
DASHED2
 70
    0
  3
Dashed (.5x) _ _ _ _ _ _ _ _ _ _ _ _ _ _ _ _ _
 72
   65
 73
    2
 40
9.524999999999999
 49
6.35
 74
    0
 49
-3.175
 74
    0
  0
LTYPE
  5
39
330
5
100
AcDbSymbolTableRecord
100
AcDbLinetypeTableRecord
  2
DASHEDX2
 70
    0
  3
Dashed (2x) ____  ____  ____  ____  ____  ___
 72
   65
 73
    2
 40
38.09999999999999
 49
25.4
 74
    0
 49
-12.7
 74
    0
  0
LTYPE
  5
3A
330
5
100
AcDbSymbolTableRecord
100
AcDbLinetypeTableRecord
  2
DASHDOT
 70
    0
  3
Dash dot __ . __ . __ . __ . __ . __ . __ . __
 72
   65
 73
    4
 40
25.4
 49
12.7
 74
    0
 49
-6.35
 74
    0
 49
0
 74
    0
 49
-6.35
 74
    0
  0
LTYPE
  5
3B
330
5
100
AcDbSymbolTableRecord
100
AcDbLinetypeTableRecord
  2
DASHDOTTINY
 70
    0
  3
Dash dot (.15x) _._._._._._._._._._._._._._._.
 72
   65
 73
    4
 40
3.81
 49
1.905
 74
    0
 49
-0.9525
 74
    0
 49
0
 74
    0
 49
-0.9525
 74
    0
  0
LTYPE
  5
3C
330
5
100
AcDbSymbolTableRecord
100
AcDbLinetypeTableRecord
  2
DASHDOT2
 70
    0
  3
Dash dot (.5x) _._._._._._._._._._._._._._._.
 72
   65
 73
    4
 40
12.7
 49
6.35
 74
    0
 49
-3.175
 74
    0
 49
0
 74
    0
 49
-3.175
 74
    0
  0
LTYPE
  5
3D
330
5
100
AcDbSymbolTableRecord
100
AcDbLinetypeTableRecord
  2
DASHDOTX2
 70
    0
  3
Dash dot (2x) ____  .  ____  .  ____  .  ___
 72
   65
 73
    4
 40
50.8
 49
25.4
 74
    0
 49
-12.7
 74
    0
 49
0
 74
    0
 49
-12.7
 74
    0
  0
LTYPE
  5
3E
330
5
100
AcDbSymbolTableRecord
100
AcDbLinetypeTableRecord
  2
DIVIDE
 70
    0
  3
Divide ____ . . ____ . . ____ . . ____ . . ____
 72
   65
 73
    6
 40
31.75
 49
12.7
 74
    0
 49
-6.35
 74
    0
 49
0
 74
    0
 49
-6.35
 74
    0
 49
0
 74
    0
 49
-6.35
 74
    0
  0
LTYPE
  5
3F
330
5
100
AcDbSymbolTableRecord
100
AcDbLinetypeTableRecord
  2
DIVIDETINY
 70
    0
  3
Divide (.15x) __..__..__..__..__..__..__..__.._
 72
   65
 73
    6
 40
4.7625
 49
1.905
 74
    0
 49
-0.9525
 74
    0
 49
0
 74
    0
 49
-0.9525
 74
    0
 49
0
 74
    0
 49
-0.9525
 74
    0
  0
LTYPE
  5
40
330
5
100
AcDbSymbolTableRecord
100
AcDbLinetypeTableRecord
  2
DIVIDE2
 70
    0
  3
Divide (.5x) __..__..__..__..__..__..__..__.._
 72
   65
 73
    6
 40
15.875
 49
6.35
 74
    0
 49
-3.175
 74
    0
 49
0
 74
    0
 49
-3.175
 74
    0
 49
0
 74
    0
 49
-3.175
 74
    0
  0
LTYPE
  5
41
330
5
100
AcDbSymbolTableRecord
100
AcDbLinetypeTableRecord
  2
DIVIDEX2
 70
    0
  3
Divide (2x) ________  .  .  ________  .  .  _
 72
   65
 73
    6
 40
63.5
 49
25.4
 74
    0
 49
-12.7
 74
    0
 49
0
 74
    0
 49
-12.7
 74
    0
 49
0
 74
    0
 49
-12.7
 74
    0
  0
LTYPE
  5
42
330
5
100
AcDbSymbolTableRecord
100
AcDbLinetypeTableRecord
  2
BORDER
 70
    0
  3
Border __ __ . __ __ . __ __ . __ __ . __ __ .
 72
   65
 73
    6
 40
44.45
 49
12.7
 74
    0
 49
-6.35
 74
    0
 49
12.7
 74
    0
 49
-6.35
 74
    0
 49
0
 74
    0
 49
-6.35
 74
    0
  0
LTYPE
  5
43
330
5
100
AcDbSymbolTableRecord
100
AcDbLinetypeTableRecord
  2
BORDERTINY
 70
    0
  3
Border (.15x) __.__.__.__.__.__.__.__.__.__.__.
 72
   65
 73
    6
 40
6.6675
 49
1.905
 74
    0
 49
-0.9525
 74
    0
 49
1.905
 74
    0
 49
-0.9525
 74
    0
 49
0
 74
    0
 49
-0.9525
 74
    0
  0
LTYPE
  5
44
330
5
100
AcDbSymbolTableRecord
100
AcDbLinetypeTableRecord
  2
BORDER2
 70
    0
  3
Border (.5x) __.__.__.__.__.__.__.__.__.__.__.
 72
   65
 73
    6
 40
22.225
 49
6.35
 74
    0
 49
-3.175
 74
    0
 49
6.35
 74
    0
 49
-3.175
 74
    0
 49
0
 74
    0
 49
-3.175
 74
    0
  0
LTYPE
  5
45
330
5
100
AcDbSymbolTableRecord
100
AcDbLinetypeTableRecord
  2
BORDERX2
 70
    0
  3
Border (2x) ____  ____  .  ____  ____  .  ___
 72
   65
 73
    6
 40
88.89999999999999
 49
25.4
 74
    0
 49
-12.7
 74
    0
 49
25.4
 74
    0
 49
-12.7
 74
    0
 49
0
 74
    0
 49
-12.7
 74
    0
  0
LTYPE
  5
46
330
5
100
AcDbSymbolTableRecord
100
AcDbLinetypeTableRecord
  2
CENTER
 70
    0
  3
Center ____ _ ____ _ ____ _ ____ _ ____ _ ____
 72
   65
 73
    4
 40
50.8
 49
31.75
 74
    0
 49
-6.35
 74
    0
 49
6.35
 74
    0
 49
-6.35
 74
    0
  0
LTYPE
  5
47
330
5
100
AcDbSymbolTableRecord
100
AcDbLinetypeTableRecord
  2
CENTERTINY
 70
    0
  3
Center (.15x) ___ _ ___ _ ___ _ ___ _ ___ _ ___
 72
   65
 73
    4
 40
7.619999999999999
 49
4.7625
 74
    0
 49
-0.9525
 74
    0
 49
0.9525
 74
    0
 49
-0.9525
 74
    0
  0
LTYPE
  5
48
330
5
100
AcDbSymbolTableRecord
100
AcDbLinetypeTableRecord
  2
CENTER2
 70
    0
  3
Center (.5x) ___ _ ___ _ ___ _ ___ _ ___ _ ___
 72
   65
 73
    4
 40
28.575
 49
19.05
 74
    0
 49
-3.175
 74
    0
 49
3.175
 74
    0
 49
-3.175
 74
    0
  0
LTYPE
  5
49
330
5
100
AcDbSymbolTableRecord
100
AcDbLinetypeTableRecord
  2
CENTERX2
 70
    0
  3
Center (2x) ________  __  ________  __  _____
 72
   65
 73
    4
 40
101.6
 49
63.5
 74
    0
 49
-12.7
 74
    0
 49
12.7
 74
    0
 49
-12.7
 74
    0
  0
ENDTAB
  0
TABLE
  2
LAYER
  5
2
330
0
100
AcDbSymbolTable
 70
    1
  0
LAYER
  5
10
330
2
100
AcDbSymbolTableRecord
100
AcDbLayerTableRecord
  2
0
 70
    0
 62
    7
  6
CONTINUOUS
370
   -3
390
F
  0
LAYER
  5
4A
330
2
100
AcDbSymbolTableRecord
100
AcDbLayerTableRecord
  2
Defpoints
 70
    0
 62
    7
  6
CONTINUOUS
290
0
370
   -3
390
F
  0
ENDTAB
  0
TABLE
  2
STYLE
  5
3
330
0
100
AcDbSymbolTable
 70
    3
  0
STYLE
  5
4B
330
2
100
AcDbSymbolTableRecord
100
AcDbTextStyleTableRecord
  2
Standard
 70
    0
 40
0
 41
1
 50
0
 71
    0
 42
1
  3
txt
  4

  0
ENDTAB
  0
TABLE
  2
VIEW
  5
6
330
0
100
AcDbSymbolTable
 70
    0
  0
ENDTAB
  0
TABLE
  2
UCS
  5
7
330
0
100
AcDbSymbolTable
 70
    0
  0
ENDTAB
  0
TABLE
  2
APPID
  5
9
330
0
100
AcDbSymbolTable
 70
    1
  0
APPID
  5
12
330
9
100
AcDbSymbolTableRecord
100
AcDbRegAppTableRecord
  2
ACAD
 70
    0
  0
APPID
  5
4C
330
9
100
AcDbSymbolTableRecord
100
AcDbRegAppTableRecord
  2
LibreCad
 70
    0
  0
ENDTAB
  0
TABLE
  2
DIMSTYLE
  5
A
330
0
100
AcDbSymbolTable
 70
    1
100
AcDbDimStyleTable
 71
    1
  0
DIMSTYLE
105
4D
330
A
100
AcDbSymbolTableRecord
100
AcDbDimStyleTableRecord
  2
Standard
 70
    0
 40
1
 41
2.5
 42
0.625
 43
0.38
 44
1.25
 45
0
 46
0
 47
0
 48
0
 49
1
140
2.5
141
0.09
142
0
143
25.4
144
1
145
0
146
1
147
0.625
148
0
 71
    0
 72
    0
 73
    0
 74
    1
 75
    0
 76
    0
 77
    0
 78
    8
 79
    0
170
    0
171
    2
172
    0
173
    0
174
    0
175
    0
176
    0
177
    0
178
    0
179
    0
271
    2
272
    4
273
    2
274
    2
275
    0
276
    0
277
    2
278
   44
279
    0
280
    0
281
    0
282
    0
283
    1
284
    0
285
    0
286
    0
288
    0
289
    3
340
4B
  0
ENDTAB
  0
TABLE
  2
BLOCK_RECORD
  5
1
330
0
100
AcDbSymbolTable
 70
    2
  0
BLOCK_RECORD
  5
1F
330
1
100
AcDbSymbolTableRecord
100
AcDbBlockTableRecord
  2
*Model_Space
 70
    0
280
    1
281
    0
  0
BLOCK_RECORD
  5
1E
330
1
100
AcDbSymbolTableRecord
100
AcDbBlockTableRecord
  2
*Paper_Space
 70
    0
280
    1
281
    0
  0
ENDTAB
  0
ENDSEC
  0
SECTION
  2
BLOCKS
  0
BLOCK
  5
20
330
1F
100
AcDbEntity
  8
0
100
AcDbBlockBegin
  2
*Model_Space
 70
    0
 10
0
 20
0
 30
0
  3
*Model_Space
  1

  0
ENDBLK
  5
21
330
1F
100
AcDbEntity
  8
0
100
AcDbBlockEnd
  0
BLOCK
  5
1C
330
1B
100
AcDbEntity
  8
0
100
AcDbBlockBegin
  2
*Paper_Space
 70
    0
 10
0
 20
0
 30
0
  3
*Paper_Space
  1

  0
ENDBLK
  5
1D
330
1F
100
AcDbEntity
  8
0
100
AcDbBlockEnd
  0
ENDSEC
  0
SECTION
  2
ENTITIES
  0
LWPOLYLINE
  5
4E
100
AcDbEntity
  8
0
  6
ByLayer
 62
  256
370
   -1
100
AcDbPolyline
 90
   13
 70
    0
 43
0
 10
66.60000000000001
 20
79.13397459621558
 10
66
 20
79.13397459621557
 10
66
 20
79.71132486540519
 10
66
 20
80.28867513459481
 10
66
 20
80.86602540378443
 10
66.60000000000001
 20
80.86602540378442
 10
68.39999999999999
 20
80.86602540378442
 10
69
 20
80.86602540378443
 10
69
 20
80.28867513459481
 10
69
 20
79.71132486540519
 10
69
 20
79.13397459621557
 10
68.39999999999999
 20
79.13397459621558
 10
66.60000000000001
 20
79.13397459621558
  0
LWPOLYLINE
  5
4F
100
AcDbEntity
  8
0
  6
ByLayer
 62
  256
370
   -1
100
AcDbPolyline
 90
   29
 70
    0
 43
0
 10
59.49999999999999
 20
124.1
 10
59.49999999999999
 20
125.5
 10
59.49999999999999
 20
125.6
 10
59.49999999999999
 20
125.9
 10
59.50761204674887
 20
125.9382683432365
 10
59.52928932188134
 20
125.9707106781186
 10
59.56173165676348
 20
125.9923879532511
 10
59.59999999999999
 20
126
 10
59.89999999999999
 20
126
 10
59.9382683432365
 20
125.9923879532511
 10
59.97071067811865
 20
125.9707106781186
 10
59.99238795325112
 20
125.9382683432365
 10
59.99999999999999
 20
125.9
 10
60.00761204674887
 20
125.9382683432365
 10
60.02928932188134
 20
125.9707106781186
 10
60.06173165676348
 20
125.9923879532511
 10
60.09999999999999
 20
126
 10
60.39999999999999
 20
126
 10
60.4382683432365
 20
125.9923879532511
 10
60.47071067811865
 20
125.9707106781186
 10
60.49238795325112
 20
125.9382683432365
 10
60.49999999999999
 20
125.9
 10
60.49999999999999
 20
125.6
 10
60.49999999999999
 20
125.5
 10
60.49999999999999
 20
124.1
 10
60.49999999999999
 20
123.9
 10
59.99999999999999
 20
123.9
 10
59.49999999999999
 20
123.9
 10
59.49999999999999
 20
124.1
  0
LWPOLYLINE
  5
50
100
AcDbEntity
  8
0
  6
ByLayer
 62
  256
370
   -1
100
AcDbPolyline
 90
   29
 70
    0
 43
0
 10
74.52928932188135
 20
125.9707106781186
 10
74.5617316567635
 20
125.9923879532511
 10
74.60000000000001
 20
126
 10
74.89999999999999
 20
126
 10
74.9382683432365
 20
125.9923879532511
 10
74.97071067811865
 20
125.9707106781186
 10
74.99238795325113
 20
125.9382683432365
 10
74.99999999999999
 20
125.9
 10
75.00761204674887
 20
125.9382683432365
 10
75.02928932188135
 20
125.9707106781186
 10
75.0617316567635
 20
125.9923879532511
 10
75.10000000000001
 20
126
 10
75.39999999999999
 20
126
 10
75.4382683432365
 20
125.9923879532511
 10
75.47071067811865
 20
125.9707106781186
 10
75.49238795325113
 20
125.9382683432365
 10
75.49999999999999
 20
125.9
 10
75.5
 20
125.6000000000001
 10
75.49999999999999
 20
125.5000000000001
 10
75.49999999999999
 20
124.1
 10
75.5
 20
123.9
 10
75
 20
123.9
 10
74.5
 20
123.9
 10
74.50000000000001
 20
124.1
 10
74.50000000000001
 20
125.5000000000001
 10
74.5
 20
125.6000000000001
 10
74.50000000000001
 20
125.9
 10
74.50761204674887
 20
125.9382683432365
 10
74.52928932188135
 20
125.9707106781186
  0
LWPOLYLINE
  5
51
100
AcDbEntity
  8
0
  6
ByLayer
 62
  256
370
   -1
100
AcDbPolyline
 90
   45
 70
    0
 43
0
 10
50.55321447999945
 20
126.0035041588022
 10
50.59223254440267
 20
126.0035041588022
 10
50.60984914033573
 20
126
 10
50.90000000000001
 20
126
 10
50.93826834323652
 20
125.9923879532511
 10
50.97071067811866
 20
125.9707106781186
 10
50.99238795325113
 20
125.9382683432365
 10
51.00000000000001
 20
125.9
 10
51.00000000000001
 20
125.8
 10
51.00000000000001
 20
125.0000000000001
 10
51.00000000000002
 20
124.2
 10
51.00000000000002
 20
124.1
 10
50.99238795325115
 20
124.0617316567635
 10
50.97071067811868
 20
124.0292893218814
 10
50.93826834323653
 20
124.0076120467489
 10
50.90000000000002
 20
124
 10
50.56852650053187
 20
124
 10
50.53126821031747
 20
124.0072001087808
 10
50.50000000000002
 20
124.027360751467
 10
50.49937519495366
 20
124.027763603794
 10
50.49928999021026
 20
124.0278838871172
 10
50.48283351110092
 20
124.0114274080079
 10
50.44678552000058
 20
123.9964958411978
 10
50.40776745559736
 20
123.9964958411978
 10
50.3901508596643
 20
124
 10
50.10000000000002
 20
124
 10
50.06173165676351
 20
124.0076120467489
 10
50.02928932188136
 20
124.0292893218814
 10
50.0076120467489
 20
124.0617316567635
 10
50.00000000000002
 20
124.1
 10
50.00000000000002
 20
124.2
 10
50.00000000000001
 20
124.9999999999999
 10
50.00000000000001
 20
125.8
 10
50.00000000000001
 20
125.9
 10
50.00761204674888
 20
125.9382683432365
 10
50.02928932188135
 20
125.9707106781186
 10
50.0617316567635
 20
125.9923879532511
 10
50.10000000000001
 20
126
 10
50.43147349946815
 20
126
 10
50.46873178968256
 20
125.9927998912192
 10
50.50000000000001
 20
125.972639248533
 10
50.50062480504637
 20
125.972236396206
 10
50.50071000978976
 20
125.9721161128828
 10
50.51716648889911
 20
125.9885725919921
 10
50.55321447999945
 20
126.0035041588022
  0
LWPOLYLINE
  5
52
100
AcDbEntity
  8
0
  6
ByLayer
 62
  256
370
   -1
100
AcDbPolyline
 90
   65
 70
    0
 43
0
 10
55.19509032201612
 20
125.9807852804032
 10
55.29028467725445
 20
125.9569403357322
 10
55.38268343236508
 20
125.9238795325113
 10
55.47139673682599
 20
125.8819212643483
 10
55.55557023301959
 20
125.8314696123025
 10
55.63439328416364
 20
125.7730104533627
 10
55.70710678118654
 20
125.7071067811866
 10
55.77301045336273
 20
125.6343932841637
 10
55.83146961230254
 20
125.5555702330196
 10
55.88192126434835
 20
125.471396736826
 10
55.92387953251128
 20
125.3826834323651
 10
55.9569403357322
 20
125.2902846772545
 10
55.98078528040323
 20
125.1950903220161
 10
55.99518472667219
 20
125.0980171403296
 10
55.99999999999999
 20
125
 10
55.99518472667219
 20
124.9019828596704
 10
55.98078528040323
 20
124.8049096779839
 10
55.9569403357322
 20
124.7097153227455
 10
55.92387953251128
 20
124.6173165676349
 10
55.88192126434835
 20
124.528603263174
 10
55.83146961230254
 20
124.4444297669804
 10
55.77301045336273
 20
124.3656067158363
 10
55.70710678118654
 20
124.2928932188134
 10
55.63439328416364
 20
124.2269895466373
 10
55.55557023301959
 20
124.1685303876975
 10
55.47139673682599
 20
124.1180787356517
 10
55.38268343236508
 20
124.0761204674887
 10
55.29028467725445
 20
124.0430596642678
 10
55.19509032201612
 20
124.0192147195968
 10
55.09801714032955
 20
124.0048152733278
 10
54.99999999999999
 20
124
 10
54.90198285967043
 20
124.0048152733278
 10
54.80490967798386
 20
124.0192147195968
 10
54.70971532274553
 20
124.0430596642678
 10
54.6173165676349
 20
124.0761204674887
 10
54.528603263174
 20
124.1180787356517
 10
54.44442976698039
 20
124.1685303876975
 10
54.36560671583635
 20
124.2269895466373
 10
54.29289321881345
 20
124.2928932188134
 10
54.22698954663726
 20
124.3656067158363
 10
54.16853038769744
 20
124.4444297669804
 10
54.11807873565164
 20
124.528603263174
 10
54.07612046748871
 20
124.6173165676349
 10
54.04305966426779
 20
124.7097153227455
 10
54.01921471959676
 20
124.8049096779839
 10
54.00481527332779
 20
124.9019828596704
 10
53.99999999999999
 20
125
 10
54.00481527332779
 20
125.0980171403296
 10
54.01921471959676
 20
125.1950903220161
 10
54.04305966426779
 20
125.2902846772545
 10
54.07612046748871
 20
125.3826834323651
 10
54.11807873565164
 20
125.471396736826
 10
54.16853038769744
 20
125.5555702330196
 10
54.22698954663726
 20
125.6343932841637
 10
54.29289321881345
 20
125.7071067811866
 10
54.36560671583635
 20
125.7730104533627
 10
54.44442976698039
 20
125.8314696123025
 10
54.52860326317399
 20
125.8819212643483
 10
54.6173165676349
 20
125.9238795325113
 10
54.70971532274553
 20
125.9569403357322
 10
54.80490967798386
 20
125.9807852804032
 10
54.90198285967043
 20
125.9951847266722
 10
54.99999999999999
 20
126
 10
55.09801714032955
 20
125.9951847266722
 10
55.19509032201612
 20
125.9807852804032
  0
LWPOLYLINE
  5
53
100
AcDbEntity
  8
0
  6
ByLayer
 62
  256
370
   -1
100
AcDbPolyline
 90
   65
 70
    0
 43
0
 10
79.90198285967044
 20
125.9951847266722
 10
80
 20
126
 10
80.09801714032956
 20
125.9951847266722
 10
80.19509032201613
 20
125.9807852804032
 10
80.29028467725446
 20
125.9569403357322
 10
80.38268343236508
 20
125.9238795325113
 10
80.47139673682599
 20
125.8819212643483
 10
80.55557023301961
 20
125.8314696123025
 10
80.63439328416365
 20
125.7730104533627
 10
80.70710678118655
 20
125.7071067811866
 10
80.77301045336273
 20
125.6343932841637
 10
80.83146961230254
 20
125.5555702330196
 10
80.88192126434835
 20
125.471396736826
 10
80.92387953251129
 20
125.3826834323651
 10
80.95694033573221
 20
125.2902846772545
 10
80.98078528040323
 20
125.1950903220161
 10
80.99518472667219
 20
125.0980171403296
 10
81
 20
125
 10
80.99518472667219
 20
124.9019828596704
 10
80.98078528040323
 20
124.8049096779839
 10
80.95694033573221
 20
124.7097153227455
 10
80.92387953251129
 20
124.6173165676349
 10
80.88192126434835
 20
124.528603263174
 10
80.83146961230254
 20
124.4444297669804
 10
80.77301045336274
 20
124.3656067158363
 10
80.70710678118655
 20
124.2928932188134
 10
80.63439328416365
 20
124.2269895466373
 10
80.55557023301961
 20
124.1685303876975
 10
80.47139673682599
 20
124.1180787356517
 10
80.38268343236508
 20
124.0761204674887
 10
80.29028467725446
 20
124.0430596642678
 10
80.19509032201613
 20
124.0192147195968
 10
80.09801714032956
 20
124.0048152733278
 10
80
 20
124
 10
79.90198285967044
 20
124.0048152733278
 10
79.80490967798387
 20
124.0192147195968
 10
79.70971532274554
 20
124.0430596642678
 10
79.61731656763492
 20
124.0761204674887
 10
79.52860326317401
 20
124.1180787356517
 10
79.44442976698039
 20
124.1685303876975
 10
79.36560671583635
 20
124.2269895466373
 10
79.29289321881345
 20
124.2928932188134
 10
79.22698954663726
 20
124.3656067158363
 10
79.16853038769746
 20
124.4444297669804
 10
79.11807873565165
 20
124.528603263174
 10
79.07612046748871
 20
124.6173165676349
 10
79.04305966426779
 20
124.7097153227455
 10
79.01921471959677
 20
124.8049096779839
 10
79.00481527332781
 20
124.9019828596704
 10
79
 20
125
 10
79.00481527332781
 20
125.0980171403296
 10
79.01921471959677
 20
125.1950903220161
 10
79.04305966426779
 20
125.2902846772545
 10
79.07612046748871
 20
125.3826834323651
 10
79.11807873565165
 20
125.471396736826
 10
79.16853038769746
 20
125.5555702330196
 10
79.22698954663726
 20
125.6343932841637
 10
79.29289321881345
 20
125.7071067811866
 10
79.36560671583635
 20
125.7730104533627
 10
79.44442976698039
 20
125.8314696123025
 10
79.52860326317401
 20
125.8819212643483
 10
79.61731656763492
 20
125.9238795325113
 10
79.70971532274554
 20
125.9569403357322
 10
79.80490967798387
 20
125.9807852804032
 10
79.90198285967044
 20
125.9951847266722
  0
LWPOLYLINE
  5
54
100
AcDbEntity
  8
0
  6
ByLayer
 62
  256
370
   -1
100
AcDbPolyline
 90
   38
 70
    0
 43
0
 10
54.02928932188134
 20
129.0292893218814
 10
54.00761204674887
 20
129.0617316567635
 10
54
 20
129.1
 10
54
 20
129.4314734994682
 10
54.00720010878078
 20
129.4687317896826
 10
54.02736075146699
 20
129.5
 10
54.00720010878078
 20
129.5312682103174
 10
54
 20
129.5685265005318
 10
54
 20
129.9
 10
54.00761204674887
 20
129.9382683432365
 10
54.02928932188134
 20
129.9707106781186
 10
54.06173165676349
 20
129.9923879532511
 10
54.09999999999998
 20
130
 10
54.19999999999998
 20
130
 10
55.79999999999998
 20
130
 10
55.89999999999998
 20
130
 10
55.93826834323651
 20
129.9923879532511
 10
55.97071067811866
 20
129.9707106781186
 10
55.99238795325113
 20
129.9382683432365
 10
56
 20
129.9
 10
56
 20
129.5690982216287
 10
55.9946930129495
 20
129.5369542750984
 10
55.97933533402912
 20
129.5082220787279
 10
55.97165985483019
 20
129.5010332079628
 10
55.97223639620598
 20
129.5006248050464
 10
55.972639248533
 20
129.5
 10
55.99279989121922
 20
129.4687317896825
 10
56
 20
129.4314734994681
 10
56
 20
129.1
 10
55.99238795325113
 20
129.0617316567635
 10
55.97071067811866
 20
129.0292893218814
 10
55.93826834323651
 20
129.0076120467489
 10
55.89999999999998
 20
129
 10
55.79999999999998
 20
129
 10
54.19999999999998
 20
129
 10
54.09999999999998
 20
129
 10
54.06173165676349
 20
129.0076120467489
 10
54.02928932188134
 20
129.0292893218814
  0
LWPOLYLINE
  5
55
100
AcDbEntity
  8
0
  6
ByLayer
 62
  256
370
   -1
100
AcDbPolyline
 90
   37
 70
    0
 43
0
 10
79.0296448802864
 20
129.5019574393347
 10
79.00792821727022
 20
129.533610826459
 10
79.00000000000001
 20
129.5726337277474
 10
79.00000000000001
 20
129.9
 10
79.00761204674887
 20
129.9382683432365
 10
79.02928932188135
 20
129.9707106781186
 10
79.0617316567635
 20
129.9923879532511
 10
79.10000000000004
 20
130
 10
79.20000000000003
 20
130
 10
80.80000000000004
 20
130
 10
80.90000000000005
 20
130
 10
80.9382683432365
 20
129.9923879532511
 10
80.97071067811865
 20
129.9707106781186
 10
80.99238795325113
 20
129.9382683432365
 10
80.99999999999999
 20
129.9
 10
80.99999999999999
 20
129.5685265005318
 10
80.99279989121922
 20
129.5312682103174
 10
80.97263924853301
 20
129.5
 10
80.99279989121922
 20
129.4687317896826
 10
80.99999999999999
 20
129.4314734994682
 10
80.99999999999999
 20
129.1
 10
80.99238795325113
 20
129.0617316567635
 10
80.97071067811865
 20
129.0292893218814
 10
80.9382683432365
 20
129.0076120467489
 10
80.90000000000005
 20
129
 10
80.80000000000004
 20
129
 10
79.20000000000005
 20
129
 10
79.10000000000004
 20
129
 10
79.0617316567635
 20
129.0076120467489
 10
79.02928932188135
 20
129.0292893218814
 10
79.00761204674887
 20
129.0617316567635
 10
79.00000000000001
 20
129.1
 10
79.00000000000001
 20
129.4314734994681
 10
79.00720010878078
 20
129.4687317896825
 10
79.02736075146701
 20
129.5
 10
79.02776360379401
 20
129.5006248050463
 10
79.0296448802864
 20
129.5019574393347
  0
LWPOLYLINE
  5
56
100
AcDbEntity
  8
0
  6
ByLayer
 62
  256
370
   -1
100
AcDbPolyline
 90
   11
 70
    0
 43
0
 10
68.39999999999999
 20
130.5
 10
68.90000000000001
 20
130.5
 10
68.90000000000001
 20
130
 10
68.90000000000001
 20
129.5
 10
68.39999999999999
 20
129.5
 10
66.60000000000001
 20
129.5
 10
66.09999999999999
 20
129.5
 10
66.09999999999999
 20
130
 10
66.09999999999999
 20
130.5
 10
66.60000000000001
 20
130.5
 10
68.39999999999999
 20
130.5
  0
LWPOLYLINE
  5
57
100
AcDbEntity
  8
0
  6
ByLayer
 62
  256
370
   -1
100
AcDbPolyline
 90
   11
 70
    0
 43
0
 10
68.99999999999997
 20
140.5
 10
68.99999999999997
 20
140
 10
68.99999999999997
 20
139.5
 10
68.39999999999999
 20
139.5
 10
66.60000000000001
 20
139.5
 10
65.99999999999999
 20
139.5
 10
65.99999999999999
 20
140
 10
65.99999999999999
 20
140.5
 10
66.60000000000001
 20
140.5
 10
68.39999999999999
 20
140.5
 10
68.99999999999997
 20
140.5
  0
LWPOLYLINE
  5
58
100
AcDbEntity
  8
0
  6
ByLayer
 62
  256
370
   -1
100
AcDbPolyline
 90
   29
 70
    0
 43
0
 10
75.37071067811864
 20
237.3707106781187
 10
75.39238795325112
 20
237.3382683432365
 10
75.39999999999998
 20
237.3
 10
75.39999999999999
 20
237
 10
75.39999999999998
 20
236.9
 10
75.39999999999998
 20
235.5
 10
75.39999999999999
 20
235.3
 10
74.89999999999999
 20
235.3
 10
74.39999999999999
 20
235.3
 10
74.40000000000001
 20
235.5
 10
74.40000000000001
 20
236.9
 10
74.39999999999999
 20
237
 10
74.40000000000001
 20
237.3
 10
74.40761204674887
 20
237.3382683432365
 10
74.42928932188134
 20
237.3707106781187
 10
74.46173165676349
 20
237.3923879532511
 10
74.5
 20
237.4
 10
74.79999999999998
 20
237.4
 10
74.83826834323649
 20
237.3923879532511
 10
74.87071067811864
 20
237.3707106781187
 10
74.89238795325112
 20
237.3382683432365
 10
74.89999999999998
 20
237.3
 10
74.90761204674887
 20
237.3382683432365
 10
74.92928932188134
 20
237.3707106781187
 10
74.96173165676349
 20
237.3923879532511
 10
75
 20
237.4
 10
75.29999999999998
 20
237.4
 10
75.33826834323649
 20
237.3923879532511
 10
75.37071067811864
 20
237.3707106781187
  0
LWPOLYLINE
  5
59
100
AcDbEntity
  8
0
  6
ByLayer
 62
  256
370
   -1
100
AcDbPolyline
 90
   43
 70
    0
 43
0
 10
65.8
 20
237.4
 10
65.83826834323651
 20
237.3923879532511
 10
65.87071067811866
 20
237.3707106781187
 10
65.89238795325113
 20
237.3382683432365
 10
65.90000000000001
 20
237.3
 10
65.89999999999999
 20
237.2
 10
65.90000000000001
 20
236.4
 10
65.90000000000002
 20
235.6
 10
65.90000000000003
 20
235.5
 10
65.89238795325116
 20
235.4617316567635
 10
65.87071067811868
 20
235.4292893218814
 10
65.83826834323654
 20
235.4076120467489
 10
65.80000000000003
 20
235.4
 10
65.47263372774741
 20
235.4
 10
65.43361082645917
 20
235.4079282172702
 10
65.40141982692499
 20
235.4300137238319
 10
65.40000000000003
 20
235.428593896907
 10
65.38283351110094
 20
235.4114274080079
 10
65.34678552000058
 20
235.3964958411978
 10
65.30776745559734
 20
235.3964958411978
 10
65.29015085966422
 20
235.4
 10
65.00000000000004
 20
235.4
 10
64.96173165676353
 20
235.4076120467489
 10
64.92928932188138
 20
235.4292893218814
 10
64.90761204674891
 20
235.4617316567635
 10
64.90000000000003
 20
235.5
 10
64.90000000000005
 20
235.6
 10
64.90000000000003
 20
236.4
 10
64.90000000000002
 20
237.2
 10
64.90000000000001
 20
237.3
 10
64.90761204674888
 20
237.3382683432365
 10
64.92928932188136
 20
237.3707106781187
 10
64.9617316567635
 20
237.3923879532511
 10
65.00000000000001
 20
237.4
 10
65.32736627225263
 20
237.4
 10
65.36638917354087
 20
237.3920717827298
 10
65.39858017307505
 20
237.3699862761681
 10
65.40000000000001
 20
237.3714061030931
 10
65.4171664888991
 20
237.3885725919922
 10
65.45321447999946
 20
237.4035041588022
 10
65.4922325444027
 20
237.4035041588022
 10
65.50984914033582
 20
237.4
 10
65.8
 20
237.4
  0
LWPOLYLINE
  5
5A
100
AcDbEntity
  8
0
  6
ByLayer
 62
  256
370
   -1
100
AcDbPolyline
 90
   65
 70
    0
 43
0
 10
68.94305966426778
 20
236.6902846772545
 10
68.9761204674887
 20
236.7826834323651
 10
69.01807873565164
 20
236.871396736826
 10
69.06853038769745
 20
236.9555702330196
 10
69.12698954663725
 20
237.0343932841637
 10
69.19289321881344
 20
237.1071067811866
 10
69.26560671583634
 20
237.1730104533627
 10
69.34442976698038
 20
237.2314696123026
 10
69.428603263174
 20
237.2819212643484
 10
69.51731656763491
 20
237.3238795325113
 10
69.60971532274553
 20
237.3569403357322
 10
69.70490967798386
 20
237.3807852804032
 10
69.80198285967043
 20
237.3951847266722
 10
69.89999999999999
 20
237.4
 10
69.99801714032955
 20
237.3951847266722
 10
70.09509032201612
 20
237.3807852804032
 10
70.19028467725445
 20
237.3569403357322
 10
70.28268343236508
 20
237.3238795325113
 10
70.37139673682599
 20
237.2819212643484
 10
70.4555702330196
 20
237.2314696123026
 10
70.53439328416364
 20
237.1730104533627
 10
70.60710678118654
 20
237.1071067811866
 10
70.67301045336272
 20
237.0343932841637
 10
70.73146961230253
 20
236.9555702330196
 10
70.78192126434834
 20
236.871396736826
 10
70.82387953251128
 20
236.7826834323651
 10
70.8569403357322
 20
236.6902846772545
 10
70.88078528040322
 20
236.5950903220161
 10
70.89518472667218
 20
236.4980171403296
 10
70.89999999999999
 20
236.4
 10
70.89518472667218
 20
236.3019828596704
 10
70.88078528040322
 20
236.2049096779839
 10
70.8569403357322
 20
236.1097153227455
 10
70.82387953251128
 20
236.0173165676349
 10
70.78192126434834
 20
235.928603263174
 10
70.73146961230253
 20
235.8444297669804
 10
70.67301045336274
 20
235.7656067158364
 10
70.60710678118654
 20
235.6928932188135
 10
70.53439328416364
 20
235.6269895466373
 10
70.4555702330196
 20
235.5685303876975
 10
70.37139673682599
 20
235.5180787356516
 10
70.28268343236508
 20
235.4761204674887
 10
70.19028467725445
 20
235.4430596642678
 10
70.09509032201612
 20
235.4192147195968
 10
69.99801714032955
 20
235.4048152733278
 10
69.89999999999999
 20
235.4
 10
69.80198285967043
 20
235.4048152733278
 10
69.70490967798386
 20
235.4192147195968
 10
69.60971532274553
 20
235.4430596642678
 10
69.51731656763491
 20
235.4761204674887
 10
69.428603263174
 20
235.5180787356516
 10
69.34442976698038
 20
235.5685303876975
 10
69.26560671583634
 20
235.6269895466373
 10
69.19289321881344
 20
235.6928932188135
 10
69.12698954663725
 20
235.7656067158364
 10
69.06853038769745
 20
235.8444297669804
 10
69.01807873565164
 20
235.928603263174
 10
68.9761204674887
 20
236.0173165676349
 10
68.94305966426778
 20
236.1097153227455
 10
68.91921471959677
 20
236.2049096779839
 10
68.9048152733278
 20
236.3019828596704
 10
68.89999999999999
 20
236.4
 10
68.9048152733278
 20
236.4980171403296
 10
68.91921471959677
 20
236.5950903220161
 10
68.94305966426778
 20
236.6902846772545
  0
LWPOLYLINE
  5
5B
100
AcDbEntity
  8
0
  6
ByLayer
 62
  256
370
   -1
100
AcDbPolyline
 90
   37
 70
    0
 43
0
 10
70.87071067811866
 20
240.4292893218814
 10
70.83826834323651
 20
240.4076120467489
 10
70.79999999999998
 20
240.4
 10
70.69999999999997
 20
240.4
 10
69.09999999999999
 20
240.4
 10
68.99999999999999
 20
240.4
 10
68.9617316567635
 20
240.4076120467489
 10
68.92928932188136
 20
240.4292893218814
 10
68.90761204674888
 20
240.4617316567635
 10
68.90000000000002
 20
240.5
 10
68.90000000000002
 20
240.8314734994681
 10
68.90720010878078
 20
240.8687317896825
 10
68.92736075146702
 20
240.9
 10
68.90720010878078
 20
240.9312682103175
 10
68.90000000000002
 20
240.9685265005319
 10
68.90000000000002
 20
241.3
 10
68.90761204674888
 20
241.3382683432365
 10
68.92928932188136
 20
241.3707106781187
 10
68.9617316567635
 20
241.3923879532511
 10
68.99999999999999
 20
241.4
 10
69.09999999999999
 20
241.4
 10
70.69999999999997
 20
241.4
 10
70.79999999999998
 20
241.4
 10
70.83826834323651
 20
241.3923879532511
 10
70.87071067811866
 20
241.3707106781187
 10
70.89238795325113
 20
241.3382683432365
 10
70.89999999999999
 20
241.3
 10
70.89999999999999
 20
240.9690982216288
 10
70.88819212643483
 20
240.9219585479462
 10
70.86830489921269
 20
240.9000163740178
 10
70.8683305240999
 20
240.9
 10
70.8695442635008
 20
240.8992244340308
 10
70.89207178272979
 20
240.866389173541
 10
70.89999999999999
 20
240.8273662722526
 10
70.89999999999999
 20
240.5
 10
70.89238795325113
 20
240.4617316567635
 10
70.87071067811866
 20
240.4292893218814
  0
LWPOLYLINE
  5
5C
100
AcDbEntity
  8
0
  6
ByLayer
 62
  256
370
   -1
100
AcDbPolyline
 90
   31
 70
    0
 43
0
 10
135.6560779310831
 20
85.24827622430192
 10
135.6896761494034
 20
85.22751529157624
 10
135.9622036699026
 20
84.97247070440805
 10
136.0352175124448
 20
84.90414077833445
 10
137.0041741175046
 20
83.99734378084698
 10
137.4235710536143
 20
83.60485160892324
 10
137.0819214232463
 20
83.23978239621233
 10
136.7402717928782
 20
82.87471318350141
 10
136.3322411657713
 20
83.2565682073604
 10
135.3519182517087
 20
84.17400235291262
 10
135.2789044091665
 20
84.24233227898621
 10
135.0177431976702
 20
84.48673971808967
 10
134.995205318173
 20
84.51800380721028
 10
134.9861649359799
 20
84.55546940170134
 10
134.9919649088115
 20
84.59357136485183
 10
135.0117437091206
 20
84.62665003379576
 10
135.2124711214653
 20
84.84968049194659
 10
135.2441687778334
 20
84.87324137441544
 10
135.2825163771581
 20
84.88269220654654
 10
135.3215322438419
 20
84.87655879405052
 10
135.3551304621622
 20
84.85579786132486
 10
135.3517185992465
 20
84.85899084956768
 10
135.3272189846223
 20
84.8948203355358
 10
135.32020829934
 20
84.93765529174389
 10
135.3320073447157
 20
84.9794256844844
 10
135.3500119181278
 20
85.00025312105743
 10
135.3488928957761
 20
85.00126024117402
 10
135.5470168087066
 20
85.22139792219797
 10
135.5787144650746
 20
85.24495880466681
 10
135.6170620643993
 20
85.25440963679792
 10
135.6560779310831
 20
85.24827622430192
  0
LWPOLYLINE
  5
5D
100
AcDbEntity
  8
0
  6
ByLayer
 62
  256
370
   -1
100
AcDbPolyline
 90
   37
 70
    0
 43
0
 10
139.6586148380029
 20
121.6530266995605
 10
139.9586168427609
 20
121.4586187188569
 10
139.9829955647668
 20
121.436316225564
 10
139.9987757836509
 20
121.4072867924712
 10
140.0042347361598
 20
121.3746996304097
 10
140.004235355751
 20
121.3146153485358
 10
140.0042360726757
 20
121.2450922475334
 10
140.0133040026876
 20
121.2867028767721
 10
140.0388640259888
 20
121.3207668904696
 10
140.0762803931805
 20
121.3411061944528
 10
140.1187670031831
 20
121.3440319064738
 10
140.1586181792662
 20
121.3290133983878
 10
140.3408150570428
 20
121.2109457637144
 10
140.3900457620408
 20
121.1923924407322
 10
140.3973677111062
 20
121.1928966446307
 10
140.437692993059
 20
121.1873705780124
 10
140.4724758411167
 20
121.1662324783384
 10
140.4959538998797
 20
121.1329842222404
 10
140.5042376397019
 20
121.09313393452
 10
140.5042558774672
 20
119.3245437714711
 10
140.5042569086708
 20
119.2245437714764
 10
140.5042601958242
 20
118.9057751490097
 10
140.5043893151925
 20
106.3845456347343
 10
140.0043893152191
 20
106.3845404787164
 10
139.5043893152456
 20
106.3845353226984
 10
139.5042558775203
 20
119.3245334594352
 10
139.5625713530736
 20
119.3245340607865
 10
139.5340436558733
 20
119.3432348719035
 10
139.5120024273284
 20
119.3758477533575
 10
139.5042549503967
 20
119.4144404002438
 10
139.5042382383259
 20
121.0350777811684
 10
139.5042327314124
 20
121.5691055487061
 10
139.5133006614243
 20
121.6107161779448
 10
139.5388606847254
 20
121.6447801916423
 10
139.5762770519171
 20
121.6651194956255
 10
139.6187636619197
 20
121.6680452076465
 10
139.6586148380029
 20
121.6530266995605
  0
LWPOLYLINE
  5
5E
100
AcDbEntity
  8
0
  6
ByLayer
 62
  256
370
   -1
100
AcDbPolyline
 90
   43
 70
    0
 43
0
 10
84.90000000000006
 20
126
 10
84.93826834323657
 20
125.9923879532511
 10
84.97071067811872
 20
125.9707106781186
 10
84.9923879532512
 20
125.9382683432365
 10
85.00000000000007
 20
125.9000000000001
 10
85.00000000000006
 20
125.8000000000001
 10
85.00000000000004
 20
125.0000000000004
 10
85.00000000000003
 20
124.2000000000001
 10
85.00000000000004
 20
124.1000000000001
 10
84.99238795325117
 20
124.0617316567635
 10
84.97071067811869
 20
124.0292893218814
 10
84.93826834323654
 20
124.0076120467489
 10
84.90000000000003
 20
124
 10
84.60984914033575
 20
124
 10
84.59223254440278
 20
123.9964958411978
 10
84.55321447999954
 20
123.9964958411978
 10
84.51716648889919
 20
124.0114274080079
 10
84.50000000000004
 20
124.028593896907
 10
84.49858017307508
 20
124.030013723832
 10
84.4663891735409
 20
124.0079282172702
 10
84.42736627225261
 20
124
 10
84.10000000000005
 20
124
 10
84.06173165676354
 20
124.0076120467489
 10
84.02928932188139
 20
124.0292893218814
 10
84.00761204674892
 20
124.0617316567635
 10
84.00000000000004
 20
124.1000000000001
 10
84.00000000000006
 20
124.2000000000001
 10
84.00000000000007
 20
125.0000000000008
 10
84.00000000000009
 20
125.8000000000001
 10
84.00000000000007
 20
125.9000000000001
 10
84.00761204674895
 20
125.9382683432365
 10
84.02928932188142
 20
125.9707106781186
 10
84.06173165676357
 20
125.9923879532511
 10
84.10000000000008
 20
126
 10
84.3901508596643
 20
126
 10
84.40776745559745
 20
126.0035041588022
 10
84.44678552000067
 20
126.0035041588022
 10
84.48283351110102
 20
125.9885725919921
 10
84.50000000000007
 20
125.9714061030931
 10
84.50141982692506
 20
125.9699862761681
 10
84.53361082645917
 20
125.9920717827298
 10
84.57263372774744
 20
126
 10
84.90000000000006
 20
126
  0
LWPOLYLINE
  5
5F
100
AcDbEntity
  8
0
  6
ByLayer
 62
  256
370
   -1
100
AcDbPolyline
 90
   12
 70
    0
 43
0
 10
129.1588402772815
 20
129.3548330623338
 10
129.5786976040672
 20
129.0833191121501
 10
129.9985549308529
 20
128.8118051619664
 10
129.534711540111
 20
128.0945379793692
 10
128.5572404626027
 20
126.5830193508222
 10
124.7859092318649
 20
120.751197273578
 10
124.3660519050792
 20
121.0227112237617
 10
123.9461945782935
 20
121.2942251739454
 10
127.717936275011
 20
127.1266819778727
 10
127.9319431528137
 20
127.4576128768825
 10
128.6953869320538
 20
128.6381690291025
 10
129.1588402772815
 20
129.3548330623338
  0
LWPOLYLINE
  5
60
100
AcDbEntity
  8
0
  6
ByLayer
 62
  256
370
   -1
100
AcDbPolyline
 90
   13
 70
    0
 43
0
 10
83.30579578168805
 20
180.3748886511451
 10
83.90262762540517
 20
180.3755179289793
 10
83.903236362236
 20
179.7981679807046
 10
83.90384509906681
 20
179.2208180324299
 10
83.90445383589764
 20
178.6434680841552
 10
83.30600665431193
 20
178.6428371031673
 10
81.50600665431195
 20
178.6409392484974
 10
80.90327359234718
 20
178.6403037486328
 10
80.90266485551635
 20
179.2176536969075
 10
80.90205611868552
 20
179.7950036451822
 10
80.90144738185471
 20
180.3723535934569
 10
81.50575381640674
 20
180.3729907522285
 10
83.30579578168805
 20
180.3748886511451
  0
LWPOLYLINE
  5
61
100
AcDbEntity
  8
0
  6
ByLayer
 62
  256
370
   -1
100
AcDbPolyline
 90
    5
 70
    0
 43
0
 10
25.1221471959677
 20
52.54214719596769
 10
25.1221471959677
 20
399.1578528040324
 10
221.7378528040323
 20
399.1578528040324
 10
221.7378528040323
 20
52.54214719596769
 10
25.1221471959677
 20
52.54214719596769
  0
LWPOLYLINE
  5
62
100
AcDbEntity
  8
0
  6
ByLayer
 62
  256
370
   -1
100
AcDbPolyline
 90
   76
 70
    0
 43
0
 10
75.00000000000001
 20
120.5000000000001
 10
75.5
 20
120.5000000000001
 10
79.74999999999994
 20
120.5000000000001
 10
84.50000000000001
 20
120.5000000000002
 10
85.00000000000001
 20
120.5000000000002
 10
89.50000000000009
 20
120.5000000000002
 10
89.5
 20
129.5000000000003
 10
85.0000000000001
 20
129.5
 10
84.5000000000001
 20
129.5
 10
84.50000000000001
 20
130
 10
84.49999999999994
 20
134.5000000000002
 10
75.49999999999993
 20
134.5000000000001
 10
75.5
 20
130
 10
75.49999999999999
 20
129.5
 10
75.46193976625567
 20
129.3086582838176
 10
75.35355339059329
 20
129.1464466094068
 10
75.19134171618256
 20
129.0380602337445
 10
75.00000000000003
 20
129.0000000000001
 10
74.80865828381748
 20
129.0380602337445
 10
74.64644660940675
 20
129.1464466094068
 10
74.53806023374437
 20
129.3086582838176
 10
74.50000000000001
 20
129.5000000000001
 10
74.5
 20
130
 10
74.5
 20
130.3333333333335
 10
74.5
 20
130.5
 10
74.49999999999993
 20
134.5000000000001
 10
74.53806023374429
 20
134.6913417161826
 10
74.64644660940665
 20
134.8535533905934
 10
74.80865828381738
 20
134.9619397662558
 10
74.99999999999993
 20
135.0000000000001
 10
74.99999999999996
 20
140
 10
74.99999999999996
 20
140.5
 10
75
 20
150
 10
60
 20
150
 10
60.00000000000001
 20
140.5
 10
60.00000000000001
 20
140
 10
60.00000000000001
 20
139.5
 10
60.00000000000001
 20
135
 10
60.19134171618256
 20
134.9619397662557
 10
60.35355339059328
 20
134.8535533905933
 10
60.46193976625565
 20
134.6913417161825
 10
60.50000000000001
 20
134.5
 10
60.49999999999999
 20
130.5
 10
60.49999999999999
 20
130
 10
60.49999999999999
 20
129.5
 10
60.46193976625563
 20
129.3086582838175
 10
60.35355339059326
 20
129.1464466094067
 10
60.19134171618254
 20
129.0380602337443
 10
59.99999999999999
 20
129
 10
59.80865828381744
 20
129.0380602337443
 10
59.64644660940672
 20
129.1464466094067
 10
59.53806023374435
 20
129.3086582838175
 10
59.49999999999999
 20
129.5
 10
59.50000000000001
 20
134.5
 10
50.5
 20
134.5
 10
50.49999999999997
 20
130
 10
50.49999999999997
 20
129.5
 10
49.99999999999997
 20
129.5
 10
45.50000000000001
 20
129.5
 10
45.5
 20
120.5
 10
50.00000000000006
 20
120.5
 10
50.50000000000006
 20
120.5
 10
51.00000000000006
 20
120.5
 10
59.49999999999999
 20
120.5
 10
60
 20
120.5
 10
60
 20
80.86602540378443
 10
60
 20
80.28867513459481
 10
60
 20
79.71132486540519
 10
60
 20
79.13397459621557
 10
60
 20
70
 10
75
 20
70
 10
75
 20
79.13397459621557
 10
75
 20
79.71132486540519
 10
75
 20
80.28867513459481
 10
75
 20
80.86602540378443
 10
75.00000000000001
 20
120.5000000000001
  0
LWPOLYLINE
  5
63
100
AcDbEntity
  8
0
  6
ByLayer
 62
  256
370
   -1
100
AcDbPolyline
 90
   74
 70
    0
 43
0
 10
74.39999999999999
 20
231.9
 10
74.89999999999999
 20
231.9
 10
74.90000000000001
 20
180.3660258851571
 10
74.90000000000001
 20
179.7886752950524
 10
74.90000000000001
 20
179.5
 10
74.90000000000001
 20
169.5
 10
89.90590121775234
 20
169.5158216776121
 10
89.90590121775234
 20
178.649795792455
 10
89.90590121775234
 20
179.2271463825597
 10
89.90590121775234
 20
179.5158216776121
 10
89.90590121775234
 20
231.9000000000001
 10
90.40000000000001
 20
231.9000000000001
 10
94.62477094238993
 20
231.9000000000001
 10
99.40000000000002
 20
231.9000000000002
 10
99.90000000000002
 20
231.9000000000002
 10
104.4000000000001
 20
231.9000000000003
 10
104.4
 20
240.9000000000003
 10
99.90000000000011
 20
240.9
 10
99.40000000000011
 20
240.9
 10
99.40000000000002
 20
241.4
 10
99.39999999999995
 20
245.9000000000002
 10
90.39999999999993
 20
245.9
 10
90.40000000000001
 20
241.4
 10
90.40000000000001
 20
240.9
 10
90.36193976625567
 20
240.7086582838176
 10
90.2535533905933
 20
240.5464466094068
 10
90.09134171618257
 20
240.4380602337444
 10
89.90000000000003
 20
240.4000000000001
 10
89.70865828381748
 20
240.4380602337444
 10
89.54644660940676
 20
240.5464466094068
 10
89.43806023374438
 20
240.7086582838175
 10
89.40000000000002
 20
240.9000000000001
 10
89.40000000000001
 20
241.4
 10
89.40000000000001
 20
241.7333333333334
 10
89.40000000000001
 20
241.9
 10
89.39999999999993
 20
245.9000000000001
 10
89.4380602337443
 20
246.0913417161826
 10
89.54644660940666
 20
246.2535533905934
 10
89.70865828381739
 20
246.3619397662557
 10
89.90000000000001
 20
246.4000000000001
 10
89.89999999999993
 20
251.4
 10
89.89999999999993
 20
251.7571428571429
 10
89.89999999999993
 20
251.9
 10
89.89999999999981
 20
261.4
 10
74.90000000000001
 20
261.4
 10
74.90000000000002
 20
251.9000000000001
 10
74.90000000000002
 20
251.4000000000001
 10
74.90000000000002
 20
250.9000000000001
 10
74.90000000000002
 20
246.4000000000001
 10
75.09134171618257
 20
246.3619397662557
 10
75.2535533905933
 20
246.2535533905934
 10
75.36193976625566
 20
246.0913417161826
 10
75.40000000000002
 20
245.9000000000001
 10
75.39999999999999
 20
241.9
 10
75.39999999999999
 20
241.4
 10
75.39999999999999
 20
240.9
 10
75.36193976625563
 20
240.7086582838175
 10
75.25355339059327
 20
240.5464466094067
 10
75.09134171618254
 20
240.4380602337444
 10
74.89999999999999
 20
240.4
 10
74.70865828381744
 20
240.4380602337444
 10
74.54644660940671
 20
240.5464466094067
 10
74.43806023374435
 20
240.7086582838175
 10
74.39999999999999
 20
240.9
 10
74.40000000000002
 20
245.9
 10
65.40000000000001
 20
245.9
 10
65.39999999999998
 20
241.4
 10
65.39999999999998
 20
240.9
 10
60.40000000000001
 20
240.9000000000001
 10
60.40000000000001
 20
231.9
 10
64.90000000000006
 20
231.9
 10
65.40000000000006
 20
231.9
 10
65.90000000000006
 20
231.9
 10
74.39999999999999
 20
231.9
  0
LWPOLYLINE
  5
64
100
AcDbEntity
  8
0
  6
ByLayer
 62
  256
370
   -1
100
AcDbPolyline
 90
   60
 70
    0
 43
0
 10
140
 20
70
 10
170
 20
70
 10
170.0046561906697
 20
80.50454420524274
 10
176.3390963996104
 20
73.73410539599877
 10
183.5954218368299
 20
80.62035095889829
 10
177.3068369185586
 20
87.33809547742399
 10
177.3115859561186
 20
87.34254047125796
 10
196.07
 20
104.9
 10
196.0929893274398
 20
104.9528228057968
 10
196.3093348762479
 20
105.4499221202338
 10
201.31
 20
116.94
 10
183.0595442661608
 20
145.1745355623686
 10
170.5053233674741
 20
145.2033858611101
 10
170.0053233792963
 20
145.2045348889268
 10
170.0000160406552
 20
275.6058809939206
 10
170.0000086009282
 20
275.7886751366045
 10
170
 20
275.9999999999999
 10
170.0000757461037
 20
275.9999841120788
 10
170.011508166739
 20
275.9975861353047
 10
170.5875051176026
 20
275.8767694374068
 10
182.4155558246282
 20
273.3958083370943
 10
201.36
 20
291.4400000000001
 10
198.9736233629591
 20
303.8300674995162
 10
198.8600140417631
 20
304.419927095166
 10
198.86
 20
304.42
 10
198.859421730471
 20
304.4205285776222
 10
198.6761890937229
 20
304.5880156516837
 10
170.5046561906697
 20
330.3387099684732
 10
170.0046561906697
 20
330.7957439255072
 10
170
 20
330.8000000000001
 10
170
 20
331.3
 10
170
 20
331.5886751379076
 10
170
 20
332.1660254137227
 10
170
 20
381.7
 10
140
 20
381.7
 10
139.9732410859071
 20
330.8121617357967
 10
139.9649218765208
 20
330.8045442052427
 10
139.5046561906697
 20
330.3830993584882
 10
111.5188538385413
 20
304.7577430780473
 10
111.155165581913
 20
304.4247298939388
 10
111.15
 20
304.42
 10
111.1498759164573
 20
304.4193583249464
 10
111.0358848518241
 20
303.8298746520625
 10
108.64
 20
291.4400000000001
 10
127.1
 20
273.3
 10
139.417100106223
 20
275.8814048220646
 10
140.0046561906697
 20
276.0045442052428
 10
140.0046535513914
 20
275.4871228841285
 10
140.0046521677718
 20
275.2158690679447
 10
140.0046492228061
 20
274.6385187925757
 10
140.0039890020431
 20
145.2045348889268
 10
126.9840190409454
 20
145.2092429250455
 10
108.7
 20
117
 10
113.9352916130129
 20
104.8940530835162
 10
132.6931630814414
 20
87.33809547742399
 10
126.4039737169042
 20
80.6249088093613
 10
133.6610136101338
 20
73.73917835972053
 10
139.662372044323
 20
80.14006880362848
 10
140.0000982821634
 20
80.5002786914656
 10
140
 20
70
  0
LWPOLYLINE
  5
65
100
AcDbEntity
  8
0
  6
ByLayer
 62
  256
370
   -1
100
AcDbPolyline
 90
   29
 70
    0
 43
0
 10
89.90000000000001
 20
235.3
 10
89.40000000000001
 20
235.3
 10
89.40000000000002
 20
235.5
 10
89.40000000000002
 20
236.9000000000001
 10
89.40000000000001
 20
237.0000000000001
 10
89.40000000000002
 20
237.3
 10
89.40761204674888
 20
237.3382683432365
 10
89.42928932188136
 20
237.3707106781187
 10
89.4617316567635
 20
237.3923879532511
 10
89.50000000000001
 20
237.4
 10
89.8
 20
237.4
 10
89.83826834323651
 20
237.3923879532511
 10
89.87071067811866
 20
237.3707106781187
 10
89.89238795325113
 20
237.3382683432365
 10
89.89999999999999
 20
237.3
 10
89.90761204674888
 20
237.3382683432365
 10
89.92928932188136
 20
237.3707106781187
 10
89.9617316567635
 20
237.3923879532511
 10
90.00000000000001
 20
237.4
 10
90.3
 20
237.4
 10
90.33826834323651
 20
237.3923879532511
 10
90.37071067811866
 20
237.3707106781187
 10
90.39238795325113
 20
237.3382683432365
 10
90.39999999999999
 20
237.3
 10
90.40000000000001
 20
237.0000000000001
 10
90.39999999999999
 20
236.9000000000001
 10
90.39999999999999
 20
235.5
 10
90.40000000000001
 20
235.3
 10
89.90000000000001
 20
235.3
  0
LWPOLYLINE
  5
66
100
AcDbEntity
  8
0
  6
ByLayer
 62
  256
370
   -1
100
AcDbPolyline
 90
   65
 70
    0
 43
0
 10
94.42860326317401
 20
235.5180787356516
 10
94.3444297669804
 20
235.5685303876975
 10
94.26560671583636
 20
235.6269895466373
 10
94.19289321881345
 20
235.6928932188135
 10
94.12698954663726
 20
235.7656067158364
 10
94.06853038769746
 20
235.8444297669804
 10
94.01807873565166
 20
235.928603263174
 10
93.97612046748871
 20
236.0173165676349
 10
93.94305966426779
 20
236.1097153227455
 10
93.91921471959678
 20
236.2049096779839
 10
93.90481527332781
 20
236.3019828596704
 10
93.90000000000001
 20
236.4
 10
93.90481527332781
 20
236.4980171403296
 10
93.91921471959678
 20
236.5950903220161
 10
93.94305966426779
 20
236.6902846772545
 10
93.97612046748871
 20
236.7826834323651
 10
94.01807873565166
 20
236.871396736826
 10
94.06853038769746
 20
236.9555702330196
 10
94.12698954663726
 20
237.0343932841637
 10
94.19289321881345
 20
237.1071067811866
 10
94.26560671583636
 20
237.1730104533627
 10
94.3444297669804
 20
237.2314696123026
 10
94.42860326317401
 20
237.2819212643484
 10
94.51731656763492
 20
237.3238795325113
 10
94.60971532274554
 20
237.3569403357322
 10
94.70490967798388
 20
237.3807852804032
 10
94.80198285967045
 20
237.3951847266722
 10
94.90000000000001
 20
237.4
 10
94.99801714032957
 20
237.3951847266722
 10
95.09509032201613
 20
237.3807852804032
 10
95.19028467725447
 20
237.3569403357322
 10
95.28268343236509
 20
237.3238795325113
 10
95.371396736826
 20
237.2819212643484
 10
95.45557023301961
 20
237.2314696123026
 10
95.53439328416366
 20
237.1730104533627
 10
95.60710678118656
 20
237.1071067811866
 10
95.67301045336274
 20
237.0343932841637
 10
95.73146961230255
 20
236.9555702330196
 10
95.78192126434836
 20
236.871396736826
 10
95.8238795325113
 20
236.7826834323651
 10
95.85694033573222
 20
236.6902846772545
 10
95.88078528040323
 20
236.5950903220161
 10
95.8951847266722
 20
236.4980171403296
 10
95.90000000000001
 20
236.4
 10
95.8951847266722
 20
236.3019828596704
 10
95.88078528040323
 20
236.2049096779839
 10
95.85694033573222
 20
236.1097153227455
 10
95.8238795325113
 20
236.0173165676349
 10
95.78192126434836
 20
235.928603263174
 10
95.73146961230255
 20
235.8444297669804
 10
95.67301045336275
 20
235.7656067158364
 10
95.60710678118656
 20
235.6928932188135
 10
95.53439328416366
 20
235.6269895466373
 10
95.45557023301961
 20
235.5685303876975
 10
95.371396736826
 20
235.5180787356516
 10
95.28268343236509
 20
235.4761204674887
 10
95.19028467725447
 20
235.4430596642678
 10
95.09509032201613
 20
235.4192147195968
 10
94.99801714032957
 20
235.4048152733278
 10
94.90000000000001
 20
235.4
 10
94.80198285967045
 20
235.4048152733278
 10
94.70490967798388
 20
235.4192147195968
 10
94.60971532274554
 20
235.4430596642678
 10
94.51731656763492
 20
235.4761204674887
 10
94.42860326317401
 20
235.5180787356516
  0
LWPOLYLINE
  5
67
100
AcDbEntity
  8
0
  6
ByLayer
 62
  256
370
   -1
100
AcDbPolyline
 90
   43
 70
    0
 43
0
 10
98.92928932188143
 20
237.3707106781187
 10
98.96173165676358
 20
237.3923879532511
 10
99.00000000000009
 20
237.4
 10
99.29015085966434
 20
237.4
 10
99.30776745559749
 20
237.4035041588022
 10
99.34678552000071
 20
237.4035041588022
 10
99.38283351110105
 20
237.3885725919921
 10
99.40000000000008
 20
237.3714061030931
 10
99.40141982692505
 20
237.3699862761681
 10
99.43361082645924
 20
237.3920717827299
 10
99.47263372774744
 20
237.4
 10
99.80000000000007
 20
237.4
 10
99.83826834323658
 20
237.3923879532511
 10
99.87071067811873
 20
237.3707106781187
 10
99.8923879532512
 20
237.3382683432365
 10
99.90000000000008
 20
237.3000000000001
 10
99.90000000000006
 20
237.2000000000001
 10
99.90000000000005
 20
236.4000000000005
 10
99.90000000000003
 20
235.6000000000001
 10
99.90000000000005
 20
235.5000000000001
 10
99.89238795325117
 20
235.4617316567635
 10
99.8707106781187
 20
235.4292893218814
 10
99.83826834323655
 20
235.4076120467489
 10
99.80000000000004
 20
235.4
 10
99.50984914033579
 20
235.4
 10
99.49223254440278
 20
235.3964958411978
 10
99.45321447999956
 20
235.3964958411978
 10
99.41716648889923
 20
235.4114274080079
 10
99.40000000000005
 20
235.4285938969071
 10
99.3985801730751
 20
235.430013723832
 10
99.36638917354091
 20
235.4079282172702
 10
99.3273662722526
 20
235.4
 10
99.00000000000006
 20
235.4
 10
98.96173165676355
 20
235.4076120467489
 10
98.9292893218814
 20
235.4292893218814
 10
98.90761204674892
 20
235.4617316567635
 10
98.90000000000005
 20
235.5000000000001
 10
98.90000000000006
 20
235.6000000000001
 10
98.90000000000008
 20
236.400000000001
 10
98.90000000000009
 20
237.2000000000001
 10
98.90000000000008
 20
237.3000000000001
 10
98.90761204674895
 20
237.3382683432365
 10
98.92928932188143
 20
237.3707106781187
  0
LWPOLYLINE
  5
68
100
AcDbEntity
  8
0
  6
ByLayer
 62
  256
370
   -1
100
AcDbPolyline
 90
   37
 70
    0
 43
0
 10
94.00000000000004
 20
240.4
 10
93.9617316567635
 20
240.4076120467489
 10
93.92928932188136
 20
240.4292893218814
 10
93.90761204674888
 20
240.4617316567635
 10
93.90000000000002
 20
240.5
 10
93.90000000000002
 20
240.8314734994681
 10
93.90720010878078
 20
240.8687317896825
 10
93.92736075146702
 20
240.9
 10
93.92776360379402
 20
240.9006248050463
 10
93.9296448802864
 20
240.9019574393348
 10
93.90792821727022
 20
240.933610826459
 10
93.90000000000002
 20
240.9726337277474
 10
93.90000000000002
 20
241.3
 10
93.90761204674888
 20
241.3382683432365
 10
93.92928932188136
 20
241.3707106781187
 10
93.9617316567635
 20
241.3923879532511
 10
94.00000000000004
 20
241.4
 10
94.10000000000004
 20
241.4
 10
95.70000000000006
 20
241.4
 10
95.80000000000007
 20
241.4
 10
95.83826834323651
 20
241.3923879532511
 10
95.87071067811866
 20
241.3707106781187
 10
95.89238795325113
 20
241.3382683432365
 10
95.89999999999999
 20
241.3
 10
95.89999999999999
 20
240.9685265005318
 10
95.89279989121921
 20
240.9312682103174
 10
95.87263924853302
 20
240.9
 10
95.89279989121921
 20
240.8687317896826
 10
95.89999999999999
 20
240.8314734994682
 10
95.89999999999999
 20
240.5
 10
95.89238795325113
 20
240.4617316567635
 10
95.87071067811866
 20
240.4292893218814
 10
95.83826834323651
 20
240.4076120467489
 10
95.80000000000007
 20
240.4
 10
95.70000000000006
 20
240.4
 10
94.10000000000005
 20
240.4
 10
94.00000000000004
 20
240.4
  0
LWPOLYLINE
  5
69
100
AcDbEntity
  8
0
  6
ByLayer
 62
  256
370
   -1
100
AcDbPolyline
 90
   11
 70
    0
 43
0
 10
83.8
 20
241.4
 10
83.8
 20
240.9
 10
83.30590121799999
 20
240.9
 10
81.50590121800001
 20
240.9
 10
81
 20
240.9
 10
81
 20
241.4
 10
81
 20
241.9
 10
81.50590121800001
 20
241.9
 10
83.30590121799999
 20
241.9
 10
83.8
 20
241.9
 10
83.8
 20
241.4
  0
LWPOLYLINE
  5
6A
100
AcDbEntity
  8
0
  6
ByLayer
 62
  256
370
   -1
100
AcDbPolyline
 90
   13
 70
    0
 43
0
 10
83.89999999999996
 20
250.9
 10
83.30590121799999
 20
250.9
 10
82.41475304500004
 20
250.9
 10
81.50590121800001
 20
250.9000000000001
 10
80.89999999999998
 20
250.9000000000001
 10
80.89999999999999
 20
251.4000000000001
 10
80.89999999999999
 20
251.9000000000001
 10
81.50590121800001
 20
251.9000000000001
 10
82.41475304500001
 20
251.9
 10
83.30590121799999
 20
251.9
 10
83.89999999999998
 20
251.9
 10
83.89999999999998
 20
251.4
 10
83.89999999999996
 20
250.9
  0
LWPOLYLINE
  5
6B
100
AcDbEntity
  8
0
  6
ByLayer
 62
  256
370
   -1
100
AcDbPolyline
 90
   11
 70
    0
 43
0
 10
127.0965485916579
 20
289.4175707871192
 10
128.8135709914456
 20
287.7267288584791
 10
128.4627440809847
 20
287.3704698531242
 10
128.1119171705238
 20
287.0142108477693
 10
126.2907611394736
 20
288.8075986196915
 10
124.9870026454381
 20
290.091477925406
 10
122.3409611156814
 20
292.6971736717101
 10
122.6917880261422
 20
293.053432677065
 10
123.0426149366031
 20
293.4096916824199
 10
125.7871317293456
 20
290.7070221845731
 10
127.0965485916579
 20
289.4175707871192
  0
LWPOLYLINE
  5
6C
100
AcDbEntity
  8
0
  6
ByLayer
 62
  256
370
   -1
100
AcDbPolyline
 90
   65
 70
    0
 43
0
 10
114.0046561906697
 20
304.0045442052428
 10
114.0094714639975
 20
304.1025613455723
 10
114.0238709102665
 20
304.1996345272589
 10
114.0477158549375
 20
304.2948288824973
 10
114.0807766581584
 20
304.3872276376079
 10
114.1227349263214
 20
304.4759409420688
 10
114.1731865783672
 20
304.5601144382624
 10
114.231645737307
 20
304.6389374894064
 10
114.2975494094832
 20
304.7116509864293
 10
114.3702629065061
 20
304.7775546586055
 10
114.4490859576501
 20
304.8360138175453
 10
114.5332594538437
 20
304.8864654695911
 10
114.6219727583046
 20
304.9284237377541
 10
114.7143715134152
 20
304.961484540975
 10
114.8095658686536
 20
304.985329485646
 10
114.9066390503401
 20
304.999728931915
 10
115.0046561906697
 20
305.0045442052428
 10
115.1026733309993
 20
304.999728931915
 10
115.1997465126858
 20
304.985329485646
 10
115.2949408679242
 20
304.961484540975
 10
115.3873396230348
 20
304.9284237377541
 10
115.4760529274957
 20
304.8864654695911
 10
115.5602264236893
 20
304.8360138175453
 10
115.6390494748334
 20
304.7775546586055
 10
115.7117629718563
 20
304.7116509864293
 10
115.7776666440324
 20
304.6389374894064
 10
115.8361258029722
 20
304.5601144382624
 10
115.8865774550181
 20
304.4759409420688
 10
115.928535723181
 20
304.3872276376079
 10
115.9615965264019
 20
304.2948288824973
 10
115.9854414710729
 20
304.1996345272589
 10
115.9998409173419
 20
304.1025613455723
 10
116.0046561906697
 20
304.0045442052428
 10
115.9998409173419
 20
303.9065270649132
 10
115.9854414710729
 20
303.8094538832266
 10
115.9615965264019
 20
303.7142595279883
 10
115.928535723181
 20
303.6218607728777
 10
115.8865774550181
 20
303.5331474684168
 10
115.8361258029722
 20
303.4489739722232
 10
115.7776666440325
 20
303.3701509210791
 10
115.7117629718563
 20
303.2974374240562
 10
115.6390494748334
 20
303.23153375188
 10
115.5602264236893
 20
303.1730745929402
 10
115.4760529274957
 20
303.1226229408944
 10
115.3873396230348
 20
303.0806646727315
 10
115.2949408679242
 20
303.0476038695106
 10
115.1997465126858
 20
303.0237589248396
 10
115.1026733309993
 20
303.0093594785706
 10
115.0046561906697
 20
303.0045442052428
 10
114.9066390503401
 20
303.0093594785706
 10
114.8095658686536
 20
303.0237589248396
 10
114.7143715134152
 20
303.0476038695106
 10
114.6219727583046
 20
303.0806646727315
 10
114.5332594538437
 20
303.1226229408944
 10
114.4490859576501
 20
303.1730745929402
 10
114.3702629065061
 20
303.23153375188
 10
114.2975494094832
 20
303.2974374240562
 10
114.231645737307
 20
303.3701509210791
 10
114.1731865783672
 20
303.4489739722232
 10
114.1227349263214
 20
303.5331474684168
 10
114.0807766581584
 20
303.6218607728777
 10
114.0477158549375
 20
303.7142595279883
 10
114.0238709102665
 20
303.8094538832266
 10
114.0094714639975
 20
303.9065270649132
 10
114.0046561906697
 20
304.0045442052428
  0
LWPOLYLINE
  5
6D
100
AcDbEntity
  8
0
  6
ByLayer
 62
  256
370
   -1
100
AcDbPolyline
 90
   13
 70
    0
 43
0
 10
155.7855366776957
 20
80.8681788625767
 10
158.0019936765355
 20
80.86784307594331
 10
158.0019062096904
 20
80.29049281337916
 10
158.0018187428453
 20
79.71314255081502
 10
158.0017312760003
 20
79.13579228825088
 10
155.7848899171749
 20
79.13612813311363
 10
153.9848796298716
 20
79.13640082931063
 10
152.0026625141342
 20
79.13670112929942
 10
152.0027499809793
 20
79.71405139186358
 10
152.0028374478244
 20
80.29140165442772
 10
152.0029249146694
 20
80.86875191699185
 10
153.985536638297
 20
80.86845155722116
 10
155.7855366776957
 20
80.8681788625767
  0
LWPOLYLINE
  5
6E
100
AcDbEntity
  8
0
  6
ByLayer
 62
  256
370
   -1
100
AcDbPolyline
 90
   32
 70
    0
 43
0
 10
174.9921394691499
 20
84.48727341914388
 10
174.7304079721729
 20
84.24233227898621
 10
174.6573941296307
 20
84.17400235291262
 10
173.6770712153838
 20
83.256568207188
 10
173.2690405884612
 20
82.87471318350141
 10
172.9273909580931
 20
83.23978239621233
 10
172.5857413277251
 20
83.60485160892325
 10
173.0045679779857
 20
83.99681007944795
 10
173.9740948688946
 20
84.90414077833445
 10
174.0471087114368
 20
84.97247070440805
 10
174.3196362317518
 20
85.22751529140382
 10
174.353234450072
 20
85.2482762241295
 10
174.3922503167558
 20
85.2544096366255
 10
174.4305979160805
 20
85.2449588044944
 10
174.4622955724486
 20
85.22139792202555
 10
174.660419485379
 20
85.0012602410016
 10
174.6593004630273
 20
85.00025312088502
 10
174.6773050364394
 20
84.97942568431198
 10
174.6891040818152
 20
84.93765529157147
 10
174.6820933965329
 20
84.89482033536338
 10
174.6575937819086
 20
84.85899084939525
 10
174.654181918993
 20
84.85579786115244
 10
174.6877801373133
 20
84.8765587938781
 10
174.7267960039971
 20
84.88269220637412
 10
174.7651436033218
 20
84.87324137424302
 10
174.7968412596898
 20
84.84968049177417
 10
174.9949651726203
 20
84.62954281075024
 10
174.9938461502686
 20
84.62853569063365
 10
175.0118507236808
 20
84.60770825406041
 10
175.0236497690565
 20
84.56593786131995
 10
175.0166390837741
 20
84.52310290511194
 10
174.9921394691499
 20
84.48727341914388
  0
LWPOLYLINE
  5
6F
100
AcDbEntity
  8
0
  6
ByLayer
 62
  256
370
   -1
100
AcDbPolyline
 90
   31
 70
    0
 43
0
 10
169.9332932270268
 20
121.2409877842436
 10
169.9705850777187
 20
121.2206060127233
 10
169.9960452115744
 20
121.186578372159
 10
170.0050752770305
 20
121.1450505904197
 10
170.0050763477745
 20
121.2488849828989
 10
170.0050766002477
 20
121.2733683330841
 10
170.0105851361322
 20
121.3060989869932
 10
170.0265032265781
 20
121.3352237886141
 10
170.0510772715904
 20
121.3575342342538
 10
170.3510792564002
 20
121.5500077546397
 10
170.3909082439636
 20
121.56483173818
 10
170.4332965350431
 20
121.5617769848866
 10
170.470588385735
 20
121.5413952133663
 10
170.4960485195907
 20
121.507367572802
 10
170.5050785850468
 20
121.4658397910627
 10
170.5050565315076
 20
119.3272185322561
 10
170.5046046372571
 20
119.3245334640949
 10
170.5050565038191
 20
119.3245334594352
 10
170.5049230660938
 20
106.3845353226984
 10
170.0049230661203
 20
106.3845404787164
 10
169.5049230661469
 20
106.3845456347343
 10
169.5050512386921
 20
118.8139578736187
 10
169.5050554726687
 20
119.2245437714764
 10
169.5050565038723
 20
119.3245437714711
 10
169.5050732922313
 20
120.9525791324411
 10
169.5105818281158
 20
120.9853097863501
 10
169.5264999185618
 20
121.0144345879711
 10
169.5510739635741
 20
121.0367450336108
 10
169.8510759483839
 20
121.2292185539966
 10
169.8909049359472
 20
121.244042537537
 10
169.9332932270268
 20
121.2409877842436
  0
LWPOLYLINE
  5
70
100
AcDbEntity
  8
0
  6
ByLayer
 62
  256
370
   -1
100
AcDbPolyline
 90
   12
 70
    0
 43
0
 10
182.3704819497636
 20
127.004356152863
 10
186.0631178030459
 20
121.2942251739454
 10
185.6432604762602
 20
121.0227112237617
 10
185.2234031494744
 20
120.751197273578
 10
181.5291991733885
 20
126.4637531291843
 10
180.9562864890389
 20
127.349680308874
 10
180.5517425849618
 20
127.9752493524474
 10
180.0107574504865
 20
128.8118051619664
 10
180.4306147772722
 20
129.0833191121501
 10
180.8504721040579
 20
129.3548330623338
 10
181.3929472533907
 20
128.5159731588464
 10
182.3704819497636
 20
127.004356152863
  0
LWPOLYLINE
  5
71
100
AcDbEntity
  8
0
  6
ByLayer
 62
  256
370
   -1
100
AcDbPolyline
 90
   14
 70
    0
 43
0
 10
158.0019062096904
 20
145.9904928133792
 10
158.0018187428453
 20
145.4131425508151
 10
158.0017312760003
 20
144.8357922882509
 10
155.81176551578
 20
144.8361240615405
 10
154.2015909918731
 20
144.8363679981848
 10
154.0117552294122
 20
144.8363967577374
 10
152.0026625141342
 20
144.8367011292995
 10
152.0027499809793
 20
145.4140513918636
 10
152.0028374478244
 20
145.9914016544277
 10
152.0029249146694
 20
146.5687519169919
 10
154.0124122378477
 20
146.5684474856479
 10
155.8124122763132
 20
146.5681747910036
 10
158.0019936765355
 20
146.5678430759433
 10
158.0019062096904
 20
145.9904928133792
  0
LWPOLYLINE
  5
72
100
AcDbEntity
  8
0
  6
ByLayer
 62
  256
370
   -1
100
AcDbPolyline
 90
   14
 70
    0
 43
0
 10
155.8317994741957
 20
193.8361210264555
 10
154.0317994355474
 20
193.8363937210999
 10
152.0026625141342
 20
193.8367011292995
 10
152.0027499809793
 20
194.4140513918636
 10
152.0028374478244
 20
194.9914016544277
 10
152.0029249146694
 20
195.5687519169919
 10
154.0324461960749
 20
195.5684444505629
 10
155.5593088704098
 20
195.5682131354156
 10
155.8324564826371
 20
195.568171754366
 10
158.0019936765355
 20
195.5678430759433
 10
158.0019062096904
 20
194.9904928133792
 10
158.0018187428453
 20
194.4131425508151
 10
158.0017312760003
 20
193.8357922882509
 10
155.8317994741957
 20
193.8361210264555
  0
LWPOLYLINE
  5
73
100
AcDbEntity
  8
0
  6
ByLayer
 62
  256
370
   -1
100
AcDbPolyline
 90
   14
 70
    0
 43
0
 10
152.0026625141342
 20
233.1367011292995
 10
152.0027499809793
 20
233.7140513918636
 10
152.0028374478244
 20
234.2914016544277
 10
152.0029249146694
 20
234.8687519169919
 10
154.0485224675263
 20
234.8684420150557
 10
154.9050542987488
 20
234.8683122530345
 10
155.8485327542397
 20
234.8681693188587
 10
158.0019936765355
 20
234.8678430759433
 10
158.0019062096904
 20
234.2904928133792
 10
158.0018187428453
 20
233.7131425508151
 10
158.0017312760003
 20
233.1357922882509
 10
155.8478757457983
 20
233.1361185909482
 10
154.0478757069988
 20
233.1363912855926
 10
152.0026625141342
 20
233.1367011292995
  0
LWPOLYLINE
  5
74
100
AcDbEntity
  8
0
  6
ByLayer
 62
  256
370
   -1
100
AcDbPolyline
 90
   13
 70
    0
 43
0
 10
154.0655089308346
 20
276.368439441657
 10
155.8655089697997
 20
276.3681667470126
 10
158.0019936765355
 20
276.3678430759433
 10
158.0019062096904
 20
275.7904928133792
 10
158.0018187428453
 20
275.2131425508151
 10
158.0017312760003
 20
274.6357922882509
 10
155.8648519613583
 20
274.6361160191022
 10
154.0648519223991
 20
274.6363887137466
 10
152.0026625141342
 20
274.6367011292995
 10
152.0027499809793
 20
275.2140513918636
 10
152.0028374478244
 20
275.7914016544277
 10
152.0029249146694
 20
276.3687519169919
 10
154.0655089308346
 20
276.368439441657
  0
LWPOLYLINE
  5
75
100
AcDbEntity
  8
0
  6
ByLayer
 62
  256
370
   -1
100
AcDbPolyline
 90
   11
 70
    0
 43
0
 10
183.7741361431095
 20
290.2658092792481
 10
185.0930365599918
 20
291.5645996298231
 10
186.9670439908648
 20
293.4100329445516
 10
187.3178709013257
 20
293.0537739391967
 10
187.6686978117866
 20
292.6975149338418
 10
185.9147290232686
 20
290.970289960237
 10
184.5958286063889
 20
289.6714996096645
 10
181.8976262415679
 20
287.0144383558572
 10
181.5467993311071
 20
287.3706973612121
 10
181.1959724206462
 20
287.726956366567
 10
183.7741361431095
 20
290.2658092792481
  0
LWPOLYLINE
  5
76
100
AcDbEntity
  8
0
  6
ByLayer
 62
  256
370
   -1
100
AcDbPolyline
 90
   11
 70
    0
 43
0
 10
170.0046561906697
 20
297.9210240933485
 10
169.5046561906697
 20
297.9210240933485
 10
169.5046561906697
 20
299.4458602878336
 10
169.5046561906697
 20
301.5923875090313
 10
169.5046561906697
 20
308.8792640374014
 10
170.0046561906697
 20
308.8792640374014
 10
170.5046561906697
 20
308.8792640374014
 10
170.5046561906697
 20
301.072638451107
 10
170.5046561906697
 20
298.9261112299144
 10
170.5046561906697
 20
297.9210240933485
 10
170.0046561906697
 20
297.9210240933485
  0
LWPOLYLINE
  5
77
100
AcDbEntity
  8
0
  6
ByLayer
 62
  256
370
   -1
100
AcDbPolyline
 90
   11
 70
    0
 43
0
 10
139.5046561906697
 20
308.8845442052427
 10
140.0046561906697
 20
308.8845442052427
 10
140.5046561906697
 20
308.8845442052427
 10
140.5046561906697
 20
300.9439997942903
 10
140.5046561906697
 20
298.7442590612682
 10
140.5046561906697
 20
297.9245442052427
 10
140.0046561906697
 20
297.9245442052427
 10
139.5046561906697
 20
297.9245442052427
 10
139.5046561906697
 20
298.1822768031101
 10
139.5046561906697
 20
300.3820175361794
 10
139.5046561906697
 20
308.8845442052427
  0
LWPOLYLINE
  5
78
100
AcDbEntity
  8
0
  6
ByLayer
 62
  256
370
   -1
100
AcDbPolyline
 90
   65
 70
    0
 43
0
 10
194.0046561906697
 20
304.0045442052428
 10
194.0094714639975
 20
304.1025613455723
 10
194.0238709102665
 20
304.1996345272589
 10
194.0477158549375
 20
304.2948288824973
 10
194.0807766581584
 20
304.3872276376079
 10
194.1227349263213
 20
304.4759409420688
 10
194.1731865783671
 20
304.5601144382624
 10
194.231645737307
 20
304.6389374894064
 10
194.2975494094831
 20
304.7116509864293
 10
194.370262906506
 20
304.7775546586055
 10
194.4490859576501
 20
304.8360138175453
 10
194.5332594538437
 20
304.8864654695911
 10
194.6219727583046
 20
304.9284237377541
 10
194.7143715134152
 20
304.961484540975
 10
194.8095658686536
 20
304.985329485646
 10
194.9066390503401
 20
304.999728931915
 10
195.0046561906697
 20
305.0045442052428
 10
195.1026733309993
 20
304.999728931915
 10
195.1997465126858
 20
304.985329485646
 10
195.2949408679241
 20
304.961484540975
 10
195.3873396230348
 20
304.9284237377541
 10
195.4760529274957
 20
304.8864654695911
 10
195.5602264236893
 20
304.8360138175453
 10
195.6390494748333
 20
304.7775546586055
 10
195.7117629718562
 20
304.7116509864293
 10
195.7776666440324
 20
304.6389374894064
 10
195.8361258029722
 20
304.5601144382624
 10
195.8865774550181
 20
304.4759409420688
 10
195.928535723181
 20
304.3872276376079
 10
195.9615965264019
 20
304.2948288824973
 10
195.9854414710729
 20
304.1996345272589
 10
195.9998409173419
 20
304.1025613455723
 10
196.0046561906697
 20
304.0045442052428
 10
195.9998409173419
 20
303.9065270649132
 10
195.9854414710729
 20
303.8094538832266
 10
195.9615965264019
 20
303.7142595279883
 10
195.928535723181
 20
303.6218607728777
 10
195.8865774550181
 20
303.5331474684168
 10
195.8361258029722
 20
303.4489739722232
 10
195.7776666440324
 20
303.3701509210791
 10
195.7117629718562
 20
303.2974374240562
 10
195.6390494748333
 20
303.23153375188
 10
195.5602264236893
 20
303.1730745929402
 10
195.4760529274957
 20
303.1226229408944
 10
195.3873396230348
 20
303.0806646727315
 10
195.2949408679242
 20
303.0476038695106
 10
195.1997465126858
 20
303.0237589248396
 10
195.1026733309993
 20
303.0093594785706
 10
195.0046561906697
 20
303.0045442052428
 10
194.9066390503401
 20
303.0093594785706
 10
194.8095658686536
 20
303.0237589248396
 10
194.7143715134152
 20
303.0476038695106
 10
194.6219727583046
 20
303.0806646727315
 10
194.5332594538437
 20
303.1226229408944
 10
194.4490859576501
 20
303.1730745929402
 10
194.370262906506
 20
303.23153375188
 10
194.2975494094831
 20
303.2974374240562
 10
194.231645737307
 20
303.3701509210791
 10
194.1731865783671
 20
303.4489739722232
 10
194.1227349263213
 20
303.5331474684168
 10
194.0807766581584
 20
303.6218607728777
 10
194.0477158549375
 20
303.7142595279883
 10
194.0238709102665
 20
303.8094538832266
 10
194.0094714639975
 20
303.9065270649132
 10
194.0046561906697
 20
304.0045442052428
  0
LWPOLYLINE
  5
79
100
AcDbEntity
  8
0
  6
ByLayer
 62
  256
370
   -1
100
AcDbPolyline
 90
   13
 70
    0
 43
0
 10
152.0028374478244
 20
331.5914016544277
 10
152.0029249146694
 20
332.1687519169918
 10
154.0883245345987
 20
332.168435985161
 10
155.888334821741
 20
332.168163288964
 10
158.0019936765355
 20
332.1678430759433
 10
158.0019062096904
 20
331.5904928133792
 10
158.0018187428453
 20
331.013142550815
 10
158.0017312760003
 20
330.4357922882509
 10
155.8876778133042
 20
330.4361125610536
 10
154.0876777740756
 20
330.436385255698
 10
152.0026625141342
 20
330.4367011292994
 10
152.0027499809793
 20
331.0140513918635
 10
152.0028374478244
 20
331.5914016544277
  0
LWPOLYLINE
  5
7A
100
AcDbEntity
  8
0
  6
ByLayer
 62
  256
370
   -1
100
AcDbPolyline
 90
   13
 70
    0
 43
0
 10
157.9858482157633
 20
370.9906600286471
 10
157.985766039861
 20
370.4133097653057
 10
157.9856838639588
 20
369.8359595019642
 10
155.9038065799191
 20
369.8362558214691
 10
154.1037959212246
 20
369.8365120220968
 10
151.9919668849113
 20
369.8368126047197
 10
151.9920490608135
 20
370.4141628680612
 10
151.9921312367158
 20
370.9915131314026
 10
151.992213412618
 20
371.5688633947441
 10
154.1044510968207
 20
371.5685627539573
 10
155.9044511429522
 20
371.56830655484
 10
157.9859303916655
 20
371.5680102919886
 10
157.9858482157633
 20
370.9906600286471
  0
ENDSEC
  0
SECTION
  2
OBJECTS
  0
DICTIONARY
  5
C
330
0
100
AcDbDictionary
281
    1
  3
ACAD_GROUP
350
D
  0
DICTIONARY
  5
D
330
C
100
AcDbDictionary
281
    1
  0
PLOTSETTINGS
  5
7B
100
AcDbPlotSettings
  6
1x1
 40
0
 41
0
 42
0
 43
0
  0
ENDSEC
  0
EOF
