  0
SECTION
  2
HEADER
  9
$ACADVER
  1
AC1024
  9
$ACADMAINTVER
 70
6
  9
$DWGCODEPAGE
  3
ANSI_1252
  9
$LASTSAVEDBY
  1
ezdxf
  9
$INSBASE
 10
0.0
 20
0.0
 30
0.0
  9
$EXTMIN
 10
1e+20
 20
1e+20
 30
1e+20
  9
$EXTMAX
 10
-1e+20
 20
-1e+20
 30
-1e+20
  9
$LIMMIN
 10
0.0
 20
0.0
  9
$LIMMAX
 10
420.0
 20
297.0
  9
$ORTHOMODE
 70
0
  9
$REGENMODE
 70
1
  9
$FILLMODE
 70
1
  9
$QTEXTMODE
 70
0
  9
$MIRRTEXT
 70
1
  9
$LTSCALE
 40
1.0
  9
$ATTMODE
 70
1
  9
$TEXTSIZE
 40
2.5
  9
$TRACEWID
 40
1.0
  9
$TEXTSTYLE
  7
Standard
  9
$CLAYER
  8
0
  9
$CELTYPE
  6
ByLayer
  9
$CECOLOR
 62
256
  9
$CELTSCALE
 40
1.0
  9
$DISPSILH
 70
0
  9
$DIMSCALE
 40
1.0
  9
$DIMASZ
 40
2.5
  9
$DIMEXO
 40
0.625
  9
$DIMDLI
 40
3.75
  9
$DIMRND
 40
0.0
  9
$DIMDLE
 40
0.0
  9
$DIMEXE
 40
1.25
  9
$DIMTP
 40
0.0
  9
$DIMTM
 40
0.0
  9
$DIMTXT
 40
2.5
  9
$DIMCEN
 40
2.5
  9
$DIMTSZ
 40
0.0
  9
$DIMTOL
 70
0
  9
$DIMLIM
 70
0
  9
$DIMTIH
 70
0
  9
$DIMTOH
 70
0
  9
$DIMSE1
 70
0
  9
$DIMSE2
 70
0
  9
$DIMTAD
 70
1
  9
$DIMZIN
 70
8
  9
$DIMBLK
  1

  9
$DIMASO
 70
1
  9
$DIMSHO
 70
1
  9
$DIMPOST
  1

  9
$DIMAPOST
  1

  9
$DIMALT
 70
0
  9
$DIMALTD
 70
3
  9
$DIMALTF
 40
0.03937007874
  9
$DIMLFAC
 40
1.0
  9
$DIMTOFL
 70
1
  9
$DIMTVP
 40
0.0
  9
$DIMTIX
 70
0
  9
$DIMSOXD
 70
0
  9
$DIMSAH
 70
0
  9
$DIMBLK1
  1

  9
$DIMBLK2
  1

  9
$DIMSTYLE
  2
ISO-25
  9
$DIMCLRD
 70
0
  9
$DIMCLRE
 70
0
  9
$DIMCLRT
 70
0
  9
$DIMTFAC
 40
1.0
  9
$DIMGAP
 40
0.625
  9
$DIMJUST
 70
0
  9
$DIMSD1
 70
0
  9
$DIMSD2
 70
0
  9
$DIMTOLJ
 70
0
  9
$DIMTZIN
 70
8
  9
$DIMALTZ
 70
0
  9
$DIMALTTZ
 70
0
  9
$DIMUPT
 70
0
  9
$DIMDEC
 70
2
  9
$DIMTDEC
 70
2
  9
$DIMALTU
 70
2
  9
$DIMALTTD
 70
3
  9
$DIMTXSTY
  7
Standard
  9
$DIMAUNIT
 70
0
  9
$DIMADEC
 70
0
  9
$DIMALTRND
 40
0.0
  9
$DIMAZIN
 70
0
  9
$DIMDSEP
 70
44
  9
$DIMATFIT
 70
3
  9
$DIMFRAC
 70
0
  9
$DIMLDRBLK
  1

  9
$DIMLUNIT
 70
2
  9
$DIMLWD
 70
-2
  9
$DIMLWE
 70
-2
  9
$DIMTMOVE
 70
0
  9
$DIMFXL
 40
1.0
  9
$DIMFXLON
 70
0
  9
$DIMJOGANG
 40
0.785398163397
  9
$DIMTFILL
 70
0
  9
$DIMTFILLCLR
 70
0
  9
$DIMARCSYM
 70
0
  9
$DIMLTYPE
  6

  9
$DIMLTEX1
  6

  9
$DIMLTEX2
  6

  9
$DIMTXTDIRECTION
 70
0
  9
$LUNITS
 70
2
  9
$LUPREC
 70
4
  9
$SKETCHINC
 40
1.0
  9
$FILLETRAD
 40
10.0
  9
$AUNITS
 70
0
  9
$AUPREC
 70
2
  9
$MENU
  1
.
  9
$ELEVATION
 40
0.0
  9
$PELEVATION
 40
0.0
  9
$THICKNESS
 40
0.0
  9
$LIMCHECK
 70
0
  9
$CHAMFERA
 40
0.0
  9
$CHAMFERB
 40
0.0
  9
$CHAMFERC
 40
0.0
  9
$CHAMFERD
 40
0.0
  9
$SKPOLY
 70
0
  9
$TDCREATE
 40
2461001.6646180553
  9
$TDUCREATE
 40
2458532.153996898
  9
$TDUPDATE
 40
2461001.6646180553
  9
$TDUUPDATE
 40
2458532.1544311
  9
$TDINDWG
 40
0.0
  9
$TDUSRTIMER
 40
0.0
  9
$USRTIMER
 70
1
  9
$ANGBASE
 50
0.0
  9
$ANGDIR
 70
0
  9
$PDMODE
 70
0
  9
$PDSIZE
 40
0.0
  9
$PLINEWID
 40
0.0
  9
$SPLFRAME
 70
0
  9
$SPLINETYPE
 70
6
  9
$SPLINESEGS
 70
8
  9
$HANDSEED
  5
5F
  9
$SURFTAB1
 70
6
  9
$SURFTAB2
 70
6
  9
$SURFTYPE
 70
6
  9
$SURFU
 70
6
  9
$SURFV
 70
6
  9
$UCSBASE
  2

  9
$UCSNAME
  2

  9
$UCSORG
 10
0.0
 20
0.0
 30
0.0
  9
$UCSXDIR
 10
1.0
 20
0.0
 30
0.0
  9
$UCSYDIR
 10
0.0
 20
1.0
 30
0.0
  9
$UCSORTHOREF
  2

  9
$UCSORTHOVIEW
 70
0
  9
$UCSORGTOP
 10
0.0
 20
0.0
 30
0.0
  9
$UCSORGBOTTOM
 10
0.0
 20
0.0
 30
0.0
  9
$UCSORGLEFT
 10
0.0
 20
0.0
 30
0.0
  9
$UCSORGRIGHT
 10
0.0
 20
0.0
 30
0.0
  9
$UCSORGFRONT
 10
0.0
 20
0.0
 30
0.0
  9
$UCSORGBACK
 10
0.0
 20
0.0
 30
0.0
  9
$PUCSBASE
  2

  9
$PUCSNAME
  2

  9
$PUCSORG
 10
0.0
 20
0.0
 30
0.0
  9
$PUCSXDIR
 10
1.0
 20
0.0
 30
0.0
  9
$PUCSYDIR
 10
0.0
 20
1.0
 30
0.0
  9
$PUCSORTHOREF
  2

  9
$PUCSORTHOVIEW
 70
0
  9
$PUCSORGTOP
 10
0.0
 20
0.0
 30
0.0
  9
$PUCSORGBOTTOM
 10
0.0
 20
0.0
 30
0.0
  9
$PUCSORGLEFT
 10
0.0
 20
0.0
 30
0.0
  9
$PUCSORGRIGHT
 10
0.0
 20
0.0
 30
0.0
  9
$PUCSORGFRONT
 10
0.0
 20
0.0
 30
0.0
  9
$PUCSORGBACK
 10
0.0
 20
0.0
 30
0.0
  9
$USERI1
 70
0
  9
$USERI2
 70
0
  9
$USERI3
 70
0
  9
$USERI4
 70
0
  9
$USERI5
 70
0
  9
$USERR1
 40
0.0
  9
$USERR2
 40
0.0
  9
$USERR3
 40
0.0
  9
$USERR4
 40
0.0
  9
$USERR5
 40
0.0
  9
$WORLDVIEW
 70
1
  9
$SHADEDGE
 70
3
  9
$SHADEDIF
 70
70
  9
$TILEMODE
 70
1
  9
$MAXACTVP
 70
64
  9
$PINSBASE
 10
0.0
 20
0.0
 30
0.0
  9
$PLIMCHECK
 70
0
  9
$PEXTMIN
 10
1e+20
 20
1e+20
 30
1e+20
  9
$PEXTMAX
 10
-1e+20
 20
-1e+20
 30
-1e+20
  9
$PLIMMIN
 10
0.0
 20
0.0
  9
$PLIMMAX
 10
420.0
 20
297.0
  9
$UNITMODE
 70
0
  9
$VISRETAIN
 70
1
  9
$PLINEGEN
 70
0
  9
$PSLTSCALE
 70
1
  9
$TREEDEPTH
 70
3020
  9
$CMLSTYLE
  2
Standard
  9
$CMLJUST
 70
0
  9
$CMLSCALE
 40
20.0
  9
$PROXYGRAPHICS
 70
1
  9
$MEASUREMENT
 70
1
  9
$CELWEIGHT
370
-1
  9
$ENDCAPS
280
0
  9
$JOINSTYLE
280
0
  9
$LWDISPLAY
290
0
  9
$INSUNITS
 70
6
  9
$HYPERLINKBASE
  1

  9
$STYLESHEET
  1

  9
$XEDIT
290
1
  9
$CEPSNTYPE
380
0
  9
$PSTYLEMODE
290
1
  9
$FINGERPRINTGUID
  2
{8C0DE4D6-6A70-45E8-BFD8-1A1505584EC4}
  9
$VERSIONGUID
  2
{48C185AD-4BD1-4D6F-AD2E-8FA02388B021}
  9
$EXTNAMES
290
1
  9
$PSVPSCALE
 40
0.0
  9
$OLESTARTUP
290
0
  9
$SORTENTS
280
127
  9
$INDEXCTL
280
0
  9
$HIDETEXT
280
1
  9
$XCLIPFRAME
280
1
  9
$HALOGAP
280
0
  9
$OBSCOLOR
 70
257
  9
$OBSLTYPE
280
0
  9
$INTERSECTIONDISPLAY
280
0
  9
$INTERSECTIONCOLOR
 70
257
  9
$DIMASSOC
280
2
  9
$PROJECTNAME
  1

  9
$CAMERADISPLAY
290
0
  9
$LENSLENGTH
 40
50.0
  9
$CAMERAHEIGHT
 40
0.0
  9
$STEPSPERSEC
 40
24.0
  9
$STEPSIZE
 40
100.0
  9
$3DDWFPREC
 40
2.0
  9
$PSOLWIDTH
 40
0.005
  9
$PSOLHEIGHT
 40
0.08
  9
$LOFTANG1
 40
1.570796326795
  9
$LOFTANG2
 40
1.570796326795
  9
$LOFTMAG1
 40
0.0
  9
$LOFTMAG2
 40
0.0
  9
$LOFTPARAM
 70
7
  9
$LOFTNORMALS
280
1
  9
$LATITUDE
 40
37.795
  9
$LONGITUDE
 40
-122.394
  9
$NORTHDIRECTION
 40
0.0
  9
$TIMEZONE
 70
-8000
  9
$LIGHTGLYPHDISPLAY
280
1
  9
$TILEMODELIGHTSYNCH
280
1
  9
$CMATERIAL
347
20
  9
$SOLIDHIST
280
0
  9
$SHOWHIST
280
1
  9
$DWFFRAME
280
2
  9
$DGNFRAME
280
2
  9
$REALWORLDSCALE
290
1
  9
$INTERFERECOLOR
 62
256
  9
$CSHADOW
280
0
  9
$SHADOWPLANELOCATION
 40
0.0
  0
ENDSEC
  0
SECTION
  2
CLASSES
  0
CLASS
  1
ACDBDICTIONARYWDFLT
  2
AcDbDictionaryWithDefault
  3
ObjectDBX Classes
 90
0
 91
0
280
0
281
0
  0
CLASS
  1
SUN
  2
AcDbSun
  3
SCENEOE
 90
1153
 91
0
280
0
281
0
  0
CLASS
  1
VISUALSTYLE
  2
AcDbVisualStyle
  3
ObjectDBX Classes
 90
4095
 91
0
280
0
281
0
  0
CLASS
  1
MATERIAL
  2
AcDbMaterial
  3
ObjectDBX Classes
 90
1153
 91
0
280
0
281
0
  0
CLASS
  1
SCALE
  2
AcDbScale
  3
ObjectDBX Classes
 90
1153
 91
0
280
0
281
0
  0
CLASS
  1
TABLESTYLE
  2
AcDbTableStyle
  3
ObjectDBX Classes
 90
4095
 91
0
280
0
281
0
  0
CLASS
  1
MLEADERSTYLE
  2
AcDbMLeaderStyle
  3
ACDB_MLEADERSTYLE_CLASS
 90
4095
 91
0
280
0
281
0
  0
CLASS
  1
DICTIONARYVAR
  2
AcDbDictionaryVar
  3
ObjectDBX Classes
 90
0
 91
0
280
0
281
0
  0
CLASS
  1
CELLSTYLEMAP
  2
AcDbCellStyleMap
  3
ObjectDBX Classes
 90
1152
 91
0
280
0
281
0
  0
CLASS
  1
MENTALRAYRENDERSETTINGS
  2
AcDbMentalRayRenderSettings
  3
SCENEOE
 90
1024
 91
0
280
0
281
0
  0
CLASS
  1
ACDBDETAILVIEWSTYLE
  2
AcDbDetailViewStyle
  3
ObjectDBX Classes
 90
1025
 91
0
280
0
281
0
  0
CLASS
  1
ACDBSECTIONVIEWSTYLE
  2
AcDbSectionViewStyle
  3
ObjectDBX Classes
 90
1025
 91
0
280
0
281
0
  0
CLASS
  1
RASTERVARIABLES
  2
AcDbRasterVariables
  3
ISM
 90
0
 91
0
280
0
281
0
  0
CLASS
  1
LAYOUT
  2
AcDbLayout
  3
ObjectDBX Classes
 90
0
 91
0
280
0
281
0
  0
CLASS
  1
ACDBPLACEHOLDER
  2
AcDbPlaceHolder
  3
ObjectDBX Classes
 90
0
 91
0
280
0
281
0
  0
ENDSEC
  0
SECTION
  2
TABLES
  0
TABLE
  2
VPORT
  5
8
330
0
100
AcDbSymbolTable
 70
1
  0
VPORT
  5
23
330
8
100
AcDbSymbolTableRecord
100
AcDbViewportTableRecord
  2
*Active
 70
0
 10
0.0
 20
0.0
 11
1.0
 21
1.0
 12
0.0
 22
0.0
 13
0.0
 23
0.0
 14
0.5
 24
0.5
 15
0.5
 25
0.5
 16
0.0
 26
0.0
 36
1.0
 17
0.0
 27
0.0
 37
0.0
 40
1000.0
 41
1.34
 42
50.0
 43
0.0
 44
0.0
 50
0.0
 51
0.0
 71
0
 72
1000
 73
1
 74
3
 75
0
 76
0
 77
0
 78
0
281
0
 65
0
146
0.0
  0
ENDTAB
  0
TABLE
  2
LTYPE
  5
2
330
0
100
AcDbSymbolTable
 70
3
  0
LTYPE
  5
24
330
2
100
AcDbSymbolTableRecord
100
AcDbLinetypeTableRecord
  2
ByBlock
 70
0
  3

 72
65
 73
0
 40
0.0
  0
LTYPE
  5
25
330
2
100
AcDbSymbolTableRecord
100
AcDbLinetypeTableRecord
  2
ByLayer
 70
0
  3

 72
65
 73
0
 40
0.0
  0
LTYPE
  5
26
330
2
100
AcDbSymbolTableRecord
100
AcDbLinetypeTableRecord
  2
Continuous
 70
0
  3

 72
65
 73
0
 40
0.0
  0
ENDTAB
  0
TABLE
  2
LAYER
  5
1
330
0
100
AcDbSymbolTable
 70
2
  0
LAYER
  5
27
330
1
100
AcDbSymbolTableRecord
100
AcDbLayerTableRecord
  2
0
 70
0
 62
7
  6
Continuous
370
-3
390
13
347
21
  0
LAYER
  5
28
330
1
100
AcDbSymbolTableRecord
100
AcDbLayerTableRecord
  2
Defpoints
 70
0
 62
7
  6
Continuous
290
0
370
-3
390
13
347
21
  0
ENDTAB
  0
TABLE
  2
STYLE
  5
5
330
0
100
AcDbSymbolTable
 70
1
  0
STYLE
  5
29
330
5
100
AcDbSymbolTableRecord
100
AcDbTextStyleTableRecord
  2
Standard
 70
0
 40
0.0
 41
1.0
 50
0.0
 71
0
 42
2.5
  3
txt
  4

  0
ENDTAB
  0
TABLE
  2
VIEW
  5
7
330
0
100
AcDbSymbolTable
 70
0
  0
ENDTAB
  0
TABLE
  2
UCS
  5
6
330
0
100
AcDbSymbolTable
 70
0
  0
ENDTAB
  0
TABLE
  2
APPID
  5
3
330
0
100
AcDbSymbolTable
 70
3
  0
APPID
  5
2A
330
3
100
AcDbSymbolTableRecord
100
AcDbRegAppTableRecord
  2
ACAD
 70
0
  0
APPID
  5
5C
330
3
100
AcDbSymbolTableRecord
100
AcDbRegAppTableRecord
  2
HATCHBACKGROUNDCOLOR
 70
0
  0
APPID
  5
5D
330
3
100
AcDbSymbolTableRecord
100
AcDbRegAppTableRecord
  2
EZDXF
 70
0
  0
ENDTAB
  0
TABLE
  2
DIMSTYLE
  5
4
330
0
100
AcDbSymbolTable
 70
1
100
AcDbDimStyleTable
  0
DIMSTYLE
105
2B
330
4
100
AcDbSymbolTableRecord
100
AcDbDimStyleTableRecord
  2
Standard
 70
0
 40
1.0
 41
2.5
 42
0.625
 43
3.75
 44
1.25
 45
0.0
 46
0.0
 47
0.0
 48
0.0
 49
2.5
140
2.5
141
2.5
142
0.0
143
0.03937007874
144
1.0
145
0.0
146
1.0
147
0.625
148
0.0
 69
0
 70
0
 71
0
 72
0
 73
0
 74
0
 75
0
 76
0
 77
1
 78
8
 79
3
170
0
171
3
172
1
173
0
174
0
175
0
176
0
177
0
178
0
179
2
271
2
272
2
273
2
274
3
275
0
276
0
277
2
278
44
279
0
280
0
281
0
282
0
283
0
284
8
285
0
286
0
288
0
289
3
290
0
371
-2
372
-2
  0
ENDTAB
  0
TABLE
  2
BLOCK_RECORD
  5
9
330
0
100
AcDbSymbolTable
 70
2
  0
BLOCK_RECORD
  5
17
330
9
100
AcDbSymbolTableRecord
100
AcDbBlockTableRecord
  2
*Model_Space
340
1A
 70
0
280
1
281
0
  0
BLOCK_RECORD
  5
1B
330
9
100
AcDbSymbolTableRecord
100
AcDbBlockTableRecord
  2
*Paper_Space
340
1E
 70
0
280
1
281
0
  0
ENDTAB
  0
ENDSEC
  0
SECTION
  2
BLOCKS
  0
BLOCK
  5
18
330
17
100
AcDbEntity
  8
0
100
AcDbBlockBegin
  2
*Model_Space
 70
0
 10
0.0
 20
0.0
 30
0.0
  3
*Model_Space
  1

  0
ENDBLK
  5
19
330
17
100
AcDbEntity
  8
0
100
AcDbBlockEnd
  0
BLOCK
  5
1C
330
1B
100
AcDbEntity
  8
0
100
AcDbBlockBegin
  2
*Paper_Space
 70
0
 10
0.0
 20
0.0
 30
0.0
  3
*Paper_Space
  1

  0
ENDBLK
  5
1D
330
1B
100
AcDbEntity
  8
0
100
AcDbBlockEnd
  0
ENDSEC
  0
SECTION
  2
ENTITIES
  0
LWPOLYLINE
  5
2F
330
17
100
AcDbEntity
  8
0
100
AcDbPolyline
 90
13
 70
0
 10
66.60000000000001
 20
79.13397459621558
 10
66.0
 20
79.13397459621557
 10
66.0
 20
79.71132486540519
 10
66.0
 20
80.28867513459481
 10
66.0
 20
80.86602540378443
 10
66.60000000000001
 20
80.86602540378442
 10
68.39999999999999
 20
80.86602540378442
 10
69.0
 20
80.86602540378443
 10
69.0
 20
80.28867513459481
 10
69.0
 20
79.71132486540519
 10
69.0
 20
79.13397459621557
 10
68.39999999999999
 20
79.13397459621558
 10
66.60000000000001
 20
79.13397459621558
  0
LWPOLYLINE
  5
30
330
17
100
AcDbEntity
  8
0
100
AcDbPolyline
 90
29
 70
0
 10
59.49999999999999
 20
124.10000000000001
 10
59.49999999999999
 20
125.49999999999999
 10
59.49999999999999
 20
125.6
 10
59.49999999999999
 20
125.89999999999999
 10
59.50761204674887
 20
125.9382683432365
 10
59.529289321881336
 20
125.97071067811865
 10
59.561731656763484
 20
125.99238795325113
 10
59.599999999999994
 20
125.99999999999999
 10
59.89999999999999
 20
125.99999999999999
 10
59.9382683432365
 20
125.99238795325113
 10
59.97071067811865
 20
125.97071067811865
 10
59.99238795325112
 20
125.9382683432365
 10
59.99999999999999
 20
125.89999999999999
 10
60.00761204674887
 20
125.9382683432365
 10
60.029289321881336
 20
125.97071067811865
 10
60.061731656763484
 20
125.99238795325113
 10
60.099999999999994
 20
125.99999999999999
 10
60.39999999999999
 20
125.99999999999999
 10
60.4382683432365
 20
125.99238795325113
 10
60.47071067811865
 20
125.97071067811865
 10
60.49238795325112
 20
125.9382683432365
 10
60.49999999999999
 20
125.89999999999999
 10
60.49999999999999
 20
125.6
 10
60.49999999999999
 20
125.49999999999999
 10
60.49999999999999
 20
124.10000000000001
 10
60.49999999999999
 20
123.9
 10
59.99999999999999
 20
123.9
 10
59.49999999999999
 20
123.9
 10
59.49999999999999
 20
124.10000000000001
  0
LWPOLYLINE
  5
31
330
17
100
AcDbEntity
  8
0
100
AcDbPolyline
 90
29
 70
0
 10
74.52928932188135
 20
125.97071067811865
 10
74.5617316567635
 20
125.99238795325113
 10
74.60000000000001
 20
125.99999999999999
 10
74.89999999999999
 20
125.99999999999999
 10
74.9382683432365
 20
125.99238795325113
 10
74.97071067811865
 20
125.97071067811865
 10
74.99238795325113
 20
125.9382683432365
 10
74.99999999999999
 20
125.89999999999999
 10
75.00761204674887
 20
125.9382683432365
 10
75.02928932188135
 20
125.97071067811865
 10
75.0617316567635
 20
125.99238795325113
 10
75.10000000000001
 20
125.99999999999999
 10
75.39999999999999
 20
125.99999999999999
 10
75.4382683432365
 20
125.99238795325113
 10
75.47071067811865
 20
125.97071067811865
 10
75.49238795325113
 20
125.9382683432365
 10
75.49999999999999
 20
125.89999999999999
 10
75.5
 20
125.60000000000007
 10
75.49999999999999
 20
125.50000000000006
 10
75.49999999999999
 20
124.10000000000001
 10
75.5
 20
123.90000000000005
 10
75.0
 20
123.90000000000005
 10
74.5
 20
123.90000000000005
 10
74.50000000000001
 20
124.10000000000001
 10
74.50000000000001
 20
125.50000000000006
 10
74.5
 20
125.60000000000007
 10
74.50000000000001
 20
125.89999999999999
 10
74.50761204674887
 20
125.9382683432365
 10
74.52928932188135
 20
125.97071067811865
  0
LWPOLYLINE
  5
32
330
17
100
AcDbEntity
  8
0
100
AcDbPolyline
 90
45
 70
0
 10
50.55321447999945
 20
126.0035041588022
 10
50.59223254440267
 20
126.0035041588022
 10
50.609849140335726
 20
125.99999999999999
 10
50.900000000000006
 20
125.99999999999999
 10
50.938268343236516
 20
125.99238795325113
 10
50.970710678118664
 20
125.97071067811865
 10
50.99238795325113
 20
125.9382683432365
 10
51.00000000000001
 20
125.9
 10
51.00000000000001
 20
125.8
 10
51.000000000000014
 20
125.00000000000007
 10
51.00000000000002
 20
124.20000000000002
 10
51.00000000000002
 20
124.10000000000001
 10
50.992387953251146
 20
124.0617316567635
 10
50.97071067811868
 20
124.02928932188135
 10
50.93826834323653
 20
124.00761204674887
 10
50.90000000000002
 20
124.00000000000001
 10
50.568526500531874
 20
124.00000000000001
 10
50.53126821031747
 20
124.0072001087808
 10
50.50000000000002
 20
124.027360751467
 10
50.49937519495366
 20
124.02776360379403
 10
50.499289990210265
 20
124.0278838871172
 10
50.48283351110092
 20
124.01142740800786
 10
50.44678552000058
 20
123.9964958411978
 10
50.40776745559736
 20
123.9964958411978
 10
50.3901508596643
 20
124.00000000000001
 10
50.10000000000002
 20
124.00000000000001
 10
50.06173165676351
 20
124.00761204674887
 10
50.029289321881365
 20
124.02928932188135
 10
50.007612046748896
 20
124.0617316567635
 10
50.00000000000002
 20
124.1
 10
50.00000000000002
 20
124.2
 10
50.000000000000014
 20
124.99999999999994
 10
50.00000000000001
 20
125.79999999999998
 10
50.00000000000001
 20
125.89999999999999
 10
50.00761204674888
 20
125.9382683432365
 10
50.02928932188135
 20
125.97071067811865
 10
50.0617316567635
 20
125.99238795325113
 10
50.10000000000001
 20
125.99999999999999
 10
50.431473499468154
 20
125.99999999999999
 10
50.46873178968256
 20
125.9927998912192
 10
50.50000000000001
 20
125.972639248533
 10
50.50062480504637
 20
125.97223639620597
 10
50.50071000978976
 20
125.9721161128828
 10
50.51716648889911
 20
125.98857259199214
 10
50.55321447999945
 20
126.0035041588022
  0
LWPOLYLINE
  5
33
330
17
100
AcDbEntity
  8
0
100
AcDbPolyline
 90
65
 70
0
 10
55.19509032201612
 20
125.98078528040323
 10
55.290284677254455
 20
125.95694033573221
 10
55.382683432365084
 20
125.9238795325113
 10
55.47139673682599
 20
125.88192126434835
 10
55.555570233019594
 20
125.83146961230254
 10
55.634393284163636
 20
125.77301045336273
 10
55.70710678118654
 20
125.70710678118655
 10
55.77301045336273
 20
125.63439328416365
 10
55.83146961230254
 20
125.55557023301961
 10
55.88192126434835
 20
125.471396736826
 10
55.92387953251128
 20
125.38268343236508
 10
55.9569403357322
 20
125.29028467725446
 10
55.980785280403225
 20
125.19509032201613
 10
55.99518472667219
 20
125.09801714032956
 10
55.99999999999999
 20
125.0
 10
55.99518472667219
 20
124.90198285967044
 10
55.980785280403225
 20
124.80490967798387
 10
55.9569403357322
 20
124.70971532274554
 10
55.92387953251128
 20
124.61731656763492
 10
55.88192126434835
 20
124.528603263174
 10
55.83146961230254
 20
124.44442976698039
 10
55.77301045336273
 20
124.36560671583635
 10
55.70710678118654
 20
124.29289321881345
 10
55.634393284163636
 20
124.22698954663726
 10
55.555570233019594
 20
124.16853038769746
 10
55.47139673682599
 20
124.11807873565165
 10
55.382683432365084
 20
124.0761204674887
 10
55.290284677254455
 20
124.04305966426779
 10
55.19509032201612
 20
124.01921471959677
 10
55.09801714032955
 20
124.00481527332781
 10
54.99999999999999
 20
124.0
 10
54.90198285967043
 20
124.00481527332781
 10
54.804909677983865
 20
124.01921471959677
 10
54.70971532274553
 20
124.04305966426779
 10
54.6173165676349
 20
124.0761204674887
 10
54.528603263174
 20
124.11807873565165
 10
54.44442976698039
 20
124.16853038769746
 10
54.36560671583635
 20
124.22698954663726
 10
54.29289321881345
 20
124.29289321881345
 10
54.226989546637256
 20
124.36560671583635
 10
54.168530387697444
 20
124.44442976698039
 10
54.118078735651636
 20
124.528603263174
 10
54.07612046748871
 20
124.61731656763492
 10
54.04305966426779
 20
124.70971532274554
 10
54.01921471959676
 20
124.80490967798387
 10
54.00481527332779
 20
124.90198285967044
 10
53.99999999999999
 20
125.0
 10
54.00481527332779
 20
125.09801714032956
 10
54.01921471959676
 20
125.19509032201613
 10
54.04305966426779
 20
125.29028467725446
 10
54.07612046748871
 20
125.38268343236508
 10
54.118078735651636
 20
125.471396736826
 10
54.168530387697444
 20
125.55557023301961
 10
54.226989546637256
 20
125.63439328416365
 10
54.29289321881345
 20
125.70710678118655
 10
54.36560671583635
 20
125.77301045336273
 10
54.44442976698039
 20
125.83146961230254
 10
54.52860326317399
 20
125.88192126434835
 10
54.6173165676349
 20
125.9238795325113
 10
54.70971532274553
 20
125.95694033573221
 10
54.804909677983865
 20
125.98078528040323
 10
54.90198285967043
 20
125.99518472667219
 10
54.99999999999999
 20
126.0
 10
55.09801714032955
 20
125.99518472667219
 10
55.19509032201612
 20
125.98078528040323
  0
LWPOLYLINE
  5
34
330
17
100
AcDbEntity
  8
0
100
AcDbPolyline
 90
65
 70
0
 10
79.90198285967044
 20
125.99518472667219
 10
80.0
 20
126.0
 10
80.09801714032956
 20
125.99518472667219
 10
80.19509032201613
 20
125.98078528040323
 10
80.29028467725446
 20
125.95694033573221
 10
80.38268343236508
 20
125.9238795325113
 10
80.471396736826
 20
125.88192126434835
 10
80.55557023301961
 20
125.83146961230254
 10
80.63439328416365
 20
125.77301045336273
 10
80.70710678118655
 20
125.70710678118655
 10
80.77301045336273
 20
125.63439328416365
 10
80.83146961230254
 20
125.55557023301961
 10
80.88192126434835
 20
125.471396736826
 10
80.9238795325113
 20
125.38268343236508
 10
80.95694033573221
 20
125.29028467725446
 10
80.98078528040323
 20
125.19509032201613
 10
80.99518472667219
 20
125.09801714032956
 10
81.0
 20
125.0
 10
80.99518472667219
 20
124.90198285967044
 10
80.98078528040323
 20
124.80490967798387
 10
80.95694033573221
 20
124.70971532274554
 10
80.9238795325113
 20
124.61731656763492
 10
80.88192126434835
 20
124.528603263174
 10
80.83146961230254
 20
124.44442976698039
 10
80.77301045336274
 20
124.36560671583635
 10
80.70710678118655
 20
124.29289321881345
 10
80.63439328416365
 20
124.22698954663726
 10
80.55557023301961
 20
124.16853038769746
 10
80.471396736826
 20
124.11807873565165
 10
80.38268343236508
 20
124.0761204674887
 10
80.29028467725446
 20
124.04305966426779
 10
80.19509032201613
 20
124.01921471959677
 10
80.09801714032956
 20
124.00481527332781
 10
80.0
 20
124.0
 10
79.90198285967044
 20
124.00481527332781
 10
79.80490967798387
 20
124.01921471959677
 10
79.70971532274554
 20
124.04305966426779
 10
79.61731656763492
 20
124.0761204674887
 10
79.528603263174
 20
124.11807873565165
 10
79.44442976698039
 20
124.16853038769746
 10
79.36560671583635
 20
124.22698954663726
 10
79.29289321881345
 20
124.29289321881345
 10
79.22698954663726
 20
124.36560671583635
 10
79.16853038769746
 20
124.44442976698039
 10
79.11807873565165
 20
124.528603263174
 10
79.0761204674887
 20
124.61731656763492
 10
79.04305966426779
 20
124.70971532274554
 10
79.01921471959677
 20
124.80490967798387
 10
79.00481527332781
 20
124.90198285967044
 10
79.0
 20
125.0
 10
79.00481527332781
 20
125.09801714032956
 10
79.01921471959677
 20
125.19509032201613
 10
79.04305966426779
 20
125.29028467725446
 10
79.0761204674887
 20
125.38268343236508
 10
79.11807873565165
 20
125.471396736826
 10
79.16853038769746
 20
125.55557023301961
 10
79.22698954663726
 20
125.63439328416365
 10
79.29289321881345
 20
125.70710678118655
 10
79.36560671583635
 20
125.77301045336273
 10
79.44442976698039
 20
125.83146961230254
 10
79.528603263174
 20
125.88192126434835
 10
79.61731656763492
 20
125.9238795325113
 10
79.70971532274554
 20
125.95694033573221
 10
79.80490967798387
 20
125.98078528040323
 10
79.90198285967044
 20
125.99518472667219
  0
LWPOLYLINE
  5
35
330
17
100
AcDbEntity
  8
0
100
AcDbPolyline
 90
38
 70
0
 10
54.02928932188134
 20
129.02928932188135
 10
54.007612046748875
 20
129.0617316567635
 10
54.0
 20
129.1
 10
54.0
 20
129.43147349946815
 10
54.00720010878078
 20
129.46873178968255
 10
54.02736075146699
 20
129.5
 10
54.00720010878078
 20
129.53126821031745
 10
54.0
 20
129.56852650053185
 10
54.0
 20
129.9
 10
54.007612046748875
 20
129.9382683432365
 10
54.02928932188134
 20
129.97071067811865
 10
54.06173165676349
 20
129.99238795325113
 10
54.09999999999998
 20
130.0
 10
54.19999999999998
 20
130.0
 10
55.79999999999998
 20
130.0
 10
55.899999999999984
 20
130.0
 10
55.93826834323651
 20
129.99238795325113
 10
55.97071067811866
 20
129.97071067811865
 10
55.992387953251125
 20
129.9382683432365
 10
56.0
 20
129.9
 10
56.0
 20
129.56909822162874
 10
55.994693012949504
 20
129.53695427509842
 10
55.979335334029116
 20
129.50822207872787
 10
55.97165985483019
 20
129.50103320796276
 10
55.97223639620598
 20
129.50062480504636
 10
55.972639248533
 20
129.5
 10
55.99279989121922
 20
129.46873178968252
 10
56.0
 20
129.43147349946813
 10
56.0
 20
129.1
 10
55.992387953251125
 20
129.0617316567635
 10
55.97071067811866
 20
129.02928932188135
 10
55.93826834323651
 20
129.00761204674887
 10
55.899999999999984
 20
129.0
 10
55.79999999999998
 20
129.0
 10
54.19999999999998
 20
129.0
 10
54.09999999999998
 20
129.0
 10
54.06173165676349
 20
129.00761204674887
 10
54.02928932188134
 20
129.02928932188135
  0
LWPOLYLINE
  5
36
330
17
100
AcDbEntity
  8
0
100
AcDbPolyline
 90
37
 70
0
 10
79.0296448802864
 20
129.50195743933475
 10
79.00792821727022
 20
129.53361082645904
 10
79.00000000000001
 20
129.5726337277474
 10
79.00000000000001
 20
129.9
 10
79.00761204674887
 20
129.9382683432365
 10
79.02928932188135
 20
129.97071067811865
 10
79.0617316567635
 20
129.99238795325113
 10
79.10000000000004
 20
130.0
 10
79.20000000000003
 20
130.0
 10
80.80000000000004
 20
130.0
 10
80.90000000000005
 20
130.0
 10
80.9382683432365
 20
129.99238795325113
 10
80.97071067811865
 20
129.97071067811865
 10
80.99238795325113
 20
129.9382683432365
 10
80.99999999999999
 20
129.9
 10
80.99999999999999
 20
129.56852650053185
 10
80.99279989121922
 20
129.53126821031745
 10
80.97263924853301
 20
129.5
 10
80.99279989121922
 20
129.46873178968255
 10
80.99999999999999
 20
129.43147349946815
 10
80.99999999999999
 20
129.1
 10
80.99238795325113
 20
129.0617316567635
 10
80.97071067811865
 20
129.02928932188135
 10
80.9382683432365
 20
129.00761204674887
 10
80.90000000000005
 20
129.0
 10
80.80000000000004
 20
129.0
 10
79.20000000000005
 20
129.0
 10
79.10000000000004
 20
129.0
 10
79.0617316567635
 20
129.00761204674887
 10
79.02928932188135
 20
129.02928932188135
 10
79.00761204674887
 20
129.0617316567635
 10
79.00000000000001
 20
129.1
 10
79.00000000000001
 20
129.43147349946813
 10
79.00720010878078
 20
129.46873178968252
 10
79.02736075146701
 20
129.5
 10
79.02776360379401
 20
129.50062480504633
 10
79.0296448802864
 20
129.50195743933475
  0
LWPOLYLINE
  5
37
330
17
100
AcDbEntity
  8
0
100
AcDbPolyline
 90
11
 70
0
 10
68.39999999999999
 20
130.5
 10
68.9
 20
130.5
 10
68.9
 20
130.0
 10
68.9
 20
129.5
 10
68.39999999999999
 20
129.5
 10
66.60000000000001
 20
129.5
 10
66.1
 20
129.5
 10
66.1
 20
130.0
 10
66.1
 20
130.5
 10
66.60000000000001
 20
130.5
 10
68.39999999999999
 20
130.5
  0
LWPOLYLINE
  5
38
330
17
100
AcDbEntity
  8
0
100
AcDbPolyline
 90
11
 70
0
 10
68.99999999999997
 20
140.5
 10
68.99999999999997
 20
140.0
 10
68.99999999999997
 20
139.5
 10
68.39999999999999
 20
139.5
 10
66.60000000000001
 20
139.5
 10
65.99999999999999
 20
139.5
 10
65.99999999999999
 20
140.0
 10
65.99999999999999
 20
140.5
 10
66.60000000000001
 20
140.5
 10
68.39999999999999
 20
140.5
 10
68.99999999999997
 20
140.5
  0
LWPOLYLINE
  5
39
330
17
100
AcDbEntity
  8
0
100
AcDbPolyline
 90
29
 70
0
 10
75.37071067811864
 20
237.37071067811866
 10
75.39238795325112
 20
237.3382683432365
 10
75.39999999999998
 20
237.3
 10
75.39999999999999
 20
237.0
 10
75.39999999999998
 20
236.9
 10
75.39999999999998
 20
235.5
 10
75.39999999999999
 20
235.3
 10
74.89999999999999
 20
235.3
 10
74.39999999999999
 20
235.3
 10
74.4
 20
235.5
 10
74.4
 20
236.9
 10
74.39999999999999
 20
237.0
 10
74.4
 20
237.3
 10
74.40761204674887
 20
237.3382683432365
 10
74.42928932188134
 20
237.37071067811866
 10
74.46173165676349
 20
237.39238795325113
 10
74.5
 20
237.4
 10
74.79999999999998
 20
237.4
 10
74.83826834323649
 20
237.39238795325113
 10
74.87071067811864
 20
237.37071067811866
 10
74.89238795325112
 20
237.3382683432365
 10
74.89999999999998
 20
237.3
 10
74.90761204674887
 20
237.3382683432365
 10
74.92928932188134
 20
237.37071067811866
 10
74.96173165676349
 20
237.39238795325113
 10
75.0
 20
237.4
 10
75.29999999999998
 20
237.4
 10
75.33826834323649
 20
237.39238795325113
 10
75.37071067811864
 20
237.37071067811866
  0
LWPOLYLINE
  5
3A
330
17
100
AcDbEntity
  8
0
100
AcDbPolyline
 90
43
 70
0
 10
65.8
 20
237.4
 10
65.8382683432365
 20
237.39238795325113
 10
65.87071067811866
 20
237.37071067811866
 10
65.89238795325113
 20
237.3382683432365
 10
65.9
 20
237.3
 10
65.89999999999999
 20
237.20000000000002
 10
65.9
 20
236.4
 10
65.90000000000002
 20
235.6
 10
65.90000000000003
 20
235.5
 10
65.89238795325116
 20
235.4617316567635
 10
65.87071067811868
 20
235.42928932188136
 10
65.83826834323654
 20
235.40761204674888
 10
65.80000000000003
 20
235.4
 10
65.47263372774741
 20
235.4
 10
65.43361082645917
 20
235.40792821727018
 10
65.401419826925
 20
235.43001372383193
 10
65.40000000000003
 20
235.42859389690696
 10
65.38283351110094
 20
235.41142740800785
 10
65.34678552000058
 20
235.39649584119778
 10
65.30776745559734
 20
235.39649584119778
 10
65.29015085966422
 20
235.4
 10
65.00000000000004
 20
235.4
 10
64.96173165676353
 20
235.40761204674888
 10
64.92928932188138
 20
235.42928932188136
 10
64.90761204674891
 20
235.4617316567635
 10
64.90000000000003
 20
235.5
 10
64.90000000000005
 20
235.6
 10
64.90000000000003
 20
236.4
 10
64.90000000000002
 20
237.20000000000002
 10
64.9
 20
237.3
 10
64.90761204674888
 20
237.3382683432365
 10
64.92928932188136
 20
237.37071067811866
 10
64.9617316567635
 20
237.39238795325113
 10
65.00000000000001
 20
237.4
 10
65.32736627225263
 20
237.4
 10
65.36638917354087
 20
237.39207178272983
 10
65.39858017307505
 20
237.36998627616808
 10
65.4
 20
237.37140610309305
 10
65.4171664888991
 20
237.38857259199216
 10
65.45321447999946
 20
237.40350415880224
 10
65.4922325444027
 20
237.40350415880224
 10
65.50984914033582
 20
237.4
 10
65.8
 20
237.4
  0
LWPOLYLINE
  5
3B
330
17
100
AcDbEntity
  8
0
100
AcDbPolyline
 90
65
 70
0
 10
68.94305966426778
 20
236.69028467725448
 10
68.9761204674887
 20
236.7826834323651
 10
69.01807873565164
 20
236.871396736826
 10
69.06853038769745
 20
236.9555702330196
 10
69.12698954663725
 20
237.03439328416366
 10
69.19289321881344
 20
237.10710678118656
 10
69.26560671583634
 20
237.17301045336274
 10
69.34442976698038
 20
237.23146961230256
 10
69.428603263174
 20
237.28192126434837
 10
69.51731656763491
 20
237.32387953251128
 10
69.60971532274553
 20
237.35694033573222
 10
69.70490967798386
 20
237.38078528040324
 10
69.80198285967043
 20
237.3951847266722
 10
69.89999999999999
 20
237.4
 10
69.99801714032955
 20
237.3951847266722
 10
70.09509032201612
 20
237.38078528040324
 10
70.19028467725445
 20
237.35694033573222
 10
70.28268343236508
 20
237.32387953251128
 10
70.37139673682599
 20
237.28192126434837
 10
70.4555702330196
 20
237.23146961230256
 10
70.53439328416364
 20
237.17301045336274
 10
70.60710678118654
 20
237.10710678118656
 10
70.67301045336272
 20
237.03439328416366
 10
70.73146961230253
 20
236.9555702330196
 10
70.78192126434834
 20
236.871396736826
 10
70.82387953251128
 20
236.7826834323651
 10
70.8569403357322
 20
236.69028467725448
 10
70.88078528040322
 20
236.59509032201615
 10
70.89518472667218
 20
236.49801714032958
 10
70.89999999999999
 20
236.4
 10
70.89518472667218
 20
236.30198285967043
 10
70.88078528040322
 20
236.20490967798386
 10
70.8569403357322
 20
236.10971532274553
 10
70.82387953251128
 20
236.0173165676349
 10
70.78192126434834
 20
235.928603263174
 10
70.73146961230253
 20
235.8444297669804
 10
70.67301045336274
 20
235.76560671583636
 10
70.60710678118654
 20
235.69289321881345
 10
70.53439328416364
 20
235.62698954663728
 10
70.4555702330196
 20
235.56853038769745
 10
70.37139673682599
 20
235.51807873565164
 10
70.28268343236508
 20
235.47612046748873
 10
70.19028467725445
 20
235.4430596642678
 10
70.09509032201612
 20
235.41921471959677
 10
69.99801714032955
 20
235.4048152733278
 10
69.89999999999999
 20
235.4
 10
69.80198285967043
 20
235.4048152733278
 10
69.70490967798386
 20
235.41921471959677
 10
69.60971532274553
 20
235.4430596642678
 10
69.51731656763491
 20
235.47612046748873
 10
69.428603263174
 20
235.51807873565164
 10
69.34442976698038
 20
235.56853038769745
 10
69.26560671583634
 20
235.62698954663728
 10
69.19289321881344
 20
235.69289321881345
 10
69.12698954663725
 20
235.76560671583636
 10
69.06853038769745
 20
235.8444297669804
 10
69.01807873565164
 20
235.928603263174
 10
68.9761204674887
 20
236.0173165676349
 10
68.94305966426778
 20
236.10971532274553
 10
68.91921471959677
 20
236.20490967798386
 10
68.9048152733278
 20
236.30198285967043
 10
68.89999999999999
 20
236.4
 10
68.9048152733278
 20
236.49801714032958
 10
68.91921471959677
 20
236.59509032201615
 10
68.94305966426778
 20
236.69028467725448
  0
LWPOLYLINE
  5
3C
330
17
100
AcDbEntity
  8
0
100
AcDbPolyline
 90
37
 70
0
 10
70.87071067811866
 20
240.42928932188136
 10
70.8382683432365
 20
240.40761204674888
 10
70.79999999999998
 20
240.4
 10
70.69999999999997
 20
240.4
 10
69.1
 20
240.4
 10
68.99999999999999
 20
240.4
 10
68.9617316567635
 20
240.40761204674888
 10
68.92928932188136
 20
240.42928932188136
 10
68.90761204674888
 20
240.4617316567635
 10
68.90000000000002
 20
240.5
 10
68.90000000000002
 20
240.83147349946813
 10
68.90720010878078
 20
240.86873178968253
 10
68.92736075146702
 20
240.9
 10
68.90720010878078
 20
240.93126821031748
 10
68.90000000000002
 20
240.96852650053188
 10
68.90000000000002
 20
241.3
 10
68.90761204674888
 20
241.3382683432365
 10
68.92928932188136
 20
241.37071067811866
 10
68.9617316567635
 20
241.39238795325113
 10
68.99999999999999
 20
241.4
 10
69.1
 20
241.4
 10
70.69999999999997
 20
241.4
 10
70.79999999999998
 20
241.4
 10
70.8382683432365
 20
241.39238795325113
 10
70.87071067811866
 20
241.37071067811866
 10
70.89238795325113
 20
241.3382683432365
 10
70.89999999999999
 20
241.3
 10
70.89999999999999
 20
240.96909822162877
 10
70.88819212643483
 20
240.92195854794616
 10
70.86830489921269
 20
240.90001637401775
 10
70.8683305240999
 20
240.9
 10
70.8695442635008
 20
240.89922443403077
 10
70.89207178272979
 20
240.866389173541
 10
70.89999999999999
 20
240.82736627225265
 10
70.89999999999999
 20
240.5
 10
70.89238795325113
 20
240.4617316567635
 10
70.87071067811866
 20
240.42928932188136
  0
LWPOLYLINE
  5
3D
330
17
100
AcDbEntity
  8
0
100
AcDbPolyline
 90
31
 70
0
 10
135.65607793108313
 20
85.24827622430192
 10
135.6896761494034
 20
85.22751529157624
 10
135.9622036699026
 20
84.97247070440805
 10
136.03521751244477
 20
84.90414077833445
 10
137.00417411750456
 20
83.99734378084698
 10
137.42357105361432
 20
83.60485160892324
 10
137.08192142324626
 20
83.23978239621233
 10
136.7402717928782
 20
82.87471318350141
 10
136.33224116577134
 20
83.2565682073604
 10
135.35191825170867
 20
84.17400235291262
 10
135.27890440916647
 20
84.24233227898621
 10
135.01774319767017
 20
84.48673971808967
 10
134.99520531817305
 20
84.51800380721028
 10
134.98616493597993
 20
84.55546940170134
 10
134.9919649088115
 20
84.59357136485183
 10
135.01174370912057
 20
84.62665003379576
 10
135.21247112146534
 20
84.84968049194659
 10
135.24416877783338
 20
84.87324137441544
 10
135.28251637715806
 20
84.88269220654654
 10
135.3215322438419
 20
84.87655879405052
 10
135.35513046216218
 20
84.85579786132486
 10
135.35171859924654
 20
84.85899084956768
 10
135.3272189846223
 20
84.8948203355358
 10
135.32020829933995
 20
84.9376552917439
 10
135.33200734471575
 20
84.9794256844844
 10
135.35001191812785
 20
85.00025312105743
 10
135.34889289577612
 20
85.00126024117402
 10
135.54701680870656
 20
85.22139792219797
 10
135.5787144650746
 20
85.24495880466681
 10
135.61706206439928
 20
85.25440963679792
 10
135.65607793108313
 20
85.24827622430192
  0
LWPOLYLINE
  5
3E
330
17
100
AcDbEntity
  8
0
100
AcDbPolyline
 90
37
 70
0
 10
139.65861483800288
 20
121.65302669956048
 10
139.9586168427609
 20
121.45861871885687
 10
139.98299556476675
 20
121.43631622556397
 10
139.9987757836509
 20
121.40728679247121
 10
140.00423473615976
 20
121.3746996304097
 10
140.00423535575104
 20
121.31461534853582
 10
140.00423607267572
 20
121.24509224753342
 10
140.01330400268762
 20
121.28670287677213
 10
140.0388640259888
 20
121.32076689046964
 10
140.07628039318047
 20
121.34110619445285
 10
140.11876700318305
 20
121.34403190647379
 10
140.15861817926623
 20
121.32901339838779
 10
140.34081505704282
 20
121.2109457637144
 10
140.39004576204084
 20
121.19239244073219
 10
140.3973677111062
 20
121.1928966446307
 10
140.43769299305896
 20
121.18737057801245
 10
140.4724758411167
 20
121.16623247833844
 10
140.49595389987968
 20
121.1329842222404
 10
140.5042376397019
 20
121.09313393452004
 10
140.50425587746716
 20
119.32454377147113
 10
140.50425690867075
 20
119.22454377147645
 10
140.50426019582423
 20
118.90577514900974
 10
140.50438931519247
 20
106.38454563473431
 10
140.00438931521907
 20
106.38454047871636
 10
139.50438931524565
 20
106.38453532269841
 10
139.50425587752034
 20
119.32453345943523
 10
139.56257135307357
 20
119.3245340607865
 10
139.53404365587326
 20
119.34323487190349
 10
139.5120024273284
 20
119.3758477533575
 10
139.50425495039673
 20
119.41444040024385
 10
139.50423823832588
 20
121.03507778116841
 10
139.50423273141237
 20
121.56910554870612
 10
139.51330066142427
 20
121.61071617794482
 10
139.53886068472545
 20
121.64478019164234
 10
139.57627705191712
 20
121.66511949562555
 10
139.6187636619197
 20
121.66804520764649
 10
139.65861483800288
 20
121.65302669956048
  0
LWPOLYLINE
  5
3F
330
17
100
AcDbEntity
  8
0
100
AcDbPolyline
 90
43
 70
0
 10
84.90000000000006
 20
125.99999999999999
 10
84.93826834323657
 20
125.99238795325113
 10
84.97071067811872
 20
125.97071067811865
 10
84.9923879532512
 20
125.9382683432365
 10
85.00000000000007
 20
125.90000000000006
 10
85.00000000000006
 20
125.80000000000005
 10
85.00000000000004
 20
125.00000000000036
 10
85.00000000000003
 20
124.2000000000001
 10
85.00000000000004
 20
124.1000000000001
 10
84.99238795325117
 20
124.0617316567635
 10
84.97071067811869
 20
124.02928932188135
 10
84.93826834323654
 20
124.00761204674887
 10
84.90000000000003
 20
124.00000000000001
 10
84.60984914033575
 20
124.00000000000001
 10
84.59223254440278
 20
123.99649584119781
 10
84.55321447999954
 20
123.99649584119781
 10
84.51716648889919
 20
124.01142740800789
 10
84.50000000000004
 20
124.02859389690704
 10
84.49858017307508
 20
124.030013723832
 10
84.4663891735409
 20
124.0079282172702
 10
84.42736627225261
 20
124.00000000000001
 10
84.10000000000005
 20
124.00000000000001
 10
84.06173165676354
 20
124.00761204674887
 10
84.0292893218814
 20
124.02928932188135
 10
84.00761204674892
 20
124.0617316567635
 10
84.00000000000004
 20
124.10000000000011
 10
84.00000000000006
 20
124.20000000000012
 10
84.00000000000007
 20
125.00000000000084
 10
84.00000000000009
 20
125.80000000000007
 10
84.00000000000007
 20
125.90000000000008
 10
84.00761204674895
 20
125.9382683432365
 10
84.02928932188142
 20
125.97071067811865
 10
84.06173165676357
 20
125.99238795325113
 10
84.10000000000008
 20
125.99999999999999
 10
84.3901508596643
 20
125.99999999999999
 10
84.40776745559745
 20
126.00350415880222
 10
84.44678552000067
 20
126.0035041588022
 10
84.48283351110102
 20
125.98857259199212
 10
84.50000000000007
 20
125.97140610309307
 10
84.50141982692506
 20
125.96998627616809
 10
84.53361082645917
 20
125.99207178272981
 10
84.57263372774744
 20
125.99999999999999
 10
84.90000000000006
 20
125.99999999999999
  0
LWPOLYLINE
  5
40
330
17
100
AcDbEntity
  8
0
100
AcDbPolyline
 90
12
 70
0
 10
129.15884027728146
 20
129.35483306233377
 10
129.57869760406717
 20
129.08331911215006
 10
129.9985549308529
 20
128.8118051619664
 10
129.53471154011103
 20
128.09453797936916
 10
128.55724046260266
 20
126.58301935082221
 10
124.78590923186493
 20
120.75119727357801
 10
124.36605190507922
 20
121.0227112237617
 10
123.9461945782935
 20
121.29422517394539
 10
127.71793627501103
 20
127.12668197787269
 10
127.93194315281369
 20
127.45761287688245
 10
128.6953869320538
 20
128.63816902910253
 10
129.15884027728146
 20
129.35483306233377
  0
LWPOLYLINE
  5
41
330
17
100
AcDbEntity
  8
0
100
AcDbPolyline
 90
13
 70
0
 10
83.30579578168805
 20
180.37488865114506
 10
83.90262762540517
 20
180.37551792897932
 10
83.903236362236
 20
179.79816798070462
 10
83.90384509906681
 20
179.22081803242992
 10
83.90445383589764
 20
178.64346808415522
 10
83.30600665431193
 20
178.64283710316727
 10
81.50600665431195
 20
178.6409392484974
 10
80.90327359234718
 20
178.6403037486328
 10
80.90266485551635
 20
179.2176536969075
 10
80.90205611868552
 20
179.7950036451822
 10
80.90144738185471
 20
180.3723535934569
 10
81.50575381640674
 20
180.3729907522285
 10
83.30579578168805
 20
180.37488865114506
  0
LWPOLYLINE
  5
42
330
17
100
AcDbEntity
  8
0
100
AcDbPolyline
 90
5
 70
0
 10
25.122147195967695
 20
52.54214719596769
 10
25.122147195967695
 20
399.15785280403236
 10
221.73785280403231
 20
399.15785280403236
 10
221.73785280403231
 20
52.54214719596769
 10
25.122147195967695
 20
52.54214719596769
  0
LWPOLYLINE
  5
43
330
17
100
AcDbEntity
  8
0
100
AcDbPolyline
 90
76
 70
0
 10
75.00000000000001
 20
120.5000000000001
 10
75.5
 20
120.5000000000001
 10
79.74999999999994
 20
120.50000000000013
 10
84.50000000000001
 20
120.50000000000017
 10
85.00000000000001
 20
120.50000000000017
 10
89.50000000000009
 20
120.5000000000002
 10
89.5
 20
129.5000000000003
 10
85.0000000000001
 20
129.5
 10
84.5000000000001
 20
129.5
 10
84.50000000000001
 20
130.0
 10
84.49999999999994
 20
134.5000000000002
 10
75.49999999999993
 20
134.5000000000001
 10
75.5
 20
130.0
 10
75.49999999999999
 20
129.5
 10
75.46193976625567
 20
129.30865828381758
 10
75.35355339059329
 20
129.14644660940684
 10
75.19134171618256
 20
129.03806023374446
 10
75.00000000000003
 20
129.0000000000001
 10
74.80865828381748
 20
129.03806023374446
 10
74.64644660940675
 20
129.14644660940684
 10
74.53806023374437
 20
129.30865828381755
 10
74.50000000000001
 20
129.5000000000001
 10
74.5
 20
130.0
 10
74.5
 20
130.33333333333346
 10
74.5
 20
130.5
 10
74.49999999999993
 20
134.5000000000001
 10
74.53806023374429
 20
134.69134171618265
 10
74.64644660940665
 20
134.8535533905934
 10
74.80865828381738
 20
134.96193976625577
 10
74.99999999999993
 20
135.0000000000001
 10
74.99999999999996
 20
140.0
 10
74.99999999999996
 20
140.5
 10
75.0
 20
150.0
 10
60.0
 20
150.0
 10
60.00000000000001
 20
140.5
 10
60.00000000000001
 20
140.0
 10
60.00000000000001
 20
139.5
 10
60.00000000000001
 20
135.0
 10
60.191341716182556
 20
134.96193976625565
 10
60.353553390593284
 20
134.85355339059328
 10
60.461939766255654
 20
134.69134171618254
 10
60.50000000000001
 20
134.5
 10
60.49999999999999
 20
130.5
 10
60.49999999999999
 20
130.0
 10
60.49999999999999
 20
129.5
 10
60.46193976625563
 20
129.30865828381746
 10
60.35355339059326
 20
129.14644660940672
 10
60.191341716182535
 20
129.03806023374435
 10
59.99999999999999
 20
129.0
 10
59.808658283817444
 20
129.03806023374435
 10
59.646446609406716
 20
129.14644660940672
 10
59.538060233744346
 20
129.30865828381746
 10
59.49999999999999
 20
129.5
 10
59.50000000000001
 20
134.5
 10
50.5
 20
134.5
 10
50.49999999999997
 20
130.0
 10
50.49999999999997
 20
129.5
 10
49.99999999999997
 20
129.5
 10
45.50000000000001
 20
129.5
 10
45.5
 20
120.5
 10
50.00000000000006
 20
120.5
 10
50.50000000000006
 20
120.5
 10
51.00000000000006
 20
120.5
 10
59.49999999999999
 20
120.5
 10
60.0
 20
120.5
 10
60.0
 20
80.86602540378443
 10
60.0
 20
80.28867513459481
 10
60.0
 20
79.71132486540519
 10
60.0
 20
79.13397459621557
 10
60.0
 20
70.0
 10
75.0
 20
70.0
 10
75.0
 20
79.13397459621557
 10
75.0
 20
79.71132486540519
 10
75.0
 20
80.28867513459481
 10
75.0
 20
80.86602540378443
 10
75.00000000000001
 20
120.5000000000001
  0
LWPOLYLINE
  5
44
330
17
100
AcDbEntity
  8
0
100
AcDbPolyline
 90
74
 70
0
 10
74.39999999999999
 20
231.9
 10
74.89999999999999
 20
231.9
 10
74.9
 20
180.3660258851571
 10
74.9
 20
179.78867529505237
 10
74.9
 20
179.5
 10
74.9
 20
169.5
 10
89.90590121775234
 20
169.5158216776121
 10
89.90590121775234
 20
178.64979579245502
 10
89.90590121775234
 20
179.22714638255974
 10
89.90590121775234
 20
179.5158216776121
 10
89.90590121775234
 20
231.9000000000001
 10
90.4
 20
231.9000000000001
 10
94.62477094238993
 20
231.90000000000015
 10
99.40000000000002
 20
231.90000000000023
 10
99.90000000000002
 20
231.90000000000023
 10
104.4000000000001
 20
231.9000000000003
 10
104.4
 20
240.9000000000003
 10
99.9000000000001
 20
240.9
 10
99.4000000000001
 20
240.9
 10
99.40000000000002
 20
241.4
 10
99.39999999999995
 20
245.9000000000002
 10
90.39999999999993
 20
245.9
 10
90.4
 20
241.4
 10
90.4
 20
240.9
 10
90.36193976625567
 20
240.70865828381756
 10
90.2535533905933
 20
240.54644660940681
 10
90.09134171618257
 20
240.43806023374444
 10
89.90000000000003
 20
240.4000000000001
 10
89.70865828381748
 20
240.43806023374444
 10
89.54644660940676
 20
240.54644660940681
 10
89.43806023374438
 20
240.70865828381753
 10
89.40000000000002
 20
240.9000000000001
 10
89.4
 20
241.4
 10
89.4
 20
241.73333333333343
 10
89.4
 20
241.9
 10
89.39999999999993
 20
245.9000000000001
 10
89.4380602337443
 20
246.09134171618263
 10
89.54644660940666
 20
246.25355339059337
 10
89.70865828381739
 20
246.36193976625574
 10
89.9
 20
246.40000000000006
 10
89.89999999999993
 20
251.4
 10
89.89999999999993
 20
251.7571428571429
 10
89.89999999999993
 20
251.9
 10
89.8999999999998
 20
261.4
 10
74.9
 20
261.4
 10
74.90000000000002
 20
251.9000000000001
 10
74.90000000000002
 20
251.4000000000001
 10
74.90000000000002
 20
250.9000000000001
 10
74.90000000000002
 20
246.4000000000001
 10
75.09134171618257
 20
246.36193976625574
 10
75.2535533905933
 20
246.25355339059337
 10
75.36193976625566
 20
246.09134171618263
 10
75.40000000000002
 20
245.9000000000001
 10
75.39999999999999
 20
241.9
 10
75.39999999999999
 20
241.4
 10
75.39999999999999
 20
240.9
 10
75.36193976625563
 20
240.70865828381747
 10
75.25355339059327
 20
240.54644660940673
 10
75.09134171618254
 20
240.43806023374435
 10
74.89999999999999
 20
240.4
 10
74.70865828381744
 20
240.43806023374435
 10
74.54644660940671
 20
240.54644660940673
 10
74.43806023374435
 20
240.70865828381747
 10
74.39999999999999
 20
240.9
 10
74.40000000000002
 20
245.9
 10
65.4
 20
245.9
 10
65.39999999999998
 20
241.4
 10
65.39999999999998
 20
240.9
 10
60.40000000000001
 20
240.9000000000001
 10
60.40000000000001
 20
231.9
 10
64.90000000000006
 20
231.9
 10
65.40000000000006
 20
231.9
 10
65.90000000000006
 20
231.9
 10
74.39999999999999
 20
231.9
  0
LWPOLYLINE
  5
45
330
17
100
AcDbEntity
  8
0
100
AcDbPolyline
 90
60
 70
0
 10
140.0
 20
70.0
 10
170.0
 20
70.0
 10
170.0046561906697
 20
80.50454420524274
 10
176.3390963996104
 20
73.73410539599877
 10
183.5954218368299
 20
80.62035095889829
 10
177.3068369185586
 20
87.33809547742399
 10
177.3115859561186
 20
87.34254047125796
 10
196.07
 20
104.9
 10
196.0929893274398
 20
104.95282280579683
 10
196.30933487624793
 20
105.4499221202338
 10
201.31
 20
116.94
 10
183.0595442661608
 20
145.1745355623686
 10
170.5053233674741
 20
145.2033858611101
 10
170.0053233792963
 20
145.2045348889268
 10
170.0000160406552
 20
275.60588099392055
 10
170.0000086009282
 20
275.7886751366045
 10
170.0
 20
275.9999999999999
 10
170.0000757461037
 20
275.9999841120788
 10
170.011508166739
 20
275.9975861353047
 10
170.58750511760257
 20
275.87676943740684
 10
182.41555582462823
 20
273.39580833709425
 10
201.36
 20
291.4400000000001
 10
198.97362336295913
 20
303.83006749951625
 10
198.86001404176312
 20
304.41992709516603
 10
198.86
 20
304.42
 10
198.85942173047096
 20
304.42052857762224
 10
198.67618909372285
 20
304.58801565168375
 10
170.5046561906697
 20
330.3387099684732
 10
170.0046561906697
 20
330.79574392550717
 10
170.0
 20
330.8000000000001
 10
170.0
 20
331.3
 10
170.0
 20
331.58867513790756
 10
170.0
 20
332.16602541372265
 10
170.0
 20
381.7
 10
140.0
 20
381.7
 10
139.9732410859071
 20
330.8121617357967
 10
139.96492187652078
 20
330.8045442052427
 10
139.5046561906697
 20
330.38309935848815
 10
111.51885383854133
 20
304.75774307804727
 10
111.15516558191304
 20
304.4247298939388
 10
111.15
 20
304.42
 10
111.14987591645729
 20
304.4193583249464
 10
111.0358848518241
 20
303.8298746520625
 10
108.64
 20
291.4400000000001
 10
127.1
 20
273.3
 10
139.41710010622302
 20
275.8814048220646
 10
140.0046561906697
 20
276.0045442052428
 10
140.00465355139144
 20
275.4871228841285
 10
140.0046521677718
 20
275.2158690679447
 10
140.00464922280614
 20
274.6385187925757
 10
140.0039890020431
 20
145.2045348889268
 10
126.9840190409454
 20
145.2092429250455
 10
108.7
 20
117.0
 10
113.9352916130129
 20
104.8940530835162
 10
132.6931630814414
 20
87.33809547742399
 10
126.4039737169042
 20
80.6249088093613
 10
133.6610136101338
 20
73.73917835972053
 10
139.662372044323
 20
80.14006880362848
 10
140.0000982821634
 20
80.5002786914656
 10
140.0
 20
70.0
  0
LWPOLYLINE
  5
46
330
17
100
AcDbEntity
  8
0
100
AcDbPolyline
 90
29
 70
0
 10
89.9
 20
235.30000000000004
 10
89.4
 20
235.30000000000004
 10
89.40000000000002
 20
235.5
 10
89.40000000000002
 20
236.90000000000006
 10
89.4
 20
237.00000000000006
 10
89.40000000000002
 20
237.3
 10
89.40761204674888
 20
237.3382683432365
 10
89.42928932188136
 20
237.37071067811866
 10
89.4617316567635
 20
237.39238795325113
 10
89.50000000000001
 20
237.4
 10
89.8
 20
237.4
 10
89.8382683432365
 20
237.39238795325113
 10
89.87071067811866
 20
237.37071067811866
 10
89.89238795325113
 20
237.3382683432365
 10
89.89999999999999
 20
237.3
 10
89.90761204674888
 20
237.3382683432365
 10
89.92928932188136
 20
237.37071067811866
 10
89.9617316567635
 20
237.39238795325113
 10
90.00000000000001
 20
237.4
 10
90.3
 20
237.4
 10
90.3382683432365
 20
237.39238795325113
 10
90.37071067811866
 20
237.37071067811866
 10
90.39238795325113
 20
237.3382683432365
 10
90.39999999999999
 20
237.3
 10
90.4
 20
237.00000000000006
 10
90.39999999999999
 20
236.90000000000006
 10
90.39999999999999
 20
235.5
 10
90.4
 20
235.30000000000004
 10
89.9
 20
235.30000000000004
  0
LWPOLYLINE
  5
47
330
17
100
AcDbEntity
  8
0
100
AcDbPolyline
 90
65
 70
0
 10
94.42860326317401
 20
235.51807873565164
 10
94.3444297669804
 20
235.56853038769745
 10
94.26560671583636
 20
235.62698954663728
 10
94.19289321881345
 20
235.69289321881345
 10
94.12698954663726
 20
235.76560671583636
 10
94.06853038769746
 20
235.8444297669804
 10
94.01807873565166
 20
235.928603263174
 10
93.97612046748871
 20
236.0173165676349
 10
93.94305966426779
 20
236.10971532274553
 10
93.91921471959678
 20
236.20490967798386
 10
93.90481527332781
 20
236.30198285967043
 10
93.9
 20
236.4
 10
93.90481527332781
 20
236.49801714032958
 10
93.91921471959678
 20
236.59509032201615
 10
93.94305966426779
 20
236.69028467725448
 10
93.97612046748871
 20
236.7826834323651
 10
94.01807873565166
 20
236.871396736826
 10
94.06853038769746
 20
236.9555702330196
 10
94.12698954663726
 20
237.03439328416366
 10
94.19289321881345
 20
237.10710678118656
 10
94.26560671583636
 20
237.17301045336274
 10
94.3444297669804
 20
237.23146961230256
 10
94.42860326317401
 20
237.28192126434837
 10
94.51731656763492
 20
237.32387953251128
 10
94.60971532274554
 20
237.35694033573222
 10
94.70490967798388
 20
237.38078528040324
 10
94.80198285967045
 20
237.3951847266722
 10
94.9
 20
237.4
 10
94.99801714032957
 20
237.3951847266722
 10
95.09509032201613
 20
237.38078528040324
 10
95.19028467725447
 20
237.35694033573222
 10
95.28268343236509
 20
237.32387953251128
 10
95.371396736826
 20
237.28192126434837
 10
95.45557023301961
 20
237.23146961230256
 10
95.53439328416366
 20
237.17301045336274
 10
95.60710678118656
 20
237.10710678118656
 10
95.67301045336274
 20
237.03439328416366
 10
95.73146961230255
 20
236.9555702330196
 10
95.78192126434836
 20
236.871396736826
 10
95.8238795325113
 20
236.7826834323651
 10
95.85694033573222
 20
236.69028467725448
 10
95.88078528040323
 20
236.59509032201615
 10
95.8951847266722
 20
236.49801714032958
 10
95.9
 20
236.4
 10
95.8951847266722
 20
236.30198285967043
 10
95.88078528040323
 20
236.20490967798386
 10
95.85694033573222
 20
236.10971532274553
 10
95.8238795325113
 20
236.0173165676349
 10
95.78192126434836
 20
235.928603263174
 10
95.73146961230255
 20
235.8444297669804
 10
95.67301045336275
 20
235.76560671583636
 10
95.60710678118656
 20
235.69289321881345
 10
95.53439328416366
 20
235.62698954663728
 10
95.45557023301961
 20
235.56853038769745
 10
95.371396736826
 20
235.51807873565164
 10
95.28268343236509
 20
235.47612046748873
 10
95.19028467725447
 20
235.4430596642678
 10
95.09509032201613
 20
235.41921471959677
 10
94.99801714032957
 20
235.4048152733278
 10
94.9
 20
235.4
 10
94.80198285967045
 20
235.4048152733278
 10
94.70490967798388
 20
235.41921471959677
 10
94.60971532274554
 20
235.4430596642678
 10
94.51731656763492
 20
235.47612046748873
 10
94.42860326317401
 20
235.51807873565164
  0
LWPOLYLINE
  5
48
330
17
100
AcDbEntity
  8
0
100
AcDbPolyline
 90
43
 70
0
 10
98.92928932188143
 20
237.37071067811866
 10
98.96173165676358
 20
237.39238795325113
 10
99.00000000000009
 20
237.4
 10
99.29015085966434
 20
237.4
 10
99.30776745559749
 20
237.40350415880224
 10
99.34678552000071
 20
237.4035041588022
 10
99.38283351110105
 20
237.38857259199213
 10
99.40000000000008
 20
237.3714061030931
 10
99.40141982692505
 20
237.36998627616813
 10
99.43361082645924
 20
237.39207178272986
 10
99.47263372774744
 20
237.4
 10
99.80000000000007
 20
237.4
 10
99.83826834323658
 20
237.39238795325113
 10
99.87071067811873
 20
237.37071067811866
 10
99.8923879532512
 20
237.3382683432365
 10
99.90000000000008
 20
237.3000000000001
 10
99.90000000000006
 20
237.2000000000001
 10
99.90000000000005
 20
236.40000000000046
 10
99.90000000000003
 20
235.60000000000014
 10
99.90000000000005
 20
235.50000000000014
 10
99.89238795325117
 20
235.4617316567635
 10
99.8707106781187
 20
235.42928932188136
 10
99.83826834323655
 20
235.40761204674888
 10
99.80000000000004
 20
235.4
 10
99.50984914033579
 20
235.4
 10
99.49223254440278
 20
235.3964958411978
 10
99.45321447999956
 20
235.3964958411978
 10
99.41716648889923
 20
235.41142740800788
 10
99.40000000000005
 20
235.42859389690707
 10
99.3985801730751
 20
235.43001372383202
 10
99.36638917354091
 20
235.4079282172702
 10
99.3273662722526
 20
235.4
 10
99.00000000000006
 20
235.4
 10
98.96173165676355
 20
235.40761204674888
 10
98.9292893218814
 20
235.42928932188136
 10
98.90761204674892
 20
235.4617316567635
 10
98.90000000000005
 20
235.50000000000014
 10
98.90000000000006
 20
235.60000000000014
 10
98.90000000000008
 20
236.40000000000103
 10
98.90000000000009
 20
237.2000000000001
 10
98.90000000000008
 20
237.3000000000001
 10
98.90761204674895
 20
237.3382683432365
 10
98.92928932188143
 20
237.37071067811866
  0
LWPOLYLINE
  5
49
330
17
100
AcDbEntity
  8
0
100
AcDbPolyline
 90
37
 70
0
 10
94.00000000000004
 20
240.4
 10
93.9617316567635
 20
240.40761204674888
 10
93.92928932188136
 20
240.42928932188136
 10
93.90761204674888
 20
240.4617316567635
 10
93.90000000000002
 20
240.5
 10
93.90000000000002
 20
240.83147349946813
 10
93.90720010878078
 20
240.86873178968253
 10
93.92736075146702
 20
240.9
 10
93.92776360379402
 20
240.90062480504633
 10
93.9296448802864
 20
240.90195743933475
 10
93.90792821727022
 20
240.93361082645905
 10
93.90000000000002
 20
240.9726337277474
 10
93.90000000000002
 20
241.3
 10
93.90761204674888
 20
241.3382683432365
 10
93.92928932188136
 20
241.37071067811866
 10
93.9617316567635
 20
241.39238795325113
 10
94.00000000000004
 20
241.4
 10
94.10000000000004
 20
241.4
 10
95.70000000000006
 20
241.4
 10
95.80000000000007
 20
241.4
 10
95.8382683432365
 20
241.39238795325113
 10
95.87071067811866
 20
241.37071067811866
 10
95.89238795325113
 20
241.3382683432365
 10
95.89999999999999
 20
241.3
 10
95.89999999999999
 20
240.96852650053182
 10
95.89279989121921
 20
240.9312682103174
 10
95.87263924853302
 20
240.9
 10
95.89279989121921
 20
240.8687317896826
 10
95.89999999999999
 20
240.8314734994682
 10
95.89999999999999
 20
240.5
 10
95.89238795325113
 20
240.4617316567635
 10
95.87071067811866
 20
240.42928932188136
 10
95.8382683432365
 20
240.40761204674888
 10
95.80000000000007
 20
240.4
 10
95.70000000000006
 20
240.4
 10
94.10000000000005
 20
240.4
 10
94.00000000000004
 20
240.4
  0
LWPOLYLINE
  5
4A
330
17
100
AcDbEntity
  8
0
100
AcDbPolyline
 90
11
 70
0
 10
83.8
 20
241.4
 10
83.8
 20
240.9
 10
83.30590121799999
 20
240.9
 10
81.505901218
 20
240.9
 10
81.0
 20
240.9
 10
81.0
 20
241.4
 10
81.0
 20
241.9
 10
81.505901218
 20
241.9
 10
83.30590121799999
 20
241.9
 10
83.8
 20
241.9
 10
83.8
 20
241.4
  0
LWPOLYLINE
  5
4B
330
17
100
AcDbEntity
  8
0
100
AcDbPolyline
 90
13
 70
0
 10
83.89999999999996
 20
250.90000000000003
 10
83.30590121799999
 20
250.90000000000003
 10
82.41475304500004
 20
250.90000000000003
 10
81.505901218
 20
250.90000000000006
 10
80.89999999999998
 20
250.90000000000006
 10
80.89999999999999
 20
251.40000000000006
 10
80.89999999999999
 20
251.90000000000006
 10
81.505901218
 20
251.90000000000006
 10
82.41475304500001
 20
251.90000000000003
 10
83.30590121799999
 20
251.90000000000003
 10
83.89999999999998
 20
251.90000000000003
 10
83.89999999999998
 20
251.40000000000003
 10
83.89999999999996
 20
250.90000000000003
  0
LWPOLYLINE
  5
4C
330
17
100
AcDbEntity
  8
0
100
AcDbPolyline
 90
11
 70
0
 10
127.0965485916579
 20
289.4175707871192
 10
128.81357099144563
 20
287.72672885847913
 10
128.46274408098475
 20
287.37046985312423
 10
128.11191717052384
 20
287.01421084776933
 10
126.29076113947359
 20
288.8075986196915
 10
124.98700264543812
 20
290.09147792540597
 10
122.34096111568135
 20
292.69717367171006
 10
122.69178802614225
 20
293.05343267706496
 10
123.04261493660314
 20
293.40969168241986
 10
125.78713172934559
 20
290.70702218457313
 10
127.0965485916579
 20
289.4175707871192
  0
LWPOLYLINE
  5
4D
330
17
100
AcDbEntity
  8
0
100
AcDbPolyline
 90
65
 70
0
 10
114.0046561906697
 20
304.0045442052428
 10
114.00947146399751
 20
304.1025613455723
 10
114.02387091026648
 20
304.1996345272589
 10
114.0477158549375
 20
304.29482888249726
 10
114.08077665815841
 20
304.38722763760785
 10
114.12273492632136
 20
304.4759409420688
 10
114.17318657836717
 20
304.56011443826236
 10
114.23164573730696
 20
304.63893748940643
 10
114.29754940948315
 20
304.71165098642933
 10
114.37026290650606
 20
304.77755465860554
 10
114.4490859576501
 20
304.83601381754534
 10
114.53325945384371
 20
304.88646546959114
 10
114.62197275830462
 20
304.9284237377541
 10
114.71437151341524
 20
304.961484540975
 10
114.80956586865358
 20
304.985329485646
 10
114.90663905034015
 20
304.999728931915
 10
115.0046561906697
 20
305.0045442052428
 10
115.10267333099927
 20
304.999728931915
 10
115.19974651268583
 20
304.985329485646
 10
115.29494086792417
 20
304.961484540975
 10
115.38733962303479
 20
304.9284237377541
 10
115.4760529274957
 20
304.88646546959114
 10
115.56022642368931
 20
304.83601381754534
 10
115.63904947483336
 20
304.77755465860554
 10
115.71176297185626
 20
304.71165098642933
 10
115.77766664403244
 20
304.63893748940643
 10
115.83612580297225
 20
304.56011443826236
 10
115.88657745501806
 20
304.4759409420688
 10
115.928535723181
 20
304.38722763760785
 10
115.96159652640192
 20
304.29482888249726
 10
115.98544147107293
 20
304.1996345272589
 10
115.9998409173419
 20
304.1025613455723
 10
116.0046561906697
 20
304.0045442052428
 10
115.9998409173419
 20
303.90652706491323
 10
115.98544147107293
 20
303.80945388322664
 10
115.96159652640192
 20
303.7142595279883
 10
115.928535723181
 20
303.6218607728777
 10
115.88657745501806
 20
303.53314746841676
 10
115.83612580297225
 20
303.4489739722232
 10
115.77766664403245
 20
303.37015092107913
 10
115.71176297185626
 20
303.2974374240562
 10
115.63904947483336
 20
303.23153375188
 10
115.56022642368931
 20
303.1730745929402
 10
115.4760529274957
 20
303.1226229408944
 10
115.38733962303479
 20
303.0806646727315
 10
115.29494086792417
 20
303.04760386951057
 10
115.19974651268583
 20
303.02375892483957
 10
115.10267333099927
 20
303.00935947857056
 10
115.0046561906697
 20
303.0045442052428
 10
114.90663905034015
 20
303.00935947857056
 10
114.80956586865358
 20
303.02375892483957
 10
114.71437151341524
 20
303.04760386951057
 10
114.62197275830462
 20
303.0806646727315
 10
114.53325945384371
 20
303.1226229408944
 10
114.4490859576501
 20
303.1730745929402
 10
114.37026290650606
 20
303.23153375188
 10
114.29754940948315
 20
303.2974374240562
 10
114.23164573730696
 20
303.37015092107913
 10
114.17318657836717
 20
303.4489739722232
 10
114.12273492632136
 20
303.53314746841676
 10
114.08077665815841
 20
303.6218607728777
 10
114.0477158549375
 20
303.7142595279883
 10
114.02387091026648
 20
303.80945388322664
 10
114.00947146399751
 20
303.90652706491323
 10
114.0046561906697
 20
304.0045442052428
  0
LWPOLYLINE
  5
4E
330
17
100
AcDbEntity
  8
0
100
AcDbPolyline
 90
13
 70
0
 10
155.78553667769566
 20
80.8681788625767
 10
158.0019936765355
 20
80.86784307594331
 10
158.00190620969042
 20
80.29049281337916
 10
158.00181874284533
 20
79.71314255081502
 10
158.00173127600027
 20
79.13579228825088
 10
155.7848899171749
 20
79.13612813311363
 10
153.9848796298716
 20
79.13640082931063
 10
152.0026625141342
 20
79.13670112929942
 10
152.00274998097927
 20
79.71405139186358
 10
152.00283744782436
 20
80.29140165442772
 10
152.00292491466942
 20
80.86875191699185
 10
153.98553663829702
 20
80.86845155722116
 10
155.78553667769566
 20
80.8681788625767
  0
LWPOLYLINE
  5
4F
330
17
100
AcDbEntity
  8
0
100
AcDbPolyline
 90
32
 70
0
 10
174.9921394691499
 20
84.48727341914388
 10
174.7304079721729
 20
84.24233227898621
 10
174.65739412963072
 20
84.17400235291262
 10
173.67707121538382
 20
83.256568207188
 10
173.2690405884612
 20
82.87471318350141
 10
172.92739095809313
 20
83.23978239621233
 10
172.5857413277251
 20
83.60485160892325
 10
173.00456797798572
 20
83.99681007944795
 10
173.97409486889464
 20
84.90414077833445
 10
174.0471087114368
 20
84.97247070440805
 10
174.31963623175176
 20
85.22751529140382
 10
174.35323445007202
 20
85.2482762241295
 10
174.39225031675585
 20
85.2544096366255
 10
174.43059791608053
 20
85.2449588044944
 10
174.46229557244857
 20
85.22139792202555
 10
174.66041948537904
 20
85.0012602410016
 10
174.65930046302734
 20
85.00025312088502
 10
174.67730503643944
 20
84.97942568431198
 10
174.68910408181523
 20
84.93765529157147
 10
174.68209339653288
 20
84.89482033536338
 10
174.65759378190864
 20
84.85899084939525
 10
174.654181918993
 20
84.85579786115244
 10
174.6877801373133
 20
84.8765587938781
 10
174.72679600399712
 20
84.88269220637412
 10
174.7651436033218
 20
84.87324137424302
 10
174.79684125968984
 20
84.84968049177417
 10
174.99496517262028
 20
84.62954281075024
 10
174.99384615026858
 20
84.62853569063365
 10
175.01185072368077
 20
84.60770825406041
 10
175.02364976905648
 20
84.56593786131995
 10
175.01663908377412
 20
84.52310290511194
 10
174.9921394691499
 20
84.48727341914388
  0
LWPOLYLINE
  5
50
330
17
100
AcDbEntity
  8
0
100
AcDbPolyline
 90
31
 70
0
 10
169.93329322702678
 20
121.24098778424359
 10
169.97058507771865
 20
121.22060601272332
 10
169.99604521157437
 20
121.18657837215898
 10
170.0050752770305
 20
121.1450505904197
 10
170.0050763477745
 20
121.24888498289894
 10
170.00507660024766
 20
121.27336833308408
 10
170.01058513613216
 20
121.30609898699316
 10
170.02650322657814
 20
121.33522378861412
 10
170.0510772715904
 20
121.35753423425383
 10
170.35107925640023
 20
121.55000775463967
 10
170.3909082439636
 20
121.56483173818002
 10
170.43329653504313
 20
121.5617769848866
 10
170.470588385735
 20
121.54139521336634
 10
170.49604851959072
 20
121.507367572802
 10
170.50507858504685
 20
121.46583979106272
 10
170.50505653150765
 20
119.32721853225605
 10
170.5046046372571
 20
119.32453346409488
 10
170.50505650381908
 20
119.32453345943522
 10
170.50492306609377
 20
106.38453532269841
 10
170.00492306612034
 20
106.38454047871636
 10
169.50492306614692
 20
106.38454563473431
 10
169.50505123869212
 20
118.81395787361873
 10
169.50505547266866
 20
119.22454377147643
 10
169.50505650387225
 20
119.32454377147111
 10
169.50507329223134
 20
120.95257913244106
 10
169.51058182811585
 20
120.98530978635014
 10
169.52649991856183
 20
121.0144345879711
 10
169.55107396357408
 20
121.03674503361081
 10
169.85107594838388
 20
121.22921855399665
 10
169.89090493594725
 20
121.244042537537
 10
169.93329322702678
 20
121.24098778424359
  0
LWPOLYLINE
  5
51
330
17
100
AcDbEntity
  8
0
100
AcDbPolyline
 90
12
 70
0
 10
182.3704819497636
 20
127.00435615286304
 10
186.06311780304588
 20
121.2942251739454
 10
185.64326047626017
 20
121.02271122376172
 10
185.22340314947445
 20
120.75119727357801
 10
181.52919917338846
 20
126.46375312918425
 10
180.9562864890389
 20
127.34968030887396
 10
180.5517425849618
 20
127.97524935244742
 10
180.0107574504865
 20
128.8118051619664
 10
180.4306147772722
 20
129.08331911215006
 10
180.85047210405793
 20
129.35483306233377
 10
181.3929472533907
 20
128.51597315884644
 10
182.3704819497636
 20
127.00435615286304
  0
LWPOLYLINE
  5
52
330
17
100
AcDbEntity
  8
0
100
AcDbPolyline
 90
14
 70
0
 10
158.00190620969042
 20
145.99049281337918
 10
158.00181874284533
 20
145.41314255081505
 10
158.00173127600027
 20
144.8357922882509
 10
155.81176551578
 20
144.83612406154052
 10
154.2015909918731
 20
144.8363679981848
 10
154.0117552294122
 20
144.8363967577374
 10
152.0026625141342
 20
144.83670112929946
 10
152.00274998097927
 20
145.4140513918636
 10
152.00283744782436
 20
145.99140165442773
 10
152.00292491466945
 20
146.56875191699189
 10
154.0124122378477
 20
146.5684474856479
 10
155.8124122763132
 20
146.56817479100357
 10
158.0019936765355
 20
146.56784307594333
 10
158.00190620969042
 20
145.99049281337918
  0
LWPOLYLINE
  5
53
330
17
100
AcDbEntity
  8
0
100
AcDbPolyline
 90
14
 70
0
 10
155.83179947419566
 20
193.8361210264555
 10
154.03179943554744
 20
193.83639372109985
 10
152.0026625141342
 20
193.83670112929946
 10
152.00274998097927
 20
194.4140513918636
 10
152.00283744782436
 20
194.99140165442773
 10
152.00292491466945
 20
195.56875191699189
 10
154.03244619607491
 20
195.5684444505629
 10
155.5593088704098
 20
195.56821313541565
 10
155.83245648263713
 20
195.568171754366
 10
158.0019936765355
 20
195.56784307594333
 10
158.00190620969042
 20
194.99049281337918
 10
158.00181874284533
 20
194.41314255081505
 10
158.00173127600027
 20
193.8357922882509
 10
155.83179947419566
 20
193.8361210264555
  0
LWPOLYLINE
  5
54
330
17
100
AcDbEntity
  8
0
100
AcDbPolyline
 90
14
 70
0
 10
152.0026625141342
 20
233.13670112929947
 10
152.00274998097927
 20
233.71405139186362
 10
152.00283744782436
 20
234.29140165442774
 10
152.00292491466945
 20
234.8687519169919
 10
154.04852246752625
 20
234.86844201505568
 10
154.9050542987488
 20
234.8683122530345
 10
155.84853275423973
 20
234.86816931885875
 10
158.0019936765355
 20
234.86784307594334
 10
158.00190620969042
 20
234.2904928133792
 10
158.00181874284533
 20
233.71314255081506
 10
158.00173127600027
 20
233.1357922882509
 10
155.84787574579832
 20
233.13611859094823
 10
154.04787570699878
 20
233.13639128559262
 10
152.0026625141342
 20
233.13670112929947
  0
LWPOLYLINE
  5
55
330
17
100
AcDbEntity
  8
0
100
AcDbPolyline
 90
13
 70
0
 10
154.06550893083457
 20
276.368439441657
 10
155.86550896979975
 20
276.3681667470126
 10
158.0019936765355
 20
276.3678430759433
 10
158.00190620969042
 20
275.79049281337916
 10
158.00181874284533
 20
275.21314255081506
 10
158.00173127600027
 20
274.6357922882509
 10
155.86485196135834
 20
274.6361160191022
 10
154.06485192239907
 20
274.6363887137466
 10
152.0026625141342
 20
274.63670112929947
 10
152.00274998097927
 20
275.2140513918636
 10
152.00283744782436
 20
275.7914016544277
 10
152.00292491466945
 20
276.36875191699187
 10
154.06550893083457
 20
276.368439441657
  0
LWPOLYLINE
  5
56
330
17
100
AcDbEntity
  8
0
100
AcDbPolyline
 90
11
 70
0
 10
183.77413614310953
 20
290.26580927924806
 10
185.09303655999182
 20
291.56459962982314
 10
186.96704399086482
 20
293.41003294455163
 10
187.31787090132573
 20
293.05377393919673
 10
187.66869781178664
 20
292.69751493384183
 10
185.9147290232686
 20
290.970289960237
 10
184.59582860638886
 20
289.6714996096645
 10
181.89762624156793
 20
287.0144383558572
 10
181.54679933110705
 20
287.3706973612121
 10
181.19597242064617
 20
287.726956366567
 10
183.77413614310953
 20
290.26580927924806
  0
LWPOLYLINE
  5
57
330
17
100
AcDbEntity
  8
0
100
AcDbPolyline
 90
11
 70
0
 10
170.0046561906697
 20
297.92102409334854
 10
169.5046561906697
 20
297.92102409334854
 10
169.5046561906697
 20
299.44586028783357
 10
169.5046561906697
 20
301.5923875090313
 10
169.5046561906697
 20
308.8792640374014
 10
170.0046561906697
 20
308.8792640374014
 10
170.5046561906697
 20
308.8792640374014
 10
170.5046561906697
 20
301.07263845110697
 10
170.5046561906697
 20
298.9261112299144
 10
170.5046561906697
 20
297.92102409334854
 10
170.0046561906697
 20
297.92102409334854
  0
LWPOLYLINE
  5
58
330
17
100
AcDbEntity
  8
0
100
AcDbPolyline
 90
11
 70
0
 10
139.5046561906697
 20
308.8845442052427
 10
140.0046561906697
 20
308.8845442052427
 10
140.5046561906697
 20
308.8845442052427
 10
140.5046561906697
 20
300.9439997942903
 10
140.5046561906697
 20
298.7442590612682
 10
140.5046561906697
 20
297.92454420524274
 10
140.0046561906697
 20
297.92454420524274
 10
139.5046561906697
 20
297.92454420524274
 10
139.5046561906697
 20
298.18227680311014
 10
139.5046561906697
 20
300.38201753617943
 10
139.5046561906697
 20
308.8845442052427
  0
LWPOLYLINE
  5
59
330
17
100
AcDbEntity
  8
0
100
AcDbPolyline
 90
65
 70
0
 10
194.0046561906697
 20
304.0045442052428
 10
194.0094714639975
 20
304.1025613455723
 10
194.02387091026645
 20
304.1996345272589
 10
194.04771585493748
 20
304.29482888249726
 10
194.0807766581584
 20
304.38722763760785
 10
194.12273492632133
 20
304.4759409420688
 10
194.17318657836714
 20
304.56011443826236
 10
194.23164573730696
 20
304.63893748940643
 10
194.29754940948314
 20
304.71165098642933
 10
194.37026290650604
 20
304.77755465860554
 10
194.44908595765008
 20
304.83601381754534
 10
194.5332594538437
 20
304.88646546959114
 10
194.6219727583046
 20
304.9284237377541
 10
194.71437151341522
 20
304.961484540975
 10
194.80956586865355
 20
304.985329485646
 10
194.90663905034012
 20
304.999728931915
 10
195.0046561906697
 20
305.0045442052428
 10
195.10267333099927
 20
304.999728931915
 10
195.19974651268583
 20
304.985329485646
 10
195.29494086792414
 20
304.961484540975
 10
195.3873396230348
 20
304.9284237377541
 10
195.4760529274957
 20
304.88646546959114
 10
195.5602264236893
 20
304.83601381754534
 10
195.63904947483334
 20
304.77755465860554
 10
195.71176297185625
 20
304.71165098642933
 10
195.77766664403242
 20
304.63893748940643
 10
195.83612580297225
 20
304.56011443826236
 10
195.88657745501806
 20
304.4759409420688
 10
195.92853572318097
 20
304.38722763760785
 10
195.9615965264019
 20
304.29482888249726
 10
195.98544147107293
 20
304.1996345272589
 10
195.99984091734188
 20
304.1025613455723
 10
196.0046561906697
 20
304.0045442052428
 10
195.99984091734188
 20
303.90652706491323
 10
195.98544147107293
 20
303.80945388322664
 10
195.9615965264019
 20
303.7142595279883
 10
195.92853572318097
 20
303.6218607728777
 10
195.88657745501806
 20
303.53314746841676
 10
195.83612580297225
 20
303.4489739722232
 10
195.77766664403242
 20
303.37015092107913
 10
195.71176297185625
 20
303.2974374240562
 10
195.63904947483334
 20
303.23153375188
 10
195.5602264236893
 20
303.1730745929402
 10
195.4760529274957
 20
303.1226229408944
 10
195.3873396230348
 20
303.0806646727315
 10
195.29494086792417
 20
303.04760386951057
 10
195.19974651268583
 20
303.02375892483957
 10
195.10267333099927
 20
303.00935947857056
 10
195.0046561906697
 20
303.0045442052428
 10
194.90663905034012
 20
303.00935947857056
 10
194.80956586865355
 20
303.02375892483957
 10
194.71437151341522
 20
303.04760386951057
 10
194.6219727583046
 20
303.0806646727315
 10
194.5332594538437
 20
303.1226229408944
 10
194.44908595765008
 20
303.1730745929402
 10
194.37026290650604
 20
303.23153375188
 10
194.29754940948314
 20
303.2974374240562
 10
194.23164573730696
 20
303.37015092107913
 10
194.17318657836714
 20
303.4489739722232
 10
194.12273492632133
 20
303.53314746841676
 10
194.0807766581584
 20
303.6218607728777
 10
194.04771585493748
 20
303.7142595279883
 10
194.02387091026645
 20
303.80945388322664
 10
194.0094714639975
 20
303.90652706491323
 10
194.0046561906697
 20
304.0045442052428
  0
LWPOLYLINE
  5
5A
330
17
100
AcDbEntity
  8
0
100
AcDbPolyline
 90
13
 70
0
 10
152.00283744782436
 20
331.59140165442767
 10
152.00292491466942
 20
332.1687519169918
 10
154.08832453459866
 20
332.16843598516095
 10
155.88833482174095
 20
332.16816328896397
 10
158.0019936765355
 20
332.16784307594327
 10
158.00190620969042
 20
331.59049281337917
 10
158.00181874284533
 20
331.013142550815
 10
158.00173127600027
 20
330.43579228825087
 10
155.88767781330424
 20
330.43611256105356
 10
154.08767777407564
 20
330.436385255698
 10
152.00266251413422
 20
330.4367011292994
 10
152.00274998097927
 20
331.0140513918635
 10
152.00283744782436
 20
331.59140165442767
  0
LWPOLYLINE
  5
5B
330
17
100
AcDbEntity
  8
0
100
AcDbPolyline
 90
13
 70
0
 10
157.98584821576327
 20
370.99066002864714
 10
157.985766039861
 20
370.4133097653057
 10
157.98568386395877
 20
369.8359595019642
 10
155.9038065799191
 20
369.8362558214691
 10
154.10379592122462
 20
369.8365120220968
 10
151.99196688491128
 20
369.8368126047197
 10
151.99204906081354
 20
370.41416286806117
 10
151.99213123671578
 20
370.9915131314026
 10
151.992213412618
 20
371.5688633947441
 10
154.10445109682072
 20
371.5685627539573
 10
155.90445114295215
 20
371.56830655484004
 10
157.9859303916655
 20
371.5680102919886
 10
157.98584821576327
 20
370.99066002864714
  0
ENDSEC
  0
SECTION
  2
OBJECTS
  0
DICTIONARY
  5
A
330
0
100
AcDbDictionary
281
1
  3
ACAD_COLOR
350
B
  3
ACAD_GROUP
350
C
  3
ACAD_LAYOUT
350
D
  3
ACAD_MATERIAL
350
E
  3
ACAD_MLEADERSTYLE
350
F
  3
ACAD_MLINESTYLE
350
10
  3
ACAD_PLOTSETTINGS
350
11
  3
ACAD_PLOTSTYLENAME
350
12
  3
ACAD_SCALELIST
350
14
  3
ACAD_TABLESTYLE
350
15
  3
ACAD_VISUALSTYLE
350
16
  3
EZDXF_META
350
2D
  0
DICTIONARY
  5
B
330
A
100
AcDbDictionary
281
1
  0
DICTIONARY
  5
C
330
A
100
AcDbDictionary
281
1
  0
DICTIONARY
  5
D
330
A
100
AcDbDictionary
281
1
  3
Model
350
1A
  3
Layout1
350
1E
  0
DICTIONARY
  5
E
330
A
100
AcDbDictionary
281
1
  3
ByBlock
350
1F
  3
ByLayer
350
20
  3
Global
350
21
  0
DICTIONARY
  5
F
330
A
100
AcDbDictionary
281
1
  3
Standard
350
2C
  0
DICTIONARY
  5
10
330
A
100
AcDbDictionary
281
1
  3
Standard
350
22
  0
DICTIONARY
  5
11
330
A
100
AcDbDictionary
281
1
  0
ACDBDICTIONARYWDFLT
  5
12
330
A
100
AcDbDictionary
281
1
  3
Normal
350
13
100
AcDbDictionaryWithDefault
340
13
  0
ACDBPLACEHOLDER
  5
13
330
12
  0
DICTIONARY
  5
14
330
A
100
AcDbDictionary
281
1
  0
DICTIONARY
  5
15
330
A
100
AcDbDictionary
281
1
  0
DICTIONARY
  5
16
330
A
100
AcDbDictionary
281
1
  0
LAYOUT
  5
1A
330
D
100
AcDbPlotSettings
  1

  4
A3
  6

 40
7.5
 41
20.0
 42
7.5
 43
20.0
 44
420.0
 45
297.0
 46
0.0
 47
0.0
 48
0.0
 49
0.0
140
0.0
141
0.0
142
1.0
143
1.0
 70
1024
 72
1
 73
0
 74
5
  7

 75
16
 76
0
 77
2
 78
300
147
1.0
148
0.0
149
0.0
100
AcDbLayout
  1
Model
 70
1
 71
0
 10
0.0
 20
0.0
 11
420.0
 21
297.0
 12
0.0
 22
0.0
 32
0.0
 14
1e+20
 24
1e+20
 34
1e+20
 15
-1e+20
 25
-1e+20
 35
-1e+20
146
0.0
 13
0.0
 23
0.0
 33
0.0
 16
1.0
 26
0.0
 36
0.0
 17
0.0
 27
1.0
 37
0.0
 76
1
330
17
  0
LAYOUT
  5
1E
330
D
100
AcDbPlotSettings
  1

  4
A3
  6

 40
7.5
 41
20.0
 42
7.5
 43
20.0
 44
420.0
 45
297.0
 46
0.0
 47
0.0
 48
0.0
 49
0.0
140
0.0
141
0.0
142
1.0
143
1.0
 70
0
 72
1
 73
0
 74
5
  7

 75
16
 76
0
 77
2
 78
300
147
1.0
148
0.0
149
0.0
100
AcDbLayout
  1
Layout1
 70
1
 71
1
 10
0.0
 20
0.0
 11
420.0
 21
297.0
 12
0.0
 22
0.0
 32
0.0
 14
1e+20
 24
1e+20
 34
1e+20
 15
-1e+20
 25
-1e+20
 35
-1e+20
146
0.0
 13
0.0
 23
0.0
 33
0.0
 16
1.0
 26
0.0
 36
0.0
 17
0.0
 27
1.0
 37
0.0
 76
1
330
1B
  0
MATERIAL
  5
1F
102
{ACAD_REACTORS
330
E
102
}
330
E
100
AcDbMaterial
  1
ByBlock
  2

 70
0
 40
1.0
 71
1
 41
1.0
 91
-1023410177
 42
1.0
 72
1
  3

 73
1
 74
1
 75
1
 44
0.5
 73
0
 45
1.0
 46
1.0
 77
1
  4

 78
1
 79
1
170
1
 48
1.0
171
1
  6

172
1
173
1
174
1
140
1.0
141
1.0
175
1
  7

176
1
177
1
178
1
143
1.0
179
1
  8

270
1
271
1
272
1
145
1.0
146
1.0
273
1
  9

274
1
275
1
276
1
 42
1.0
 72
1
  3

 73
1
 74
1
 75
1
 94
63
  0
MATERIAL
  5
20
102
{ACAD_REACTORS
330
E
102
}
330
E
100
AcDbMaterial
  1
ByLayer
  2

 70
0
 40
1.0
 71
1
 41
1.0
 91
-1023410177
 42
1.0
 72
1
  3

 73
1
 74
1
 75
1
 44
0.5
 73
0
 45
1.0
 46
1.0
 77
1
  4

 78
1
 79
1
170
1
 48
1.0
171
1
  6

172
1
173
1
174
1
140
1.0
141
1.0
175
1
  7

176
1
177
1
178
1
143
1.0
179
1
  8

270
1
271
1
272
1
145
1.0
146
1.0
273
1
  9

274
1
275
1
276
1
 42
1.0
 72
1
  3

 73
1
 74
1
 75
1
 94
63
  0
MATERIAL
  5
21
102
{ACAD_REACTORS
330
E
102
}
330
E
100
AcDbMaterial
  1
Global
  2

 70
0
 40
1.0
 71
1
 41
1.0
 91
-1023410177
 42
1.0
 72
1
  3

 73
1
 74
1
 75
1
 44
0.5
 73
0
 45
1.0
 46
1.0
 77
1
  4

 78
1
 79
1
170
1
 48
1.0
171
1
  6

172
1
173
1
174
1
140
1.0
141
1.0
175
1
  7

176
1
177
1
178
1
143
1.0
179
1
  8

270
1
271
1
272
1
145
1.0
146
1.0
273
1
  9

274
1
275
1
276
1
 42
1.0
 72
1
  3

 73
1
 74
1
 75
1
 94
63
  0
MLINESTYLE
  5
22
102
{ACAD_REACTORS
330
10
102
}
330
10
100
AcDbMlineStyle
  2
Standard
 70
0
  3

 62
256
 51
90.0
 52
90.0
 71
2
 49
0.5
 62
256
  6
BYLAYER
 49
-0.5
 62
256
  6
BYLAYER
  0
MLEADERSTYLE
  5
2C
102
{ACAD_REACTORS
330
F
102
}
330
F
100
AcDbMLeaderStyle
179
2
170
2
171
1
172
0
 90
2
 40
0.0
 41
0.0
173
1
 91
-1056964608
 92
-2
290
1
 42
2.0
291
1
 43
8.0
  3
Standard
 44
4.0
300

342
29
174
1
175
1
176
0
178
1
 93
-1056964608
 45
4.0
292
0
297
0
 46
4.0
 94
-1056964608
 47
1.0
 49
1.0
140
1.0
294
1
141
0.0
177
0
142
1.0
295
0
296
0
143
3.75
271
0
272
9
273
9
  0
DICTIONARY
  5
2D
330
A
100
AcDbDictionary
280
1
281
1
  3
CREATED_BY_EZDXF
350
2E
  3
WRITTEN_BY_EZDXF
350
5E
  0
DICTIONARYVAR
  5
2E
330
2D
100
DictionaryVariables
280
0
  1
1.4.2 @ 2025-11-21T22:57:03.269721+00:00
  0
DICTIONARYVAR
  5
5E
330
2D
100
DictionaryVariables
280
0
  1
1.4.2 @ 2025-11-21T22:57:03.275962+00:00
  0
ENDSEC
  0
EOF
