  0
SECTION
  2
HEADER
  9
$ACADVER
  1
AC1024
  9
$ACADMAINTVER
 70
6
  9
$DWGCODEPAGE
  3
ANSI_1252
  9
$LASTSAVEDBY
  1
ezdxf
  9
$INSBASE
 10
0.0
 20
0.0
 30
0.0
  9
$EXTMIN
 10
1e+20
 20
1e+20
 30
1e+20
  9
$EXTMAX
 10
-1e+20
 20
-1e+20
 30
-1e+20
  9
$LIMMIN
 10
0.0
 20
0.0
  9
$LIMMAX
 10
420.0
 20
297.0
  9
$ORTHOMODE
 70
0
  9
$REGENMODE
 70
1
  9
$FILLMODE
 70
1
  9
$QTEXTMODE
 70
0
  9
$MIRRTEXT
 70
1
  9
$LTSCALE
 40
1.0
  9
$ATTMODE
 70
1
  9
$TEXTSIZE
 40
2.5
  9
$TRACEWID
 40
1.0
  9
$TEXTSTYLE
  7
Standard
  9
$CLAYER
  8
0
  9
$CELTYPE
  6
ByLayer
  9
$CECOLOR
 62
256
  9
$CELTSCALE
 40
1.0
  9
$DISPSILH
 70
0
  9
$DIMSCALE
 40
1.0
  9
$DIMASZ
 40
2.5
  9
$DIMEXO
 40
0.625
  9
$DIMDLI
 40
3.75
  9
$DIMRND
 40
0.0
  9
$DIMDLE
 40
0.0
  9
$DIMEXE
 40
1.25
  9
$DIMTP
 40
0.0
  9
$DIMTM
 40
0.0
  9
$DIMTXT
 40
2.5
  9
$DIMCEN
 40
2.5
  9
$DIMTSZ
 40
0.0
  9
$DIMTOL
 70
0
  9
$DIMLIM
 70
0
  9
$DIMTIH
 70
0
  9
$DIMTOH
 70
0
  9
$DIMSE1
 70
0
  9
$DIMSE2
 70
0
  9
$DIMTAD
 70
1
  9
$DIMZIN
 70
8
  9
$DIMBLK
  1

  9
$DIMASO
 70
1
  9
$DIMSHO
 70
1
  9
$DIMPOST
  1

  9
$DIMAPOST
  1

  9
$DIMALT
 70
0
  9
$DIMALTD
 70
3
  9
$DIMALTF
 40
0.03937007874
  9
$DIMLFAC
 40
1.0
  9
$DIMTOFL
 70
1
  9
$DIMTVP
 40
0.0
  9
$DIMTIX
 70
0
  9
$DIMSOXD
 70
0
  9
$DIMSAH
 70
0
  9
$DIMBLK1
  1

  9
$DIMBLK2
  1

  9
$DIMSTYLE
  2
ISO-25
  9
$DIMCLRD
 70
0
  9
$DIMCLRE
 70
0
  9
$DIMCLRT
 70
0
  9
$DIMTFAC
 40
1.0
  9
$DIMGAP
 40
0.625
  9
$DIMJUST
 70
0
  9
$DIMSD1
 70
0
  9
$DIMSD2
 70
0
  9
$DIMTOLJ
 70
0
  9
$DIMTZIN
 70
8
  9
$DIMALTZ
 70
0
  9
$DIMALTTZ
 70
0
  9
$DIMUPT
 70
0
  9
$DIMDEC
 70
2
  9
$DIMTDEC
 70
2
  9
$DIMALTU
 70
2
  9
$DIMALTTD
 70
3
  9
$DIMTXSTY
  7
Standard
  9
$DIMAUNIT
 70
0
  9
$DIMADEC
 70
0
  9
$DIMALTRND
 40
0.0
  9
$DIMAZIN
 70
0
  9
$DIMDSEP
 70
44
  9
$DIMATFIT
 70
3
  9
$DIMFRAC
 70
0
  9
$DIMLDRBLK
  1

  9
$DIMLUNIT
 70
2
  9
$DIMLWD
 70
-2
  9
$DIMLWE
 70
-2
  9
$DIMTMOVE
 70
0
  9
$DIMFXL
 40
1.0
  9
$DIMFXLON
 70
0
  9
$DIMJOGANG
 40
0.785398163397
  9
$DIMTFILL
 70
0
  9
$DIMTFILLCLR
 70
0
  9
$DIMARCSYM
 70
0
  9
$DIMLTYPE
  6

  9
$DIMLTEX1
  6

  9
$DIMLTEX2
  6

  9
$DIMTXTDIRECTION
 70
0
  9
$LUNITS
 70
2
  9
$LUPREC
 70
4
  9
$SKETCHINC
 40
1.0
  9
$FILLETRAD
 40
10.0
  9
$AUNITS
 70
0
  9
$AUPREC
 70
2
  9
$MENU
  1
.
  9
$ELEVATION
 40
0.0
  9
$PELEVATION
 40
0.0
  9
$THICKNESS
 40
0.0
  9
$LIMCHECK
 70
0
  9
$CHAMFERA
 40
0.0
  9
$CHAMFERB
 40
0.0
  9
$CHAMFERC
 40
0.0
  9
$CHAMFERD
 40
0.0
  9
$SKPOLY
 70
0
  9
$TDCREATE
 40
2461011.9479282405
  9
$TDUCREATE
 40
2458532.153996898
  9
$TDUPDATE
 40
2461011.9479282405
  9
$TDUUPDATE
 40
2458532.1544311
  9
$TDINDWG
 40
0.0
  9
$TDUSRTIMER
 40
0.0
  9
$USRTIMER
 70
1
  9
$ANGBASE
 50
0.0
  9
$ANGDIR
 70
0
  9
$PDMODE
 70
0
  9
$PDSIZE
 40
0.0
  9
$PLINEWID
 40
0.0
  9
$SPLFRAME
 70
0
  9
$SPLINETYPE
 70
6
  9
$SPLINESEGS
 70
8
  9
$HANDSEED
  5
60
  9
$SURFTAB1
 70
6
  9
$SURFTAB2
 70
6
  9
$SURFTYPE
 70
6
  9
$SURFU
 70
6
  9
$SURFV
 70
6
  9
$UCSBASE
  2

  9
$UCSNAME
  2

  9
$UCSORG
 10
0.0
 20
0.0
 30
0.0
  9
$UCSXDIR
 10
1.0
 20
0.0
 30
0.0
  9
$UCSYDIR
 10
0.0
 20
1.0
 30
0.0
  9
$UCSORTHOREF
  2

  9
$UCSORTHOVIEW
 70
0
  9
$UCSORGTOP
 10
0.0
 20
0.0
 30
0.0
  9
$UCSORGBOTTOM
 10
0.0
 20
0.0
 30
0.0
  9
$UCSORGLEFT
 10
0.0
 20
0.0
 30
0.0
  9
$UCSORGRIGHT
 10
0.0
 20
0.0
 30
0.0
  9
$UCSORGFRONT
 10
0.0
 20
0.0
 30
0.0
  9
$UCSORGBACK
 10
0.0
 20
0.0
 30
0.0
  9
$PUCSBASE
  2

  9
$PUCSNAME
  2

  9
$PUCSORG
 10
0.0
 20
0.0
 30
0.0
  9
$PUCSXDIR
 10
1.0
 20
0.0
 30
0.0
  9
$PUCSYDIR
 10
0.0
 20
1.0
 30
0.0
  9
$PUCSORTHOREF
  2

  9
$PUCSORTHOVIEW
 70
0
  9
$PUCSORGTOP
 10
0.0
 20
0.0
 30
0.0
  9
$PUCSORGBOTTOM
 10
0.0
 20
0.0
 30
0.0
  9
$PUCSORGLEFT
 10
0.0
 20
0.0
 30
0.0
  9
$PUCSORGRIGHT
 10
0.0
 20
0.0
 30
0.0
  9
$PUCSORGFRONT
 10
0.0
 20
0.0
 30
0.0
  9
$PUCSORGBACK
 10
0.0
 20
0.0
 30
0.0
  9
$USERI1
 70
0
  9
$USERI2
 70
0
  9
$USERI3
 70
0
  9
$USERI4
 70
0
  9
$USERI5
 70
0
  9
$USERR1
 40
0.0
  9
$USERR2
 40
0.0
  9
$USERR3
 40
0.0
  9
$USERR4
 40
0.0
  9
$USERR5
 40
0.0
  9
$WORLDVIEW
 70
1
  9
$SHADEDGE
 70
3
  9
$SHADEDIF
 70
70
  9
$TILEMODE
 70
1
  9
$MAXACTVP
 70
64
  9
$PINSBASE
 10
0.0
 20
0.0
 30
0.0
  9
$PLIMCHECK
 70
0
  9
$PEXTMIN
 10
1e+20
 20
1e+20
 30
1e+20
  9
$PEXTMAX
 10
-1e+20
 20
-1e+20
 30
-1e+20
  9
$PLIMMIN
 10
0.0
 20
0.0
  9
$PLIMMAX
 10
420.0
 20
297.0
  9
$UNITMODE
 70
0
  9
$VISRETAIN
 70
1
  9
$PLINEGEN
 70
0
  9
$PSLTSCALE
 70
1
  9
$TREEDEPTH
 70
3020
  9
$CMLSTYLE
  2
Standard
  9
$CMLJUST
 70
0
  9
$CMLSCALE
 40
20.0
  9
$PROXYGRAPHICS
 70
1
  9
$MEASUREMENT
 70
1
  9
$CELWEIGHT
370
-1
  9
$ENDCAPS
280
0
  9
$JOINSTYLE
280
0
  9
$LWDISPLAY
290
0
  9
$INSUNITS
 70
6
  9
$HYPERLINKBASE
  1

  9
$STYLESHEET
  1

  9
$XEDIT
290
1
  9
$CEPSNTYPE
380
0
  9
$PSTYLEMODE
290
1
  9
$FINGERPRINTGUID
  2
{DD720C8A-67E7-44E2-B472-C1F78C17474E}
  9
$VERSIONGUID
  2
{A2AEDD83-1E37-43E6-B908-D2CF7F1E7EEC}
  9
$EXTNAMES
290
1
  9
$PSVPSCALE
 40
0.0
  9
$OLESTARTUP
290
0
  9
$SORTENTS
280
127
  9
$INDEXCTL
280
0
  9
$HIDETEXT
280
1
  9
$XCLIPFRAME
280
1
  9
$HALOGAP
280
0
  9
$OBSCOLOR
 70
257
  9
$OBSLTYPE
280
0
  9
$INTERSECTIONDISPLAY
280
0
  9
$INTERSECTIONCOLOR
 70
257
  9
$DIMASSOC
280
2
  9
$PROJECTNAME
  1

  9
$CAMERADISPLAY
290
0
  9
$LENSLENGTH
 40
50.0
  9
$CAMERAHEIGHT
 40
0.0
  9
$STEPSPERSEC
 40
24.0
  9
$STEPSIZE
 40
100.0
  9
$3DDWFPREC
 40
2.0
  9
$PSOLWIDTH
 40
0.005
  9
$PSOLHEIGHT
 40
0.08
  9
$LOFTANG1
 40
1.570796326795
  9
$LOFTANG2
 40
1.570796326795
  9
$LOFTMAG1
 40
0.0
  9
$LOFTMAG2
 40
0.0
  9
$LOFTPARAM
 70
7
  9
$LOFTNORMALS
280
1
  9
$LATITUDE
 40
37.795
  9
$LONGITUDE
 40
-122.394
  9
$NORTHDIRECTION
 40
0.0
  9
$TIMEZONE
 70
-8000
  9
$LIGHTGLYPHDISPLAY
280
1
  9
$TILEMODELIGHTSYNCH
280
1
  9
$CMATERIAL
347
20
  9
$SOLIDHIST
280
0
  9
$SHOWHIST
280
1
  9
$DWFFRAME
280
2
  9
$DGNFRAME
280
2
  9
$REALWORLDSCALE
290
1
  9
$INTERFERECOLOR
 62
256
  9
$CSHADOW
280
0
  9
$SHADOWPLANELOCATION
 40
0.0
  0
ENDSEC
  0
SECTION
  2
CLASSES
  0
CLASS
  1
ACDBDICTIONARYWDFLT
  2
AcDbDictionaryWithDefault
  3
ObjectDBX Classes
 90
0
 91
0
280
0
281
0
  0
CLASS
  1
SUN
  2
AcDbSun
  3
SCENEOE
 90
1153
 91
0
280
0
281
0
  0
CLASS
  1
VISUALSTYLE
  2
AcDbVisualStyle
  3
ObjectDBX Classes
 90
4095
 91
0
280
0
281
0
  0
CLASS
  1
MATERIAL
  2
AcDbMaterial
  3
ObjectDBX Classes
 90
1153
 91
0
280
0
281
0
  0
CLASS
  1
SCALE
  2
AcDbScale
  3
ObjectDBX Classes
 90
1153
 91
0
280
0
281
0
  0
CLASS
  1
TABLESTYLE
  2
AcDbTableStyle
  3
ObjectDBX Classes
 90
4095
 91
0
280
0
281
0
  0
CLASS
  1
MLEADERSTYLE
  2
AcDbMLeaderStyle
  3
ACDB_MLEADERSTYLE_CLASS
 90
4095
 91
0
280
0
281
0
  0
CLASS
  1
DICTIONARYVAR
  2
AcDbDictionaryVar
  3
ObjectDBX Classes
 90
0
 91
0
280
0
281
0
  0
CLASS
  1
CELLSTYLEMAP
  2
AcDbCellStyleMap
  3
ObjectDBX Classes
 90
1152
 91
0
280
0
281
0
  0
CLASS
  1
MENTALRAYRENDERSETTINGS
  2
AcDbMentalRayRenderSettings
  3
SCENEOE
 90
1024
 91
0
280
0
281
0
  0
CLASS
  1
ACDBDETAILVIEWSTYLE
  2
AcDbDetailViewStyle
  3
ObjectDBX Classes
 90
1025
 91
0
280
0
281
0
  0
CLASS
  1
ACDBSECTIONVIEWSTYLE
  2
AcDbSectionViewStyle
  3
ObjectDBX Classes
 90
1025
 91
0
280
0
281
0
  0
CLASS
  1
RASTERVARIABLES
  2
AcDbRasterVariables
  3
ISM
 90
0
 91
0
280
0
281
0
  0
CLASS
  1
LAYOUT
  2
AcDbLayout
  3
ObjectDBX Classes
 90
0
 91
0
280
0
281
0
  0
CLASS
  1
ACDBPLACEHOLDER
  2
AcDbPlaceHolder
  3
ObjectDBX Classes
 90
0
 91
0
280
0
281
0
  0
ENDSEC
  0
SECTION
  2
TABLES
  0
TABLE
  2
VPORT
  5
8
330
0
100
AcDbSymbolTable
 70
1
  0
VPORT
  5
23
330
8
100
AcDbSymbolTableRecord
100
AcDbViewportTableRecord
  2
*Active
 70
0
 10
0.0
 20
0.0
 11
1.0
 21
1.0
 12
0.0
 22
0.0
 13
0.0
 23
0.0
 14
0.5
 24
0.5
 15
0.5
 25
0.5
 16
0.0
 26
0.0
 36
1.0
 17
0.0
 27
0.0
 37
0.0
 40
1000.0
 41
1.34
 42
50.0
 43
0.0
 44
0.0
 50
0.0
 51
0.0
 71
0
 72
1000
 73
1
 74
3
 75
0
 76
0
 77
0
 78
0
281
0
 65
0
146
0.0
  0
ENDTAB
  0
TABLE
  2
LTYPE
  5
2
330
0
100
AcDbSymbolTable
 70
3
  0
LTYPE
  5
24
330
2
100
AcDbSymbolTableRecord
100
AcDbLinetypeTableRecord
  2
ByBlock
 70
0
  3

 72
65
 73
0
 40
0.0
  0
LTYPE
  5
25
330
2
100
AcDbSymbolTableRecord
100
AcDbLinetypeTableRecord
  2
ByLayer
 70
0
  3

 72
65
 73
0
 40
0.0
  0
LTYPE
  5
26
330
2
100
AcDbSymbolTableRecord
100
AcDbLinetypeTableRecord
  2
Continuous
 70
0
  3

 72
65
 73
0
 40
0.0
  0
ENDTAB
  0
TABLE
  2
LAYER
  5
1
330
0
100
AcDbSymbolTable
 70
2
  0
LAYER
  5
27
330
1
100
AcDbSymbolTableRecord
100
AcDbLayerTableRecord
  2
0
 70
0
 62
7
  6
Continuous
370
-3
390
13
347
21
  0
LAYER
  5
28
330
1
100
AcDbSymbolTableRecord
100
AcDbLayerTableRecord
  2
Defpoints
 70
0
 62
7
  6
Continuous
290
0
370
-3
390
13
347
21
  0
ENDTAB
  0
TABLE
  2
STYLE
  5
5
330
0
100
AcDbSymbolTable
 70
1
  0
STYLE
  5
29
330
5
100
AcDbSymbolTableRecord
100
AcDbTextStyleTableRecord
  2
Standard
 70
0
 40
0.0
 41
1.0
 50
0.0
 71
0
 42
2.5
  3
txt
  4

  0
ENDTAB
  0
TABLE
  2
VIEW
  5
7
330
0
100
AcDbSymbolTable
 70
0
  0
ENDTAB
  0
TABLE
  2
UCS
  5
6
330
0
100
AcDbSymbolTable
 70
0
  0
ENDTAB
  0
TABLE
  2
APPID
  5
3
330
0
100
AcDbSymbolTable
 70
3
  0
APPID
  5
2A
330
3
100
AcDbSymbolTableRecord
100
AcDbRegAppTableRecord
  2
ACAD
 70
0
  0
APPID
  5
5D
330
3
100
AcDbSymbolTableRecord
100
AcDbRegAppTableRecord
  2
HATCHBACKGROUNDCOLOR
 70
0
  0
APPID
  5
5E
330
3
100
AcDbSymbolTableRecord
100
AcDbRegAppTableRecord
  2
EZDXF
 70
0
  0
ENDTAB
  0
TABLE
  2
DIMSTYLE
  5
4
330
0
100
AcDbSymbolTable
 70
1
100
AcDbDimStyleTable
  0
DIMSTYLE
105
2B
330
4
100
AcDbSymbolTableRecord
100
AcDbDimStyleTableRecord
  2
Standard
 70
0
 40
1.0
 41
2.5
 42
0.625
 43
3.75
 44
1.25
 45
0.0
 46
0.0
 47
0.0
 48
0.0
 49
2.5
140
2.5
141
2.5
142
0.0
143
0.03937007874
144
1.0
145
0.0
146
1.0
147
0.625
148
0.0
 69
0
 70
0
 71
0
 72
0
 73
0
 74
0
 75
0
 76
0
 77
1
 78
8
 79
3
170
0
171
3
172
1
173
0
174
0
175
0
176
0
177
0
178
0
179
2
271
2
272
2
273
2
274
3
275
0
276
0
277
2
278
44
279
0
280
0
281
0
282
0
283
0
284
8
285
0
286
0
288
0
289
3
290
0
371
-2
372
-2
  0
ENDTAB
  0
TABLE
  2
BLOCK_RECORD
  5
9
330
0
100
AcDbSymbolTable
 70
2
  0
BLOCK_RECORD
  5
17
330
9
100
AcDbSymbolTableRecord
100
AcDbBlockTableRecord
  2
*Model_Space
340
1A
 70
0
280
1
281
0
  0
BLOCK_RECORD
  5
1B
330
9
100
AcDbSymbolTableRecord
100
AcDbBlockTableRecord
  2
*Paper_Space
340
1E
 70
0
280
1
281
0
  0
ENDTAB
  0
ENDSEC
  0
SECTION
  2
BLOCKS
  0
BLOCK
  5
18
330
17
100
AcDbEntity
  8
0
100
AcDbBlockBegin
  2
*Model_Space
 70
0
 10
0.0
 20
0.0
 30
0.0
  3
*Model_Space
  1

  0
ENDBLK
  5
19
330
17
100
AcDbEntity
  8
0
100
AcDbBlockEnd
  0
BLOCK
  5
1C
330
1B
100
AcDbEntity
  8
0
100
AcDbBlockBegin
  2
*Paper_Space
 70
0
 10
0.0
 20
0.0
 30
0.0
  3
*Paper_Space
  1

  0
ENDBLK
  5
1D
330
1B
100
AcDbEntity
  8
0
100
AcDbBlockEnd
  0
ENDSEC
  0
SECTION
  2
ENTITIES
  0
LWPOLYLINE
  5
2F
330
17
100
AcDbEntity
  8
0
100
AcDbPolyline
 90
13
 70
0
 10
67.10000000000001
 20
79.13397459621558
 10
66.0
 20
79.13397459621557
 10
66.0
 20
79.71132486540519
 10
66.0
 20
80.28867513459481
 10
66.0
 20
80.86602540378443
 10
67.10000000000001
 20
80.86602540378442
 10
67.89999999999999
 20
80.86602540378442
 10
69.0
 20
80.86602540378443
 10
69.0
 20
80.28867513459481
 10
69.0
 20
79.71132486540519
 10
69.0
 20
79.13397459621557
 10
67.89999999999999
 20
79.13397459621558
 10
67.10000000000001
 20
79.13397459621558
  0
LWPOLYLINE
  5
30
330
17
100
AcDbEntity
  8
0
100
AcDbPolyline
 90
11
 70
0
 10
59.49999999999999
 20
124.60000000000001
 10
59.49999999999999
 20
125.39999999999999
 10
59.49999999999999
 20
125.6
 10
59.99999999999999
 20
125.6
 10
60.49999999999999
 20
125.6
 10
60.49999999999999
 20
125.39999999999999
 10
60.49999999999999
 20
124.60000000000001
 10
60.49999999999999
 20
123.9
 10
59.99999999999999
 20
123.9
 10
59.49999999999999
 20
123.9
 10
59.49999999999999
 20
124.60000000000001
  0
LWPOLYLINE
  5
31
330
17
100
AcDbEntity
  8
0
100
AcDbPolyline
 90
11
 70
0
 10
75.5
 20
125.60000000000007
 10
75.49999999999999
 20
125.39999999999999
 10
75.49999999999999
 20
124.60000000000001
 10
75.5
 20
123.90000000000005
 10
75.0
 20
123.90000000000005
 10
74.5
 20
123.90000000000005
 10
74.50000000000001
 20
124.60000000000001
 10
74.50000000000001
 20
125.39999999999999
 10
74.5
 20
125.60000000000007
 10
75.0
 20
125.60000000000007
 10
75.5
 20
125.60000000000007
  0
LWPOLYLINE
  5
32
330
17
100
AcDbEntity
  8
0
100
AcDbPolyline
 90
11
 70
0
 10
51.00000000000002
 20
124.10000000000001
 10
50.50000000000002
 20
124.1
 10
50.00000000000002
 20
124.1
 10
50.000000000000014
 20
124.60000000000001
 10
50.00000000000001
 20
125.39999999999999
 10
50.00000000000001
 20
125.89999999999999
 10
50.50000000000001
 20
125.9
 10
51.00000000000001
 20
125.9
 10
51.000000000000014
 20
125.39999999999999
 10
51.00000000000002
 20
124.60000000000001
 10
51.00000000000002
 20
124.10000000000001
  0
LWPOLYLINE
  5
33
330
17
100
AcDbEntity
  8
0
100
AcDbPolyline
 90
65
 70
0
 10
55.19509032201612
 20
125.98078528040323
 10
55.290284677254455
 20
125.95694033573221
 10
55.382683432365084
 20
125.9238795325113
 10
55.47139673682599
 20
125.88192126434835
 10
55.555570233019594
 20
125.83146961230254
 10
55.634393284163636
 20
125.77301045336273
 10
55.70710678118654
 20
125.70710678118655
 10
55.77301045336273
 20
125.63439328416365
 10
55.83146961230254
 20
125.55557023301961
 10
55.88192126434835
 20
125.471396736826
 10
55.92387953251128
 20
125.38268343236508
 10
55.9569403357322
 20
125.29028467725446
 10
55.980785280403225
 20
125.19509032201613
 10
55.99518472667219
 20
125.09801714032956
 10
55.99999999999999
 20
125.0
 10
55.99518472667219
 20
124.90198285967044
 10
55.980785280403225
 20
124.80490967798387
 10
55.9569403357322
 20
124.70971532274554
 10
55.92387953251128
 20
124.61731656763492
 10
55.88192126434835
 20
124.528603263174
 10
55.83146961230254
 20
124.44442976698039
 10
55.77301045336273
 20
124.36560671583635
 10
55.70710678118654
 20
124.29289321881345
 10
55.634393284163636
 20
124.22698954663726
 10
55.555570233019594
 20
124.16853038769746
 10
55.47139673682599
 20
124.11807873565165
 10
55.382683432365084
 20
124.0761204674887
 10
55.290284677254455
 20
124.04305966426779
 10
55.19509032201612
 20
124.01921471959677
 10
55.09801714032955
 20
124.00481527332781
 10
54.99999999999999
 20
124.0
 10
54.90198285967043
 20
124.00481527332781
 10
54.804909677983865
 20
124.01921471959677
 10
54.70971532274553
 20
124.04305966426779
 10
54.6173165676349
 20
124.0761204674887
 10
54.528603263174
 20
124.11807873565165
 10
54.44442976698039
 20
124.16853038769746
 10
54.36560671583635
 20
124.22698954663726
 10
54.29289321881345
 20
124.29289321881345
 10
54.226989546637256
 20
124.36560671583635
 10
54.168530387697444
 20
124.44442976698039
 10
54.118078735651636
 20
124.528603263174
 10
54.07612046748871
 20
124.61731656763492
 10
54.04305966426779
 20
124.70971532274554
 10
54.01921471959676
 20
124.80490967798387
 10
54.00481527332779
 20
124.90198285967044
 10
53.99999999999999
 20
125.0
 10
54.00481527332779
 20
125.09801714032956
 10
54.01921471959676
 20
125.19509032201613
 10
54.04305966426779
 20
125.29028467725446
 10
54.07612046748871
 20
125.38268343236508
 10
54.118078735651636
 20
125.471396736826
 10
54.168530387697444
 20
125.55557023301961
 10
54.226989546637256
 20
125.63439328416365
 10
54.29289321881345
 20
125.70710678118655
 10
54.36560671583635
 20
125.77301045336273
 10
54.44442976698039
 20
125.83146961230254
 10
54.52860326317399
 20
125.88192126434835
 10
54.6173165676349
 20
125.9238795325113
 10
54.70971532274553
 20
125.95694033573221
 10
54.804909677983865
 20
125.98078528040323
 10
54.90198285967043
 20
125.99518472667219
 10
54.99999999999999
 20
126.0
 10
55.09801714032955
 20
125.99518472667219
 10
55.19509032201612
 20
125.98078528040323
  0
LWPOLYLINE
  5
34
330
17
100
AcDbEntity
  8
0
100
AcDbPolyline
 90
65
 70
0
 10
79.90198285967044
 20
125.99518472667219
 10
80.0
 20
126.0
 10
80.09801714032956
 20
125.99518472667219
 10
80.19509032201613
 20
125.98078528040323
 10
80.29028467725446
 20
125.95694033573221
 10
80.38268343236508
 20
125.9238795325113
 10
80.471396736826
 20
125.88192126434835
 10
80.55557023301961
 20
125.83146961230254
 10
80.63439328416365
 20
125.77301045336273
 10
80.70710678118655
 20
125.70710678118655
 10
80.77301045336273
 20
125.63439328416365
 10
80.83146961230254
 20
125.55557023301961
 10
80.88192126434835
 20
125.471396736826
 10
80.9238795325113
 20
125.38268343236508
 10
80.95694033573221
 20
125.29028467725446
 10
80.98078528040323
 20
125.19509032201613
 10
80.99518472667219
 20
125.09801714032956
 10
81.0
 20
125.0
 10
80.99518472667219
 20
124.90198285967044
 10
80.98078528040323
 20
124.80490967798387
 10
80.95694033573221
 20
124.70971532274554
 10
80.9238795325113
 20
124.61731656763492
 10
80.88192126434835
 20
124.528603263174
 10
80.83146961230254
 20
124.44442976698039
 10
80.77301045336274
 20
124.36560671583635
 10
80.70710678118655
 20
124.29289321881345
 10
80.63439328416365
 20
124.22698954663726
 10
80.55557023301961
 20
124.16853038769746
 10
80.471396736826
 20
124.11807873565165
 10
80.38268343236508
 20
124.0761204674887
 10
80.29028467725446
 20
124.04305966426779
 10
80.19509032201613
 20
124.01921471959677
 10
80.09801714032956
 20
124.00481527332781
 10
80.0
 20
124.0
 10
79.90198285967044
 20
124.00481527332781
 10
79.80490967798387
 20
124.01921471959677
 10
79.70971532274554
 20
124.04305966426779
 10
79.61731656763492
 20
124.0761204674887
 10
79.528603263174
 20
124.11807873565165
 10
79.44442976698039
 20
124.16853038769746
 10
79.36560671583635
 20
124.22698954663726
 10
79.29289321881345
 20
124.29289321881345
 10
79.22698954663726
 20
124.36560671583635
 10
79.16853038769746
 20
124.44442976698039
 10
79.11807873565165
 20
124.528603263174
 10
79.0761204674887
 20
124.61731656763492
 10
79.04305966426779
 20
124.70971532274554
 10
79.01921471959677
 20
124.80490967798387
 10
79.00481527332781
 20
124.90198285967044
 10
79.0
 20
125.0
 10
79.00481527332781
 20
125.09801714032956
 10
79.01921471959677
 20
125.19509032201613
 10
79.04305966426779
 20
125.29028467725446
 10
79.0761204674887
 20
125.38268343236508
 10
79.11807873565165
 20
125.471396736826
 10
79.16853038769746
 20
125.55557023301961
 10
79.22698954663726
 20
125.63439328416365
 10
79.29289321881345
 20
125.70710678118655
 10
79.36560671583635
 20
125.77301045336273
 10
79.44442976698039
 20
125.83146961230254
 10
79.528603263174
 20
125.88192126434835
 10
79.61731656763492
 20
125.9238795325113
 10
79.70971532274554
 20
125.95694033573221
 10
79.80490967798387
 20
125.98078528040323
 10
79.90198285967044
 20
125.99518472667219
  0
LWPOLYLINE
  5
35
330
17
100
AcDbEntity
  8
0
100
AcDbPolyline
 90
11
 70
0
 10
54.09999999999998
 20
130.0
 10
54.599999999999994
 20
130.0
 10
55.39999999999999
 20
130.0
 10
55.899999999999984
 20
130.0
 10
55.899999999999984
 20
129.5
 10
55.899999999999984
 20
129.0
 10
55.39999999999999
 20
129.0
 10
54.599999999999994
 20
129.0
 10
54.09999999999998
 20
129.0
 10
54.09999999999998
 20
129.5
 10
54.09999999999998
 20
130.0
  0
LWPOLYLINE
  5
36
330
17
100
AcDbEntity
  8
0
100
AcDbPolyline
 90
11
 70
0
 10
79.60000000000001
 20
130.0
 10
80.39999999999999
 20
130.0
 10
80.90000000000005
 20
130.0
 10
80.90000000000005
 20
129.5
 10
80.90000000000005
 20
129.0
 10
80.39999999999999
 20
129.0
 10
79.60000000000001
 20
129.0
 10
79.10000000000004
 20
129.0
 10
79.10000000000004
 20
129.5
 10
79.10000000000004
 20
130.0
 10
79.60000000000001
 20
130.0
  0
LWPOLYLINE
  5
37
330
17
100
AcDbEntity
  8
0
100
AcDbPolyline
 90
11
 70
0
 10
68.9
 20
130.5
 10
68.9
 20
130.0
 10
68.9
 20
129.5
 10
67.89999999999999
 20
129.5
 10
67.10000000000001
 20
129.5
 10
66.1
 20
129.5
 10
66.1
 20
130.0
 10
66.1
 20
130.5
 10
67.10000000000001
 20
130.5
 10
67.89999999999999
 20
130.5
 10
68.9
 20
130.5
  0
LWPOLYLINE
  5
38
330
17
100
AcDbEntity
  8
0
100
AcDbPolyline
 90
11
 70
0
 10
68.99999999999997
 20
140.5
 10
68.99999999999997
 20
140.0
 10
68.99999999999997
 20
139.5
 10
67.89999999999999
 20
139.5
 10
67.10000000000001
 20
139.5
 10
65.99999999999999
 20
139.5
 10
65.99999999999999
 20
140.0
 10
65.99999999999999
 20
140.5
 10
67.10000000000001
 20
140.5
 10
67.89999999999999
 20
140.5
 10
68.99999999999997
 20
140.5
  0
LWPOLYLINE
  5
39
330
17
100
AcDbEntity
  8
0
100
AcDbPolyline
 90
11
 70
0
 10
74.4
 20
236.8
 10
74.39999999999999
 20
237.0
 10
74.89999999999999
 20
237.0
 10
75.39999999999999
 20
237.0
 10
75.39999999999998
 20
236.8
 10
75.39999999999998
 20
236.0
 10
75.39999999999999
 20
235.3
 10
74.89999999999999
 20
235.3
 10
74.39999999999999
 20
235.3
 10
74.4
 20
236.0
 10
74.4
 20
236.8
  0
LWPOLYLINE
  5
3A
330
17
100
AcDbEntity
  8
0
100
AcDbPolyline
 90
11
 70
0
 10
64.90000000000003
 20
236.0
 10
64.90000000000002
 20
236.8
 10
64.9
 20
237.3
 10
65.4
 20
237.3
 10
65.9
 20
237.3
 10
65.9
 20
236.8
 10
65.90000000000002
 20
236.0
 10
65.90000000000003
 20
235.5
 10
65.40000000000003
 20
235.5
 10
64.90000000000003
 20
235.5
 10
64.90000000000003
 20
236.0
  0
LWPOLYLINE
  5
3B
330
17
100
AcDbEntity
  8
0
100
AcDbPolyline
 90
65
 70
0
 10
68.94305966426778
 20
236.69028467725448
 10
68.9761204674887
 20
236.7826834323651
 10
69.01807873565164
 20
236.871396736826
 10
69.06853038769745
 20
236.9555702330196
 10
69.12698954663725
 20
237.03439328416366
 10
69.19289321881344
 20
237.10710678118656
 10
69.26560671583634
 20
237.17301045336274
 10
69.34442976698038
 20
237.23146961230256
 10
69.428603263174
 20
237.28192126434837
 10
69.51731656763491
 20
237.32387953251128
 10
69.60971532274553
 20
237.35694033573222
 10
69.70490967798386
 20
237.38078528040324
 10
69.80198285967043
 20
237.3951847266722
 10
69.89999999999999
 20
237.4
 10
69.99801714032955
 20
237.3951847266722
 10
70.09509032201612
 20
237.38078528040324
 10
70.19028467725445
 20
237.35694033573222
 10
70.28268343236508
 20
237.32387953251128
 10
70.37139673682599
 20
237.28192126434837
 10
70.4555702330196
 20
237.23146961230256
 10
70.53439328416364
 20
237.17301045336274
 10
70.60710678118654
 20
237.10710678118656
 10
70.67301045336272
 20
237.03439328416366
 10
70.73146961230253
 20
236.9555702330196
 10
70.78192126434834
 20
236.871396736826
 10
70.82387953251128
 20
236.7826834323651
 10
70.8569403357322
 20
236.69028467725448
 10
70.88078528040322
 20
236.59509032201615
 10
70.89518472667218
 20
236.49801714032958
 10
70.89999999999999
 20
236.4
 10
70.89518472667218
 20
236.30198285967043
 10
70.88078528040322
 20
236.20490967798386
 10
70.8569403357322
 20
236.10971532274553
 10
70.82387953251128
 20
236.0173165676349
 10
70.78192126434834
 20
235.928603263174
 10
70.73146961230253
 20
235.8444297669804
 10
70.67301045336274
 20
235.76560671583636
 10
70.60710678118654
 20
235.69289321881345
 10
70.53439328416364
 20
235.62698954663728
 10
70.4555702330196
 20
235.56853038769745
 10
70.37139673682599
 20
235.51807873565164
 10
70.28268343236508
 20
235.47612046748873
 10
70.19028467725445
 20
235.4430596642678
 10
70.09509032201612
 20
235.41921471959677
 10
69.99801714032955
 20
235.4048152733278
 10
69.89999999999999
 20
235.4
 10
69.80198285967043
 20
235.4048152733278
 10
69.70490967798386
 20
235.41921471959677
 10
69.60971532274553
 20
235.4430596642678
 10
69.51731656763491
 20
235.47612046748873
 10
69.428603263174
 20
235.51807873565164
 10
69.34442976698038
 20
235.56853038769745
 10
69.26560671583634
 20
235.62698954663728
 10
69.19289321881344
 20
235.69289321881345
 10
69.12698954663725
 20
235.76560671583636
 10
69.06853038769745
 20
235.8444297669804
 10
69.01807873565164
 20
235.928603263174
 10
68.9761204674887
 20
236.0173165676349
 10
68.94305966426778
 20
236.10971532274553
 10
68.91921471959677
 20
236.20490967798386
 10
68.9048152733278
 20
236.30198285967043
 10
68.89999999999999
 20
236.4
 10
68.9048152733278
 20
236.49801714032958
 10
68.91921471959677
 20
236.59509032201615
 10
68.94305966426778
 20
236.69028467725448
  0
LWPOLYLINE
  5
3C
330
17
100
AcDbEntity
  8
0
100
AcDbPolyline
 90
11
 70
0
 10
70.79999999999998
 20
241.4
 10
70.79999999999998
 20
240.9
 10
70.79999999999998
 20
240.4
 10
70.29999999999998
 20
240.4
 10
69.5
 20
240.4
 10
68.99999999999999
 20
240.4
 10
68.99999999999999
 20
240.9
 10
68.99999999999999
 20
241.4
 10
69.5
 20
241.4
 10
70.29999999999998
 20
241.4
 10
70.79999999999998
 20
241.4
  0
LWPOLYLINE
  5
3D
330
17
100
AcDbEntity
  8
0
100
AcDbPolyline
 90
11
 70
0
 10
83.89999999999998
 20
251.40000000000003
 10
83.89999999999996
 20
250.90000000000003
 10
82.80590121775232
 20
250.90000000000003
 10
82.00590121775234
 20
250.90000000000003
 10
80.89999999999998
 20
250.90000000000006
 10
80.89999999999999
 20
251.40000000000006
 10
80.89999999999999
 20
251.90000000000006
 10
82.00590121775234
 20
251.90000000000006
 10
82.80590121775232
 20
251.90000000000006
 10
83.89999999999998
 20
251.90000000000003
 10
83.89999999999998
 20
251.40000000000003
  0
LWPOLYLINE
  5
3E
330
17
100
AcDbEntity
  8
0
100
AcDbPolyline
 90
11
 70
0
 10
135.9671028413342
 20
83.59828251586319
 10
135.38288152200542
 20
84.14502540968226
 10
135.27890440916647
 20
84.24233227898621
 10
135.62055403953454
 20
84.60740149169713
 10
135.9622036699026
 20
84.97247070440805
 10
136.0548144737256
 20
84.88580098318104
 10
136.63903579305438
 20
84.33905808936194
 10
137.42357105361432
 20
83.60485160892324
 10
137.08192142324626
 20
83.23978239621233
 10
136.7402717928782
 20
82.87471318350141
 10
135.9671028413342
 20
83.59828251586319
  0
LWPOLYLINE
  5
3F
330
17
100
AcDbEntity
  8
0
100
AcDbPolyline
 90
7
 70
0
 10
139.50438931524565
 20
106.38453532269841
 10
139.50425587752034
 20
119.32453345943523
 10
140.00425587749373
 20
119.32453861545318
 10
140.50425587746716
 20
119.32454377147113
 10
140.50438931519247
 20
106.38454563473431
 10
140.00438931521907
 20
106.38454047871636
 10
139.50438931524565
 20
106.38453532269841
  0
LWPOLYLINE
  5
40
330
17
100
AcDbEntity
  8
0
100
AcDbPolyline
 90
45
 70
0
 10
140.0762865371802
 20
120.74529753341652
 10
140.11877314718262
 20
120.74822324543773
 10
140.15862432326574
 20
120.73320473735212
 10
140.4586263280238
 20
120.53879675665247
 10
140.48300505003004
 20
120.51649426335956
 10
140.49878526891447
 20
120.4874648302666
 10
140.50424422142345
 20
120.45487766820479
 10
140.50425402719694
 20
119.5039719903219
 10
140.50425405182392
 20
119.50158381054204
 10
140.4951861218121
 20
119.45997318130351
 10
140.46962609851113
 20
119.42590916760608
 10
140.43220973131974
 20
119.40556986362277
 10
140.38972312131733
 20
119.40264415160156
 10
140.3498719452342
 20
119.41766265968717
 10
140.04986994047616
 20
119.61207064038682
 10
140.0254912184699
 20
119.63437313367973
 10
140.00971099958548
 20
119.66340256677269
 10
140.0042520470765
 20
119.6959897288345
 10
140.0042507105605
 20
119.82559711170803
 10
139.99518278054873
 20
119.78398648246959
 10
139.96962275724775
 20
119.74992246877216
 10
139.93220639005636
 20
119.72958316478885
 10
139.88971978005395
 20
119.72665745276764
 10
139.84986860397083
 20
119.74167596085324
 10
139.6676717261927
 20
119.85974359552519
 10
139.61844102119474
 20
119.87829691850692
 10
139.61111907213072
 20
119.87779271460846
 10
139.5707937901778
 20
119.88331878122649
 10
139.5360109421198
 20
119.90445688090044
 10
139.51253288335667
 20
119.93770513699856
 10
139.50424914353437
 20
119.97755542471907
 10
139.50423887541265
 20
120.97329688766331
 10
139.51330680542446
 20
121.01490751690184
 10
139.53886682872545
 20
121.04897153059927
 10
139.57628319591683
 20
121.06931083458258
 10
139.61876980591924
 20
121.07223654660379
 10
139.65862098200236
 20
121.05721803851819
 10
139.95862298676042
 20
120.86281005781855
 10
139.98300170876666
 20
120.84050756452564
 10
139.9987819276511
 20
120.81147813143268
 10
140.00424088016007
 20
120.77889096937086
 10
140.00424221667606
 20
120.64928358649738
 10
140.01331014668784
 20
120.69089421573578
 10
140.03887016998883
 20
120.72495822943321
 10
140.0762865371802
 20
120.74529753341652
  0
LWPOLYLINE
  5
41
330
17
100
AcDbEntity
  8
0
100
AcDbPolyline
 90
11
 70
0
 10
85.00000000000006
 20
125.39999999999999
 10
85.00000000000004
 20
124.60000000000001
 10
85.00000000000004
 20
124.1000000000001
 10
84.50000000000004
 20
124.10000000000011
 10
84.00000000000004
 20
124.10000000000011
 10
84.00000000000006
 20
124.60000000000001
 10
84.00000000000007
 20
125.39999999999999
 10
84.00000000000007
 20
125.90000000000008
 10
84.50000000000007
 20
125.90000000000006
 10
85.00000000000007
 20
125.90000000000006
 10
85.00000000000006
 20
125.39999999999999
  0
LWPOLYLINE
  5
42
330
17
100
AcDbEntity
  8
0
100
AcDbPolyline
 90
12
 70
0
 10
129.57869760406717
 20
129.08331911215006
 10
129.9985549308529
 20
128.8118051619664
 10
129.26319746866716
 20
127.674680465072
 10
129.1509763293681
 20
127.5011465913131
 10
128.8287545340002
 20
127.00287686504772
 10
124.78590923186493
 20
120.75119727357801
 10
124.36605190507922
 20
121.0227112237617
 10
123.9461945782935
 20
121.29422517394539
 10
127.9894299259391
 20
127.54650791477513
 10
128.42387286060608
 20
128.2183115147994
 10
129.15884027728146
 20
129.35483306233377
 10
129.57869760406717
 20
129.08331911215006
  0
LWPOLYLINE
  5
43
330
17
100
AcDbEntity
  8
0
100
AcDbPolyline
 90
13
 70
0
 10
83.903236362236
 20
179.79816798070462
 10
83.90384509906681
 20
179.22081803242992
 10
83.90445383589764
 20
178.64346808415522
 10
82.80604861934559
 20
178.64230996556094
 10
82.00600665406428
 20
178.64146643034988
 10
80.90327359234718
 20
178.6403037486328
 10
80.90266485551635
 20
179.2176536969075
 10
80.90205611868552
 20
179.7950036451822
 10
80.90144738185471
 20
180.3723535934569
 10
82.0057957814404
 20
180.37351797832767
 10
82.80579578144038
 20
180.37436146929204
 10
83.90262762540517
 20
180.37551792897932
 10
83.903236362236
 20
179.79816798070462
  0
LWPOLYLINE
  5
44
330
17
100
AcDbEntity
  8
0
100
AcDbPolyline
 90
5
 70
0
 10
221.73785280403231
 20
399.15785280403236
 10
221.73785280403231
 20
52.54214719596769
 10
25.122147195967695
 20
52.54214719596769
 10
25.122147195967695
 20
399.15785280403236
 10
221.73785280403231
 20
399.15785280403236
  0
LWPOLYLINE
  5
45
330
17
100
AcDbEntity
  8
0
100
AcDbPolyline
 90
76
 70
0
 10
75.0
 20
80.28867513459481
 10
75.0
 20
80.86602540378443
 10
75.00000000000001
 20
120.5000000000001
 10
75.5
 20
120.5000000000001
 10
79.74999999999994
 20
120.50000000000013
 10
84.50000000000001
 20
120.50000000000017
 10
85.00000000000001
 20
120.50000000000017
 10
89.50000000000009
 20
120.5000000000002
 10
89.5
 20
129.5000000000003
 10
85.0000000000001
 20
129.5
 10
84.5000000000001
 20
129.5
 10
84.50000000000001
 20
130.0
 10
84.49999999999994
 20
134.5000000000002
 10
75.49999999999993
 20
134.5000000000001
 10
75.5
 20
130.0
 10
75.49999999999999
 20
129.5
 10
75.46193976625567
 20
129.30865828381758
 10
75.35355339059329
 20
129.14644660940684
 10
75.19134171618256
 20
129.03806023374446
 10
75.00000000000003
 20
129.0000000000001
 10
74.80865828381748
 20
129.03806023374446
 10
74.64644660940675
 20
129.14644660940684
 10
74.53806023374437
 20
129.30865828381755
 10
74.50000000000001
 20
129.5000000000001
 10
74.5
 20
130.0
 10
74.5
 20
130.33333333333346
 10
74.5
 20
130.5
 10
74.49999999999993
 20
134.5000000000001
 10
74.53806023374429
 20
134.69134171618265
 10
74.64644660940665
 20
134.8535533905934
 10
74.80865828381738
 20
134.96193976625577
 10
74.99999999999993
 20
135.0000000000001
 10
74.99999999999996
 20
140.0
 10
74.99999999999996
 20
140.5
 10
75.0
 20
150.0
 10
60.0
 20
150.0
 10
60.00000000000001
 20
140.5
 10
60.00000000000001
 20
140.0
 10
60.00000000000001
 20
139.5
 10
60.00000000000001
 20
135.0
 10
60.191341716182556
 20
134.96193976625565
 10
60.353553390593284
 20
134.85355339059328
 10
60.461939766255654
 20
134.69134171618254
 10
60.50000000000001
 20
134.5
 10
60.49999999999999
 20
130.5
 10
60.49999999999999
 20
130.0
 10
60.49999999999999
 20
129.5
 10
60.46193976625563
 20
129.30865828381746
 10
60.35355339059326
 20
129.14644660940672
 10
60.191341716182535
 20
129.03806023374435
 10
59.99999999999999
 20
129.0
 10
59.808658283817444
 20
129.03806023374435
 10
59.646446609406716
 20
129.14644660940672
 10
59.538060233744346
 20
129.30865828381746
 10
59.49999999999999
 20
129.5
 10
59.50000000000001
 20
134.5
 10
50.5
 20
134.5
 10
50.49999999999997
 20
130.0
 10
50.49999999999997
 20
129.5
 10
49.99999999999997
 20
129.5
 10
45.50000000000001
 20
129.5
 10
45.5
 20
120.5
 10
50.00000000000006
 20
120.5
 10
50.50000000000006
 20
120.5
 10
51.00000000000006
 20
120.5
 10
59.49999999999999
 20
120.5
 10
60.0
 20
120.5
 10
60.0
 20
80.86602540378443
 10
60.0
 20
80.28867513459481
 10
60.0
 20
79.71132486540519
 10
60.0
 20
79.13397459621557
 10
60.0
 20
70.0
 10
75.0
 20
70.0
 10
75.0
 20
79.13397459621557
 10
75.0
 20
79.71132486540519
 10
75.0
 20
80.28867513459481
  0
LWPOLYLINE
  5
46
330
17
100
AcDbEntity
  8
0
100
AcDbPolyline
 90
74
 70
0
 10
65.40000000000006
 20
231.9
 10
65.90000000000006
 20
231.9
 10
74.39999999999999
 20
231.9
 10
74.89999999999999
 20
231.9
 10
74.9
 20
180.3660258851571
 10
74.9
 20
179.78867529505237
 10
74.9
 20
179.5
 10
74.9
 20
169.5
 10
89.90590121775234
 20
169.5158216776121
 10
89.90590121775234
 20
178.64979579245502
 10
89.90590121775234
 20
179.22714638255974
 10
89.90590121775234
 20
179.5158216776121
 10
89.90590121775234
 20
231.9000000000001
 10
90.4
 20
231.9000000000001
 10
94.62477094238993
 20
231.90000000000015
 10
99.40000000000002
 20
231.90000000000023
 10
99.90000000000002
 20
231.90000000000023
 10
104.4000000000001
 20
231.9000000000003
 10
104.4
 20
240.9000000000003
 10
99.9000000000001
 20
240.9
 10
99.4000000000001
 20
240.9
 10
99.40000000000002
 20
241.4
 10
99.39999999999995
 20
245.9000000000002
 10
90.39999999999993
 20
245.9
 10
90.4
 20
241.4
 10
90.4
 20
240.9
 10
90.36193976625567
 20
240.70865828381756
 10
90.2535533905933
 20
240.54644660940681
 10
90.09134171618257
 20
240.43806023374444
 10
89.90000000000003
 20
240.4000000000001
 10
89.70865828381748
 20
240.43806023374444
 10
89.54644660940676
 20
240.54644660940681
 10
89.43806023374438
 20
240.70865828381753
 10
89.40000000000002
 20
240.9000000000001
 10
89.4
 20
241.4
 10
89.4
 20
241.73333333333343
 10
89.4
 20
241.9
 10
89.39999999999993
 20
245.9000000000001
 10
89.4380602337443
 20
246.09134171618263
 10
89.54644660940666
 20
246.25355339059337
 10
89.70865828381739
 20
246.36193976625574
 10
89.9
 20
246.40000000000006
 10
89.89999999999993
 20
251.4
 10
89.89999999999993
 20
251.7571428571429
 10
89.89999999999993
 20
251.9
 10
89.8999999999998
 20
261.4
 10
74.9
 20
261.4
 10
74.90000000000002
 20
251.9000000000001
 10
74.90000000000002
 20
251.4000000000001
 10
74.90000000000002
 20
250.9000000000001
 10
74.90000000000002
 20
246.4000000000001
 10
75.09134171618257
 20
246.36193976625574
 10
75.2535533905933
 20
246.25355339059337
 10
75.36193976625566
 20
246.09134171618263
 10
75.40000000000002
 20
245.9000000000001
 10
75.39999999999999
 20
241.9
 10
75.39999999999999
 20
241.4
 10
75.39999999999999
 20
240.9
 10
75.36193976625563
 20
240.70865828381747
 10
75.25355339059327
 20
240.54644660940673
 10
75.09134171618254
 20
240.43806023374435
 10
74.89999999999999
 20
240.4
 10
74.70865828381744
 20
240.43806023374435
 10
74.54644660940671
 20
240.54644660940673
 10
74.43806023374435
 20
240.70865828381747
 10
74.39999999999999
 20
240.9
 10
74.40000000000002
 20
245.9
 10
65.4
 20
245.9
 10
65.39999999999998
 20
241.4
 10
65.39999999999998
 20
240.9
 10
60.40000000000001
 20
240.9000000000001
 10
60.40000000000001
 20
231.9
 10
64.90000000000006
 20
231.9
 10
65.40000000000006
 20
231.9
  0
LWPOLYLINE
  5
47
330
17
100
AcDbEntity
  8
0
100
AcDbPolyline
 90
60
 70
0
 10
139.662372044323
 20
80.14006880362848
 10
140.0000982821634
 20
80.5002786914656
 10
140.0
 20
70.0
 10
170.0
 20
70.0
 10
170.0046561906697
 20
80.50454420524274
 10
176.3390963996104
 20
73.73410539599877
 10
183.5954218368299
 20
80.62035095889829
 10
177.3068369185586
 20
87.33809547742399
 10
177.3115859561186
 20
87.34254047125796
 10
196.07
 20
104.9
 10
196.0929893274398
 20
104.95282280579683
 10
196.30933487624793
 20
105.4499221202338
 10
201.31
 20
116.94
 10
183.0595442661608
 20
145.1745355623686
 10
170.5053233674741
 20
145.2033858611101
 10
170.0053233792963
 20
145.2045348889268
 10
170.0000160406552
 20
275.60588099392055
 10
170.0000086009282
 20
275.7886751366045
 10
170.0
 20
275.9999999999999
 10
170.0000757461037
 20
275.9999841120788
 10
170.011508166739
 20
275.9975861353047
 10
170.58750511760257
 20
275.87676943740684
 10
182.41555582462823
 20
273.39580833709425
 10
201.36
 20
291.4400000000001
 10
198.97362336295913
 20
303.83006749951625
 10
198.86001404176312
 20
304.41992709516603
 10
198.86
 20
304.42
 10
198.85942173047096
 20
304.42052857762224
 10
198.67618909372285
 20
304.58801565168375
 10
170.5046561906697
 20
330.3387099684732
 10
170.0046561906697
 20
330.79574392550717
 10
170.0
 20
330.8000000000001
 10
170.0
 20
331.3
 10
170.0
 20
331.58867513790756
 10
170.0
 20
332.16602541372265
 10
170.0
 20
381.7
 10
140.0
 20
381.7
 10
139.9732410859071
 20
330.8121617357967
 10
139.96492187652078
 20
330.8045442052427
 10
139.5046561906697
 20
330.38309935848815
 10
111.51885383854133
 20
304.75774307804727
 10
111.15516558191304
 20
304.4247298939388
 10
111.15
 20
304.42
 10
111.14987591645729
 20
304.4193583249464
 10
111.0358848518241
 20
303.8298746520625
 10
108.64
 20
291.4400000000001
 10
127.1
 20
273.3
 10
139.41710010622302
 20
275.8814048220646
 10
140.0046561906697
 20
276.0045442052428
 10
140.00465355139144
 20
275.4871228841285
 10
140.0046521677718
 20
275.2158690679447
 10
140.00464922280614
 20
274.6385187925757
 10
140.0039890020431
 20
145.2045348889268
 10
126.9840190409454
 20
145.2092429250455
 10
108.7
 20
117.0
 10
113.9352916130129
 20
104.8940530835162
 10
132.6931630814414
 20
87.33809547742399
 10
126.4039737169042
 20
80.6249088093613
 10
133.6610136101338
 20
73.73917835972053
 10
139.662372044323
 20
80.14006880362848
  0
LWPOLYLINE
  5
48
330
17
100
AcDbEntity
  8
0
100
AcDbPolyline
 90
11
 70
0
 10
90.39999999999999
 20
236.8
 10
90.39999999999999
 20
236.0
 10
90.4
 20
235.30000000000004
 10
89.9
 20
235.30000000000004
 10
89.4
 20
235.30000000000004
 10
89.40000000000002
 20
236.0
 10
89.40000000000002
 20
236.8
 10
89.4
 20
237.00000000000006
 10
89.9
 20
237.00000000000006
 10
90.4
 20
237.00000000000006
 10
90.39999999999999
 20
236.8
  0
LWPOLYLINE
  5
49
330
17
100
AcDbEntity
  8
0
100
AcDbPolyline
 90
65
 70
0
 10
93.91921471959678
 20
236.20490967798386
 10
93.90481527332781
 20
236.30198285967043
 10
93.9
 20
236.4
 10
93.90481527332781
 20
236.49801714032958
 10
93.91921471959678
 20
236.59509032201615
 10
93.94305966426779
 20
236.69028467725448
 10
93.97612046748871
 20
236.7826834323651
 10
94.01807873565166
 20
236.871396736826
 10
94.06853038769746
 20
236.9555702330196
 10
94.12698954663726
 20
237.03439328416366
 10
94.19289321881345
 20
237.10710678118656
 10
94.26560671583636
 20
237.17301045336274
 10
94.3444297669804
 20
237.23146961230256
 10
94.42860326317401
 20
237.28192126434837
 10
94.51731656763492
 20
237.32387953251128
 10
94.60971532274554
 20
237.35694033573222
 10
94.70490967798388
 20
237.38078528040324
 10
94.80198285967045
 20
237.3951847266722
 10
94.9
 20
237.4
 10
94.99801714032957
 20
237.3951847266722
 10
95.09509032201613
 20
237.38078528040324
 10
95.19028467725447
 20
237.35694033573222
 10
95.28268343236509
 20
237.32387953251128
 10
95.371396736826
 20
237.28192126434837
 10
95.45557023301961
 20
237.23146961230256
 10
95.53439328416366
 20
237.17301045336274
 10
95.60710678118656
 20
237.10710678118656
 10
95.67301045336274
 20
237.03439328416366
 10
95.73146961230255
 20
236.9555702330196
 10
95.78192126434836
 20
236.871396736826
 10
95.8238795325113
 20
236.7826834323651
 10
95.85694033573222
 20
236.69028467725448
 10
95.88078528040323
 20
236.59509032201615
 10
95.8951847266722
 20
236.49801714032958
 10
95.9
 20
236.4
 10
95.8951847266722
 20
236.30198285967043
 10
95.88078528040323
 20
236.20490967798386
 10
95.85694033573222
 20
236.10971532274553
 10
95.8238795325113
 20
236.0173165676349
 10
95.78192126434836
 20
235.928603263174
 10
95.73146961230255
 20
235.8444297669804
 10
95.67301045336275
 20
235.76560671583636
 10
95.60710678118656
 20
235.69289321881345
 10
95.53439328416366
 20
235.62698954663728
 10
95.45557023301961
 20
235.56853038769745
 10
95.371396736826
 20
235.51807873565164
 10
95.28268343236509
 20
235.47612046748873
 10
95.19028467725447
 20
235.4430596642678
 10
95.09509032201613
 20
235.41921471959677
 10
94.99801714032957
 20
235.4048152733278
 10
94.9
 20
235.4
 10
94.80198285967045
 20
235.4048152733278
 10
94.70490967798388
 20
235.41921471959677
 10
94.60971532274554
 20
235.4430596642678
 10
94.51731656763492
 20
235.47612046748873
 10
94.42860326317401
 20
235.51807873565164
 10
94.3444297669804
 20
235.56853038769745
 10
94.26560671583636
 20
235.62698954663728
 10
94.19289321881345
 20
235.69289321881345
 10
94.12698954663726
 20
235.76560671583636
 10
94.06853038769746
 20
235.8444297669804
 10
94.01807873565166
 20
235.928603263174
 10
93.97612046748871
 20
236.0173165676349
 10
93.94305966426779
 20
236.10971532274553
 10
93.91921471959678
 20
236.20490967798386
  0
LWPOLYLINE
  5
4A
330
17
100
AcDbEntity
  8
0
100
AcDbPolyline
 90
11
 70
0
 10
99.90000000000008
 20
237.3000000000001
 10
99.90000000000006
 20
236.8
 10
99.90000000000005
 20
236.0
 10
99.90000000000005
 20
235.50000000000014
 10
99.40000000000005
 20
235.50000000000014
 10
98.90000000000005
 20
235.50000000000014
 10
98.90000000000006
 20
236.0
 10
98.90000000000008
 20
236.8
 10
98.90000000000008
 20
237.3000000000001
 10
99.40000000000008
 20
237.3000000000001
 10
99.90000000000008
 20
237.3000000000001
  0
LWPOLYLINE
  5
4B
330
17
100
AcDbEntity
  8
0
100
AcDbPolyline
 90
11
 70
0
 10
95.80000000000007
 20
240.9
 10
95.80000000000007
 20
240.4
 10
95.3
 20
240.4
 10
94.50000000000001
 20
240.4
 10
94.00000000000004
 20
240.4
 10
94.00000000000004
 20
240.9
 10
94.00000000000004
 20
241.4
 10
94.50000000000001
 20
241.4
 10
95.3
 20
241.4
 10
95.80000000000007
 20
241.4
 10
95.80000000000007
 20
240.9
  0
LWPOLYLINE
  5
4C
330
17
100
AcDbEntity
  8
0
100
AcDbPolyline
 90
11
 70
0
 10
82.80590121775232
 20
241.9
 10
83.8
 20
241.9
 10
83.8
 20
241.4
 10
83.8
 20
240.9
 10
82.80590121775232
 20
240.9
 10
82.00590121775234
 20
240.9
 10
81.0
 20
240.9
 10
81.0
 20
241.4
 10
81.0
 20
241.9
 10
82.00590121775234
 20
241.9
 10
82.80590121775232
 20
241.9
  0
LWPOLYLINE
  5
4D
330
17
100
AcDbEntity
  8
0
100
AcDbPolyline
 90
11
 70
0
 10
128.46274408098475
 20
287.37046985312423
 10
128.11191717052384
 20
287.01421084776933
 10
125.93426437043027
 20
289.15865966851504
 10
125.34915778258147
 20
289.73484478501706
 10
122.34096111568135
 20
292.69717367171006
 10
122.69178802614225
 20
293.05343267706496
 10
123.04261493660314
 20
293.40969168241986
 10
126.15494523478291
 20
290.344816952428
 10
126.73439345433192
 20
289.77420392768795
 10
128.81357099144563
 20
287.72672885847913
 10
128.46274408098475
 20
287.37046985312423
  0
LWPOLYLINE
  5
4E
330
17
100
AcDbEntity
  8
0
100
AcDbPolyline
 90
11
 70
0
 10
139.5046561906697
 20
308.8845442052427
 10
140.0046561906697
 20
308.8845442052427
 10
140.5046561906697
 20
308.8845442052427
 10
140.5046561906697
 20
300.33296070193836
 10
140.5046561906697
 20
299.35529815358876
 10
140.5046561906697
 20
297.92454420524274
 10
140.0046561906697
 20
297.92454420524274
 10
139.5046561906697
 20
297.92454420524274
 10
139.5046561906697
 20
298.7933158954653
 10
139.5046561906697
 20
299.7709784438149
 10
139.5046561906697
 20
308.8845442052427
  0
LWPOLYLINE
  5
4F
330
17
100
AcDbEntity
  8
0
100
AcDbPolyline
 90
65
 70
0
 10
114.0046561906697
 20
304.0045442052428
 10
114.00947146399751
 20
304.1025613455723
 10
114.02387091026648
 20
304.1996345272589
 10
114.0477158549375
 20
304.29482888249726
 10
114.08077665815841
 20
304.38722763760785
 10
114.12273492632136
 20
304.4759409420688
 10
114.17318657836717
 20
304.56011443826236
 10
114.23164573730696
 20
304.63893748940643
 10
114.29754940948315
 20
304.71165098642933
 10
114.37026290650606
 20
304.77755465860554
 10
114.4490859576501
 20
304.83601381754534
 10
114.53325945384371
 20
304.88646546959114
 10
114.62197275830462
 20
304.9284237377541
 10
114.71437151341524
 20
304.961484540975
 10
114.80956586865358
 20
304.985329485646
 10
114.90663905034015
 20
304.999728931915
 10
115.0046561906697
 20
305.0045442052428
 10
115.10267333099927
 20
304.999728931915
 10
115.19974651268583
 20
304.985329485646
 10
115.29494086792417
 20
304.961484540975
 10
115.38733962303479
 20
304.9284237377541
 10
115.4760529274957
 20
304.88646546959114
 10
115.56022642368931
 20
304.83601381754534
 10
115.63904947483336
 20
304.77755465860554
 10
115.71176297185626
 20
304.71165098642933
 10
115.77766664403244
 20
304.63893748940643
 10
115.83612580297225
 20
304.56011443826236
 10
115.88657745501806
 20
304.4759409420688
 10
115.928535723181
 20
304.38722763760785
 10
115.96159652640192
 20
304.29482888249726
 10
115.98544147107293
 20
304.1996345272589
 10
115.9998409173419
 20
304.1025613455723
 10
116.0046561906697
 20
304.0045442052428
 10
115.9998409173419
 20
303.90652706491323
 10
115.98544147107293
 20
303.80945388322664
 10
115.96159652640192
 20
303.7142595279883
 10
115.928535723181
 20
303.6218607728777
 10
115.88657745501806
 20
303.53314746841676
 10
115.83612580297225
 20
303.4489739722232
 10
115.77766664403245
 20
303.37015092107913
 10
115.71176297185626
 20
303.2974374240562
 10
115.63904947483336
 20
303.23153375188
 10
115.56022642368931
 20
303.1730745929402
 10
115.4760529274957
 20
303.1226229408944
 10
115.38733962303479
 20
303.0806646727315
 10
115.29494086792417
 20
303.04760386951057
 10
115.19974651268583
 20
303.02375892483957
 10
115.10267333099927
 20
303.00935947857056
 10
115.0046561906697
 20
303.0045442052428
 10
114.90663905034015
 20
303.00935947857056
 10
114.80956586865358
 20
303.02375892483957
 10
114.71437151341524
 20
303.04760386951057
 10
114.62197275830462
 20
303.0806646727315
 10
114.53325945384371
 20
303.1226229408944
 10
114.4490859576501
 20
303.1730745929402
 10
114.37026290650606
 20
303.23153375188
 10
114.29754940948315
 20
303.2974374240562
 10
114.23164573730696
 20
303.37015092107913
 10
114.17318657836717
 20
303.4489739722232
 10
114.12273492632136
 20
303.53314746841676
 10
114.08077665815841
 20
303.6218607728777
 10
114.0477158549375
 20
303.7142595279883
 10
114.02387091026648
 20
303.80945388322664
 10
114.00947146399751
 20
303.90652706491323
 10
114.0046561906697
 20
304.0045442052428
  0
LWPOLYLINE
  5
50
330
17
100
AcDbEntity
  8
0
100
AcDbPolyline
 90
13
 70
0
 10
158.00190620969042
 20
80.29049281337916
 10
158.00181874284533
 20
79.71314255081502
 10
158.00173127600027
 20
79.13579228825088
 10
155.28488990637695
 20
79.13620388162596
 10
154.48487964111263
 20
79.13632508079823
 10
152.0026625141342
 20
79.13670112929942
 10
152.00274998097927
 20
79.71405139186358
 10
152.00283744782436
 20
80.29140165442772
 10
152.00292491466942
 20
80.86875191699185
 10
154.4855366495541
 20
80.86837580870876
 10
155.28553666691016
 20
80.86825461108903
 10
158.0019936765355
 20
80.86784307594331
 10
158.00190620969042
 20
80.29049281337916
  0
LWPOLYLINE
  5
51
330
17
100
AcDbEntity
  8
0
100
AcDbPolyline
 90
11
 70
0
 10
174.38875834180487
 20
84.60740149169713
 10
174.7304079721729
 20
84.24233227898621
 10
174.626430859334
 20
84.14502540968229
 10
174.0422095400052
 20
83.5982825158632
 10
173.2690405884612
 20
82.87471318350141
 10
172.92739095809313
 20
83.23978239621233
 10
172.5857413277251
 20
83.60485160892325
 10
173.37027658828504
 20
84.33905808936196
 10
173.9544979076138
 20
84.88580098318104
 10
174.0471087114368
 20
84.97247070440805
 10
174.38875834180487
 20
84.60740149169713
  0
LWPOLYLINE
  5
52
330
17
100
AcDbEntity
  8
0
100
AcDbPolyline
 90
47
 70
0
 10
169.5510678375921
 20
120.4426835731277
 10
169.85106982240188
 20
120.63515709350801
 10
169.8908988099652
 20
120.6499810770478
 10
169.93328710104444
 20
120.64692632375403
 10
169.97057895173592
 20
120.62654455223365
 10
169.99603908559135
 20
120.5925169116694
 10
170.0050691510474
 20
120.5509891299304
 10
170.00507047426456
 20
120.67930687259107
 10
170.0105790101492
 20
120.71203752650057
 10
170.02649710059558
 20
120.74116232812179
 10
170.0510711456084
 20
120.76347277376153
 10
170.35107313041823
 20
120.95594629414187
 10
170.39090211798154
 20
120.97077027768165
 10
170.4332904090608
 20
120.96771552438788
 10
170.47058225975226
 20
120.94733375286751
 10
170.4960423936077
 20
120.91330611230326
 10
170.50507245906374
 20
120.87177833056423
 10
170.50506265749078
 20
119.92127999325027
 10
170.49955412160614
 20
119.88854933934077
 10
170.48363603115976
 20
119.85942453771953
 10
170.45906198614693
 20
119.83711409207979
 10
170.15906000133708
 20
119.64464057169945
 10
170.11923101377377
 20
119.62981658815967
 10
170.07684272269452
 20
119.63287134145345
 10
170.03955087200302
 20
119.65325311297383
 10
170.0140907381476
 20
119.68728075353806
 10
170.0050606726916
 20
119.72880853527695
 10
170.00505934947444
 20
119.60049079261641
 10
169.9995508135898
 20
119.56776013870692
 10
169.98363272314342
 20
119.53863533708568
 10
169.9590586781306
 20
119.51632489144593
 10
169.66013342192596
 20
119.32454217231236
 10
170.00505650384565
 20
119.32453861545316
 10
170.50505650381908
 20
119.32453345943522
 10
170.50492306609377
 20
106.38453532269841
 10
170.00492306612034
 20
106.38454047871636
 10
169.50492306614692
 20
106.38454563473431
 10
169.50505650387225
 20
119.32454377147111
 10
169.5540397069868
 20
119.32454326635457
 10
169.5395475639867
 20
119.33246391233999
 10
169.51408743013127
 20
119.36649155290422
 10
169.50505736467525
 20
119.40801933464327
 10
169.5050624268207
 20
119.89891613638378
 10
169.50506716624824
 20
120.35851767195723
 10
169.51057570213288
 20
120.39124832586673
 10
169.52649379257926
 20
120.42037312748795
 10
169.5510678375921
 20
120.4426835731277
  0
LWPOLYLINE
  5
53
330
17
100
AcDbEntity
  8
0
100
AcDbPolyline
 90
12
 70
0
 10
182.0583145570464
 20
127.48707818952906
 10
182.09896623083407
 20
127.42421621476016
 10
186.06311780304588
 20
121.2942251739454
 10
185.64326047626017
 20
121.02271122376172
 10
185.22340314947445
 20
120.75119727357801
 10
181.25776156239976
 20
126.88349240836942
 10
180.82325830395675
 20
127.55538929044913
 10
180.0107574504865
 20
128.8118051619664
 10
180.4306147772722
 20
129.08331911215006
 10
180.85047210405793
 20
129.35483306233377
 10
181.66454108034353
 20
128.09599231410982
 10
182.0583145570464
 20
127.48707818952906
  0
LWPOLYLINE
  5
54
330
17
100
AcDbEntity
  8
0
100
AcDbPolyline
 90
14
 70
0
 10
158.00190620969042
 20
145.99049281337918
 10
158.00181874284533
 20
145.41314255081505
 10
158.00173127600027
 20
144.8357922882509
 10
155.31175525756066
 20
144.8361998116053
 10
154.62858384835002
 20
144.83630331003891
 10
154.51175524020462
 20
144.83632100922506
 10
152.0026625141342
 20
144.83670112929946
 10
152.00274998097927
 20
145.4140513918636
 10
152.00283744782436
 20
145.99140165442773
 10
152.00292491466945
 20
146.56875191699189
 10
154.51241224864603
 20
146.56837173713558
 10
155.3124122660021
 20
146.56825053951584
 10
158.0019936765355
 20
146.56784307594333
 10
158.00190620969042
 20
145.99049281337918
  0
LWPOLYLINE
  5
55
330
17
100
AcDbEntity
  8
0
100
AcDbPolyline
 90
13
 70
0
 10
158.00190620969042
 20
194.99049281337918
 10
158.00181874284533
 20
194.41314255081505
 10
158.00173127600027
 20
193.8357922882509
 10
155.3318097117932
 20
193.83619677341522
 10
154.53179944652888
 20
193.8363179725875
 10
152.0026625141342
 20
193.83670112929946
 10
152.00274998097927
 20
194.4140513918636
 10
152.00283744782436
 20
194.99140165442773
 10
152.00292491466945
 20
195.56875191699189
 10
154.53244620706212
 20
195.56836870205055
 10
155.33245647232638
 20
195.56824750287828
 10
158.0019936765355
 20
195.56784307594333
 10
158.00190620969042
 20
194.99049281337918
  0
LWPOLYLINE
  5
56
330
17
100
AcDbEntity
  8
0
100
AcDbPolyline
 90
14
 70
0
 10
158.00173127600027
 20
233.1357922882509
 10
155.34788598339614
 20
233.13619433790797
 10
154.94795750716185
 20
233.1362549258809
 10
154.54787571813185
 20
233.13631553708026
 10
152.0026625141342
 20
233.13670112929947
 10
152.00274998097927
 20
233.71405139186362
 10
152.00283744782436
 20
234.29140165442774
 10
152.00292491466945
 20
234.8687519169919
 10
154.54852247866506
 20
234.8683662665433
 10
155.34853274392938
 20
234.86824506737102
 10
158.0019936765355
 20
234.86784307594334
 10
158.00190620969042
 20
234.2904928133792
 10
158.00181874284533
 20
233.71314255081506
 10
158.00173127600027
 20
233.1357922882509
  0
LWPOLYLINE
  5
57
330
17
100
AcDbEntity
  8
0
100
AcDbPolyline
 90
13
 70
0
 10
155.36550895948972
 20
276.36824249552484
 10
158.0019936765355
 20
276.3678430759433
 10
158.00190620969042
 20
275.79049281337916
 10
158.00181874284533
 20
275.21314255081506
 10
158.00173127600027
 20
274.6357922882509
 10
155.36486219895647
 20
274.6361917660619
 10
154.56485193369224
 20
274.6363129652342
 10
152.0026625141342
 20
274.63670112929947
 10
152.00274998097927
 20
275.2140513918636
 10
152.00283744782436
 20
275.7914016544277
 10
152.00292491466945
 20
276.36875191699187
 10
154.56550894213368
 20
276.3683636931446
 10
155.36550895948972
 20
276.36824249552484
  0
LWPOLYLINE
  5
58
330
17
100
AcDbEntity
  8
0
100
AcDbPolyline
 90
11
 70
0
 10
186.96704399086482
 20
293.41003294455163
 10
187.31787090132573
 20
293.05377393919673
 10
187.66869781178664
 20
292.69751493384183
 10
185.54992026438066
 20
290.61104365946704
 10
184.9662262505862
 20
290.03624957865486
 10
181.89762624156793
 20
287.0144383558572
 10
181.54679933110705
 20
287.3706973612121
 10
181.19597242064617
 20
287.726956366567
 10
184.1389449017715
 20
290.6250555797955
 10
184.72263891556602
 20
291.19984966060775
 10
186.96704399086482
 20
293.41003294455163
  0
LWPOLYLINE
  5
59
330
17
100
AcDbEntity
  8
0
100
AcDbPolyline
 90
11
 70
0
 10
170.5046561906697
 20
299.5223687912671
 10
170.5046561906697
 20
297.92102409334854
 10
170.0046561906697
 20
297.92102409334854
 10
169.5046561906697
 20
297.92102409334854
 10
169.5046561906697
 20
300.0421178491869
 10
169.5046561906697
 20
300.9961299472279
 10
169.5046561906697
 20
308.8792640374014
 10
170.0046561906697
 20
308.8792640374014
 10
170.5046561906697
 20
308.8792640374014
 10
170.5046561906697
 20
300.4763808893082
 10
170.5046561906697
 20
299.5223687912671
  0
LWPOLYLINE
  5
5A
330
17
100
AcDbEntity
  8
0
100
AcDbPolyline
 90
65
 70
0
 10
194.0046561906697
 20
304.0045442052428
 10
194.0094714639975
 20
304.1025613455723
 10
194.02387091026645
 20
304.1996345272589
 10
194.04771585493748
 20
304.29482888249726
 10
194.0807766581584
 20
304.38722763760785
 10
194.12273492632133
 20
304.4759409420688
 10
194.17318657836714
 20
304.56011443826236
 10
194.23164573730696
 20
304.63893748940643
 10
194.29754940948314
 20
304.71165098642933
 10
194.37026290650604
 20
304.77755465860554
 10
194.44908595765008
 20
304.83601381754534
 10
194.5332594538437
 20
304.88646546959114
 10
194.6219727583046
 20
304.9284237377541
 10
194.71437151341522
 20
304.961484540975
 10
194.80956586865355
 20
304.985329485646
 10
194.90663905034012
 20
304.999728931915
 10
195.0046561906697
 20
305.0045442052428
 10
195.10267333099927
 20
304.999728931915
 10
195.19974651268583
 20
304.985329485646
 10
195.29494086792414
 20
304.961484540975
 10
195.3873396230348
 20
304.9284237377541
 10
195.4760529274957
 20
304.88646546959114
 10
195.5602264236893
 20
304.83601381754534
 10
195.63904947483334
 20
304.77755465860554
 10
195.71176297185625
 20
304.71165098642933
 10
195.77766664403242
 20
304.63893748940643
 10
195.83612580297225
 20
304.56011443826236
 10
195.88657745501806
 20
304.4759409420688
 10
195.92853572318097
 20
304.38722763760785
 10
195.9615965264019
 20
304.29482888249726
 10
195.98544147107293
 20
304.1996345272589
 10
195.99984091734188
 20
304.1025613455723
 10
196.0046561906697
 20
304.0045442052428
 10
195.99984091734188
 20
303.90652706491323
 10
195.98544147107293
 20
303.80945388322664
 10
195.9615965264019
 20
303.7142595279883
 10
195.92853572318097
 20
303.6218607728777
 10
195.88657745501806
 20
303.53314746841676
 10
195.83612580297225
 20
303.4489739722232
 10
195.77766664403242
 20
303.37015092107913
 10
195.71176297185625
 20
303.2974374240562
 10
195.63904947483334
 20
303.23153375188
 10
195.5602264236893
 20
303.1730745929402
 10
195.4760529274957
 20
303.1226229408944
 10
195.3873396230348
 20
303.0806646727315
 10
195.29494086792417
 20
303.04760386951057
 10
195.19974651268583
 20
303.02375892483957
 10
195.10267333099927
 20
303.00935947857056
 10
195.0046561906697
 20
303.0045442052428
 10
194.90663905034012
 20
303.00935947857056
 10
194.80956586865355
 20
303.02375892483957
 10
194.71437151341522
 20
303.04760386951057
 10
194.6219727583046
 20
303.0806646727315
 10
194.5332594538437
 20
303.1226229408944
 10
194.44908595765008
 20
303.1730745929402
 10
194.37026290650604
 20
303.23153375188
 10
194.29754940948314
 20
303.2974374240562
 10
194.23164573730696
 20
303.37015092107913
 10
194.17318657836714
 20
303.4489739722232
 10
194.12273492632133
 20
303.53314746841676
 10
194.0807766581584
 20
303.6218607728777
 10
194.04771585493748
 20
303.7142595279883
 10
194.02387091026645
 20
303.80945388322664
 10
194.0094714639975
 20
303.90652706491323
 10
194.0046561906697
 20
304.0045442052428
  0
LWPOLYLINE
  5
5B
330
17
100
AcDbEntity
  8
0
100
AcDbPolyline
 90
13
 70
0
 10
158.00190620969042
 20
331.59049281337917
 10
158.00181874284533
 20
331.013142550815
 10
158.00173127600027
 20
330.43579228825087
 10
155.38767780233186
 20
330.4361883095659
 10
154.5876777849758
 20
330.4363095071857
 10
152.00266251413422
 20
330.4367011292994
 10
152.00274998097927
 20
331.0140513918635
 10
152.00283744782436
 20
331.59140165442767
 10
152.00292491466942
 20
332.1687519169918
 10
154.58833479341723
 20
332.1683602350961
 10
155.3883348107733
 20
332.1682390374763
 10
158.0019936765355
 20
332.16784307594327
 10
158.00190620969042
 20
331.59049281337917
  0
LWPOLYLINE
  5
5C
330
17
100
AcDbEntity
  8
0
100
AcDbPolyline
 90
13
 70
0
 10
157.98584821576327
 20
370.99066002864714
 10
157.985766039861
 20
370.4133097653057
 10
157.98568386395877
 20
369.8359595019642
 10
155.40380656719347
 20
369.8363269878905
 10
154.60379593426944
 20
369.83644085567533
 10
151.99196688491128
 20
369.8368126047197
 10
151.99204906081354
 20
370.41416286806117
 10
151.99213123671578
 20
370.9915131314026
 10
151.992213412618
 20
371.5688633947441
 10
154.60444049730708
 20
371.5684915890463
 10
155.4044511302311
 20
371.56837772126147
 10
157.9859303916655
 20
371.5680102919886
 10
157.98584821576327
 20
370.99066002864714
  0
ENDSEC
  0
SECTION
  2
OBJECTS
  0
DICTIONARY
  5
A
330
0
100
AcDbDictionary
281
1
  3
ACAD_COLOR
350
B
  3
ACAD_GROUP
350
C
  3
ACAD_LAYOUT
350
D
  3
ACAD_MATERIAL
350
E
  3
ACAD_MLEADERSTYLE
350
F
  3
ACAD_MLINESTYLE
350
10
  3
ACAD_PLOTSETTINGS
350
11
  3
ACAD_PLOTSTYLENAME
350
12
  3
ACAD_SCALELIST
350
14
  3
ACAD_TABLESTYLE
350
15
  3
ACAD_VISUALSTYLE
350
16
  3
EZDXF_META
350
2D
  0
DICTIONARY
  5
B
330
A
100
AcDbDictionary
281
1
  0
DICTIONARY
  5
C
330
A
100
AcDbDictionary
281
1
  0
DICTIONARY
  5
D
330
A
100
AcDbDictionary
281
1
  3
Model
350
1A
  3
Layout1
350
1E
  0
DICTIONARY
  5
E
330
A
100
AcDbDictionary
281
1
  3
ByBlock
350
1F
  3
ByLayer
350
20
  3
Global
350
21
  0
DICTIONARY
  5
F
330
A
100
AcDbDictionary
281
1
  3
Standard
350
2C
  0
DICTIONARY
  5
10
330
A
100
AcDbDictionary
281
1
  3
Standard
350
22
  0
DICTIONARY
  5
11
330
A
100
AcDbDictionary
281
1
  0
ACDBDICTIONARYWDFLT
  5
12
330
A
100
AcDbDictionary
281
1
  3
Normal
350
13
100
AcDbDictionaryWithDefault
340
13
  0
ACDBPLACEHOLDER
  5
13
330
12
  0
DICTIONARY
  5
14
330
A
100
AcDbDictionary
281
1
  0
DICTIONARY
  5
15
330
A
100
AcDbDictionary
281
1
  0
DICTIONARY
  5
16
330
A
100
AcDbDictionary
281
1
  0
LAYOUT
  5
1A
330
D
100
AcDbPlotSettings
  1

  4
A3
  6

 40
7.5
 41
20.0
 42
7.5
 43
20.0
 44
420.0
 45
297.0
 46
0.0
 47
0.0
 48
0.0
 49
0.0
140
0.0
141
0.0
142
1.0
143
1.0
 70
1024
 72
1
 73
0
 74
5
  7

 75
16
 76
0
 77
2
 78
300
147
1.0
148
0.0
149
0.0
100
AcDbLayout
  1
Model
 70
1
 71
0
 10
0.0
 20
0.0
 11
420.0
 21
297.0
 12
0.0
 22
0.0
 32
0.0
 14
1e+20
 24
1e+20
 34
1e+20
 15
-1e+20
 25
-1e+20
 35
-1e+20
146
0.0
 13
0.0
 23
0.0
 33
0.0
 16
1.0
 26
0.0
 36
0.0
 17
0.0
 27
1.0
 37
0.0
 76
1
330
17
  0
LAYOUT
  5
1E
330
D
100
AcDbPlotSettings
  1

  4
A3
  6

 40
7.5
 41
20.0
 42
7.5
 43
20.0
 44
420.0
 45
297.0
 46
0.0
 47
0.0
 48
0.0
 49
0.0
140
0.0
141
0.0
142
1.0
143
1.0
 70
0
 72
1
 73
0
 74
5
  7

 75
16
 76
0
 77
2
 78
300
147
1.0
148
0.0
149
0.0
100
AcDbLayout
  1
Layout1
 70
1
 71
1
 10
0.0
 20
0.0
 11
420.0
 21
297.0
 12
0.0
 22
0.0
 32
0.0
 14
1e+20
 24
1e+20
 34
1e+20
 15
-1e+20
 25
-1e+20
 35
-1e+20
146
0.0
 13
0.0
 23
0.0
 33
0.0
 16
1.0
 26
0.0
 36
0.0
 17
0.0
 27
1.0
 37
0.0
 76
1
330
1B
  0
MATERIAL
  5
1F
102
{ACAD_REACTORS
330
E
102
}
330
E
100
AcDbMaterial
  1
ByBlock
  2

 70
0
 40
1.0
 71
1
 41
1.0
 91
-1023410177
 42
1.0
 72
1
  3

 73
1
 74
1
 75
1
 44
0.5
 73
0
 45
1.0
 46
1.0
 77
1
  4

 78
1
 79
1
170
1
 48
1.0
171
1
  6

172
1
173
1
174
1
140
1.0
141
1.0
175
1
  7

176
1
177
1
178
1
143
1.0
179
1
  8

270
1
271
1
272
1
145
1.0
146
1.0
273
1
  9

274
1
275
1
276
1
 42
1.0
 72
1
  3

 73
1
 74
1
 75
1
 94
63
  0
MATERIAL
  5
20
102
{ACAD_REACTORS
330
E
102
}
330
E
100
AcDbMaterial
  1
ByLayer
  2

 70
0
 40
1.0
 71
1
 41
1.0
 91
-1023410177
 42
1.0
 72
1
  3

 73
1
 74
1
 75
1
 44
0.5
 73
0
 45
1.0
 46
1.0
 77
1
  4

 78
1
 79
1
170
1
 48
1.0
171
1
  6

172
1
173
1
174
1
140
1.0
141
1.0
175
1
  7

176
1
177
1
178
1
143
1.0
179
1
  8

270
1
271
1
272
1
145
1.0
146
1.0
273
1
  9

274
1
275
1
276
1
 42
1.0
 72
1
  3

 73
1
 74
1
 75
1
 94
63
  0
MATERIAL
  5
21
102
{ACAD_REACTORS
330
E
102
}
330
E
100
AcDbMaterial
  1
Global
  2

 70
0
 40
1.0
 71
1
 41
1.0
 91
-1023410177
 42
1.0
 72
1
  3

 73
1
 74
1
 75
1
 44
0.5
 73
0
 45
1.0
 46
1.0
 77
1
  4

 78
1
 79
1
170
1
 48
1.0
171
1
  6

172
1
173
1
174
1
140
1.0
141
1.0
175
1
  7

176
1
177
1
178
1
143
1.0
179
1
  8

270
1
271
1
272
1
145
1.0
146
1.0
273
1
  9

274
1
275
1
276
1
 42
1.0
 72
1
  3

 73
1
 74
1
 75
1
 94
63
  0
MLINESTYLE
  5
22
102
{ACAD_REACTORS
330
10
102
}
330
10
100
AcDbMlineStyle
  2
Standard
 70
0
  3

 62
256
 51
90.0
 52
90.0
 71
2
 49
0.5
 62
256
  6
BYLAYER
 49
-0.5
 62
256
  6
BYLAYER
  0
MLEADERSTYLE
  5
2C
102
{ACAD_REACTORS
330
F
102
}
330
F
100
AcDbMLeaderStyle
179
2
170
2
171
1
172
0
 90
2
 40
0.0
 41
0.0
173
1
 91
-1056964608
 92
-2
290
1
 42
2.0
291
1
 43
8.0
  3
Standard
 44
4.0
300

342
29
174
1
175
1
176
0
178
1
 93
-1056964608
 45
4.0
292
0
297
0
 46
4.0
 94
-1056964608
 47
1.0
 49
1.0
140
1.0
294
1
141
0.0
177
0
142
1.0
295
0
296
0
143
3.75
271
0
272
9
273
9
  0
DICTIONARY
  5
2D
330
A
100
AcDbDictionary
280
1
281
1
  3
CREATED_BY_EZDXF
350
2E
  3
WRITTEN_BY_EZDXF
350
5F
  0
DICTIONARYVAR
  5
2E
330
2D
100
DictionaryVariables
280
0
  1
1.4.2 @ 2025-12-02T05:45:01.988329+00:00
  0
DICTIONARYVAR
  5
5F
330
2D
100
DictionaryVariables
280
0
  1
1.4.2 @ 2025-12-02T05:45:01.995288+00:00
  0
ENDSEC
  0
EOF
